<svg id="Capa_1" enable-background="new 0 0 512 512" height="512" viewBox="0 0 512 512" width="512" xmlns="http://www.w3.org/2000/svg"><g><g><path d="m238.673 298.642c9.554-9.554 25.099-9.554 34.652 0 1.464 1.464 3.384 2.197 5.303 2.197s3.839-.732 5.303-2.197c2.929-2.929 2.929-7.678 0-10.606-15.402-15.402-40.463-15.402-55.865 0-2.929 2.929-2.929 7.678 0 10.606 2.929 2.929 7.678 2.929 10.607 0z"/><path d="m328.149 105.486v-10.102c0-4.142-3.358-7.5-7.5-7.5s-7.5 3.358-7.5 7.5v10.102c0 4.142 3.358 7.5 7.5 7.5s7.5-3.358 7.5-7.5z"/><path d="m255.999 92.935c-4.142 0-7.5 3.358-7.5 7.5v10.102c0 4.142 3.358 7.5 7.5 7.5s7.5-3.358 7.5-7.5v-10.102c0-4.142-3.358-7.5-7.5-7.5z"/><path d="m191.349 87.884c-4.142 0-7.5 3.358-7.5 7.5v10.102c0 4.142 3.358 7.5 7.5 7.5s7.5-3.358 7.5-7.5v-10.102c0-4.142-3.358-7.5-7.5-7.5z"/><path d="m443.293 59.146-41.458-32.558c-3.089-2.426-7.526-2.059-10.173.844l-28.019 30.717c-9.459-14.418-21.571-26.594-35.493-36.017v-14.632c0-4.142-3.358-7.5-7.5-7.5s-7.5 3.358-7.5 7.5v5.895c-5.616-2.784-11.44-5.159-17.431-7.103-.579-3.566-3.664-6.292-7.394-6.292-2.345 0-4.438 1.078-5.813 2.763-8.62-1.813-17.496-2.763-26.512-2.763s0 0 0 0c-9.024 0-17.904.931-26.536 2.731-1.377-1.668-3.459-2.731-5.79-2.731-3.704 0-6.773 2.687-7.382 6.217-5.985 1.933-11.812 4.304-17.443 7.099v-5.816c0-4.142-3.358-7.5-7.5-7.5s-7.5 3.358-7.5 7.5v14.586c-6.697 4.553-13.016 9.766-18.866 15.618-6.247 6.247-11.807 13.102-16.628 20.445l-.185-.203c-2.792-3.061-7.536-3.277-10.596-.487-3.06 2.792-3.278 7.535-.487 10.596l11.777 12.912-9.306 7.304c-3.236 2.54-3.822 7.211-1.315 10.472l20.598 26.785-51.083-25.186 11.412-8.962c2.024-1.59 3.092-4.106 2.828-6.667s-1.822-4.807-4.127-5.951l-30.555-15.16 26.659-20.93c2.831 2.597 7.227 2.646 10.118.01 3.061-2.791 3.279-7.535.488-10.596l-4.24-4.65c-2.646-2.902-7.084-3.271-10.173-.845l-41.46 32.549c-2.024 1.59-3.093 4.106-2.829 6.667.263 2.561 1.821 4.807 4.127 5.951l30.558 15.16-11.438 8.982c-2.027 1.592-3.094 4.113-2.827 6.676s1.832 4.81 4.143 5.949l36.865 18.177c-.011.673-.028 1.347-.028 2.017v34.239c-12.002 6.343-20.203 18.949-20.203 33.442 0 20.846 16.959 37.805 37.805 37.805h2.861c2.705 39.453 26.593 73.173 60.35 89.85v35.188l-54.32 13.58c-24.309 6.069-44.966 22.269-56.675 44.445-1.934 3.663-.532 8.2 3.13 10.134 1.117.59 2.314.869 3.496.869 2.692 0 5.294-1.454 6.639-4 9.721-18.41 26.868-31.857 47.046-36.896l20.241-5.06c7.941 36.461 40.235 63.013 78.35 63.013s70.409-26.552 78.35-63.013l20.242 5.061c32.7 8.17 55.538 37.417 55.538 71.124v38.5h-55.715v-24.825c0-4.142-3.358-7.5-7.5-7.5s-7.5 3.358-7.5 7.5v24.825h-166.83v-24.825c0-4.142-3.358-7.5-7.5-7.5s-7.5 3.358-7.5 7.5v24.825h-55.715v-38.5c0-1.298.03-2.532.09-3.667.217-4.136-2.96-7.666-7.097-7.883-4.148-.211-7.666 2.96-7.883 7.097-.073 1.396-.11 2.894-.11 4.453v46c0 4.142 3.358 7.5 7.5 7.5h323.26c4.142 0 7.5-3.358 7.5-7.5v-46c0-40.603-27.511-75.834-66.901-85.676l-54.322-13.581v-35.087c11.202-5.52 21.48-13.025 30.417-22.346 2.867-2.99 2.767-7.737-.223-10.604-2.989-2.867-7.737-2.767-10.604.223-8.523 8.889-18.462 15.859-29.328 20.718-.522.163-1.017.387-1.483.654-11.424 4.868-23.836 7.419-36.686 7.419-50.965 0-92.533-40.976-93.497-91.71l11.024-21.09c5.695-10.895 16.87-17.663 29.163-17.663h18.964c55.224 0 81.567-34.279 89.188-46.468h.139c4.463 0 8.493 2.815 10.03 7.005l28.492 77.706c-.17 12.726-2.844 25.022-7.968 36.564-1.681 3.786.026 8.217 3.812 9.898.989.439 2.022.647 3.04.647 2.874 0 5.617-1.662 6.859-4.458 5.143-11.585 8.159-23.815 9.014-36.448h2.859c20.846 0 37.805-16.959 37.805-37.805 0-14.493-8.202-27.099-20.203-33.442v-34.236c0-.67-.017-1.344-.028-2.017l36.861-18.176c2.312-1.14 3.875-3.386 4.143-5.95.267-2.563-.8-5.084-2.827-6.675l-11.434-8.979 30.561-15.16c2.306-1.144 3.864-3.39 4.127-5.951.262-2.56-.805-5.076-2.83-6.666zm-187.294 371.183c-31.138 0-57.504-21.791-63.798-51.651l16.818-4.205c4.372 21.942 23.772 38.531 46.98 38.531s42.608-16.589 46.98-38.531l16.818 4.205c-6.294 29.86-32.66 51.651-63.798 51.651zm32.907-100.147v34.915c0 18.145-14.762 32.906-32.907 32.906s-32.907-14.762-32.907-32.906v-34.983c10.384 3.312 21.439 5.105 32.907 5.105 11.358.001 22.42-1.721 32.907-5.037zm-166.83-133.782c0-12.575 10.23-22.805 22.805-22.805h2.602v45.609h-2.602c-12.574.001-22.805-10.229-22.805-22.804zm188.904-68.109h-4.473c-2.851 0-5.455 1.616-6.721 4.171-.209.423-21.605 42.297-78.133 42.297h-18.964c-16.399 0-31.427 8.277-40.206 21.864v-30.527c0-4.142-3.358-7.5-7.5-7.5h-10.102c-.875 0-1.741.041-2.602.1v-24.61l38.843 19.151c1.059.522 2.192.774 3.313.774 2.192 0 4.341-.962 5.804-2.746 2.211-2.697 2.271-6.562.145-9.327l-35.723-46.453 9.818-7.705c1.641-1.288 2.671-3.2 2.844-5.278.173-2.079-.527-4.135-1.933-5.676l-6.556-7.188c4.707-7.729 10.319-14.89 16.757-21.328 2.648-2.649 5.404-5.15 8.258-7.501v22.251c0 4.142 3.358 7.5 7.5 7.5s7.5-3.358 7.5-7.5v-32.703c5.541-3.232 11.334-5.977 17.325-8.213v70.496c0 4.142 3.358 7.5 7.5 7.5s7.5-3.358 7.5-7.5v-74.936c5.662-1.254 11.451-2.074 17.325-2.454v52.86c0 4.142 3.358 7.5 7.5 7.5s7.5-3.358 7.5-7.5v-52.859c5.878.387 11.664 1.238 17.325 2.504v74.885c0 4.142 3.358 7.5 7.5 7.5s7.5-3.358 7.5-7.5v-70.426c6.006 2.247 11.8 4.991 17.325 8.203v32.643c0 4.142 3.358 7.5 7.5 7.5s7.5-3.358 7.5-7.5v-22.225c9.769 8.017 18.259 17.708 25.014 28.802l-6.555 7.186c-1.405 1.541-2.106 3.596-1.933 5.674.172 2.078 1.202 3.991 2.842 5.278l9.819 7.711-29.865 38.835c-4.533-3.797-10.338-6.03-16.491-6.03zm56.137 90.914h-2.602v-45.609h2.602c12.575 0 22.805 10.23 22.805 22.805s-10.231 22.804-22.805 22.804zm2.602-60.51c-.861-.059-1.727-.1-2.602-.1h-10.102c-4.142 0-7.5 3.358-7.5 7.5v18.369l-12.55-34.228 32.754-16.151zm24.406-79.93c-2.306 1.144-3.864 3.39-4.127 5.951-.264 2.56.804 5.077 2.828 6.667l11.409 8.959-51.076 25.186 20.595-26.781c2.507-3.26 1.921-7.93-1.313-10.47l-9.308-7.31 34.917-38.279 26.636 20.917z"/><path d="m321.828 217.451c0-4.142-3.358-7.5-7.5-7.5s-7.5 3.358-7.5 7.5c0 4.776-3.886 8.663-8.663 8.663s-8.663-3.886-8.663-8.663c0-4.142-3.358-7.5-7.5-7.5s-7.5 3.358-7.5 7.5c0 13.047 10.615 23.663 23.663 23.663s23.663-10.615 23.663-23.663z"/><path d="m237.495 217.451c0-4.142-3.358-7.5-7.5-7.5s-7.5 3.358-7.5 7.5c0 4.776-3.886 8.663-8.663 8.663s-8.663-3.886-8.663-8.663c0-4.142-3.358-7.5-7.5-7.5s-7.5 3.358-7.5 7.5c0 13.047 10.615 23.663 23.663 23.663s23.663-10.615 23.663-23.663z"/></g></g></svg>