<svg id="Layer_1" enable-background="new 0 0 512 512" viewBox="0 0 512 512" xmlns="http://www.w3.org/2000/svg"><path d="m493.82 485.7c-21.95-11.69-46.83-16.38-70.89-20.92-25.93-4.89-50.42-9.51-68.12-22.36-18.98-13.77-28.07-35.77-28.5-69.1 19.52-19.17 39.31-46.96 58.95-82.75.06-.09.1-.19.16-.28 2.55-4.64 5.09-9.42 7.63-14.33 24.62-42.21 27.21-91 7.38-137.71 12.41-24.88 8.51-52.76-10.89-76.94-14.07-17.53-34.98-31.53-58.89-39.43-25.58-8.45-51.91-9.18-76.14-2.13-30.46 6.77-59.92 21.37-85.19 42.23-25.02 20.64-44.71 46.36-56.95 74.36-20.67 47.3-18.33 96.87 6.59 139.61 22.19 42.91 44.64 75.66 66.74 97.36-.43 33.32-9.52 55.32-28.5 69.1-17.71 12.84-42.19 17.46-68.12 22.36-24.06 4.54-48.94 9.23-70.89 20.92-2.43 1.29-3.67 4.08-3 6.75s3.06 4.56 5.81 4.56h470c2.75 0 5.15-1.88 5.82-4.55s-.57-5.45-3-6.75zm-231.82-90.42v-28.63c9.15-1.29 19.29-5.45 30.38-14.01 2.62-2.02 3.11-5.79 1.08-8.42-2.02-2.62-5.79-3.11-8.42-1.08-8.53 6.58-16.13 10.08-23.04 11.4v-123.19h47.55c3.31 0 6-2.69 6-6s-2.69-6-6-6h-47.55v-13.74h27.92c3.31 0 6-2.69 6-6s-2.69-6-6-6h-27.92v-26.45c52.52 10.12 102.74 71.14 111.83 119.3-37.94 68.64-75.49 105.19-111.83 108.82zm120.6-125.23c-.05.09-.1.18-.15.27-.07.13-.14.26-.21.39-7.3-23.61-22.06-48.14-41.98-69.27-19.4-20.58-40.99-35.17-62.44-42.44 36.74-10.22 75.98-14.17 112.04-14.88 17.79 42.83 15.26 87.4-7.26 125.93zm-259.24-128.89c23.55-53.86 76.12-96.93 133.94-109.72.13-.03.26-.06.39-.1 10.21-2.99 20.51-4.34 30.64-4.34 38.07 0 73.6 19.09 91.85 41.83 9.58 11.94 23.22 35.71 9.89 63.29-62.84 1.19-116.11 11.55-158.31 30.81-51.62 23.55-85.7 60.09-101.51 108.72-.23-.44-.46-.88-.69-1.33-.05-.09-.1-.18-.15-.27-23.02-39.37-25.17-85.15-6.05-128.89zm15.01 145.65c15.71-62.02 59.23-98.18 111.63-118.59v186.5c-8.59-1.44-16.06-6.1-23.01-11.55-2.61-2.04-6.38-1.59-8.42 1.02s-1.59 6.38 1.02 8.42c7.87 6.16 18.03 12.6 30.41 14.15v28.52c-36.28-3.63-73.77-40.06-111.63-108.47zm-85.48 198.19c12.54-3.55 25.6-6.01 38.4-8.43 49.56-9.35 100.71-19.01 105.97-92.85 19.42 15.83 39.12 23.85 58.72 23.85h.01.01c19.6 0 39.31-8.02 58.72-23.85 5.25 73.83 56.4 83.5 105.97 92.85 12.81 2.42 25.86 4.88 38.4 8.43zm155.86-198.44c-14.03 0-26.35-9.46-29.97-22.99-.86-3.2 1.05-6.49 4.25-7.35 3.21-.85 6.49 1.05 7.35 4.25 2.22 8.3 9.78 14.09 18.38 14.09s16.16-5.79 18.38-14.09c.86-3.2 4.15-5.1 7.35-4.25 3.2.86 5.1 4.14 4.25 7.35-3.64 13.53-15.96 22.99-29.99 22.99zm94.5 0c-14.03 0-26.35-9.46-29.97-22.99-.86-3.2 1.05-6.49 4.25-7.35 3.21-.85 6.49 1.05 7.35 4.25 2.22 8.3 9.78 14.09 18.38 14.09s16.16-5.79 18.38-14.09c.86-3.2 4.15-5.1 7.35-4.25 3.2.86 5.1 4.14 4.25 7.35-3.63 13.53-15.96 22.99-29.99 22.99zm42.85 11.59c-16.19 16.37-34.79 26.65-55.3 30.57-.38.07-.76.11-1.13.11-2.82 0-5.34-2-5.89-4.87-.62-3.25 1.51-6.4 4.77-7.02 18.08-3.46 34.57-12.62 49.02-27.23 2.33-2.36 6.13-2.38 8.48-.05 2.36 2.33 2.38 6.13.05 8.49z"/></svg>