<svg id="Capa_1" enable-background="new 0 0 512 512" height="512" viewBox="0 0 512 512" width="512" xmlns="http://www.w3.org/2000/svg"><g><path d="m319.813 218.766c-13.01 6.088-25.658 6.088-38.668 0-3.749-1.757-8.217-.137-9.972 3.614-1.756 3.752-.138 8.216 3.614 9.972 8.523 3.989 17.107 5.983 25.691 5.983s17.168-1.994 25.691-5.983c3.752-1.756 5.37-6.22 3.614-9.972-1.754-3.751-6.22-5.371-9.97-3.614z"/><path d="m307.979 261.604v-4.273c0-4.143-3.357-7.5-7.5-7.5s-7.5 3.357-7.5 7.5v4.273c0 4.143 3.357 7.5 7.5 7.5s7.5-3.357 7.5-7.5z"/><path d="m324.249 269.43c-3.69-1.881-8.207-.413-10.088 3.277-2.675 5.251-7.79 8.385-13.683 8.385s-11.008-3.134-13.683-8.385c-1.881-3.69-6.396-5.157-10.088-3.277-3.69 1.881-5.158 6.396-3.277 10.088 5.209 10.224 15.573 16.574 27.048 16.574s21.839-6.351 27.048-16.574c1.882-3.692.414-8.207-3.277-10.088z"/><path d="m185.843 232.352c8.523 3.989 17.107 5.983 25.691 5.983s17.168-1.994 25.691-5.983c3.752-1.756 5.37-6.22 3.614-9.972-1.756-3.751-6.222-5.371-9.972-3.614-13.01 6.088-25.658 6.088-38.668 0-3.749-1.757-8.217-.137-9.972 3.614-1.754 3.752-.136 8.216 3.616 9.972z"/><path d="m204.035 257.331v4.273c0 4.143 3.357 7.5 7.5 7.5s7.5-3.357 7.5-7.5v-4.273c0-4.143-3.357-7.5-7.5-7.5s-7.5 3.357-7.5 7.5z"/><path d="m238.582 279.518c1.881-3.691.413-8.207-3.277-10.088s-8.207-.413-10.088 3.277c-2.675 5.251-7.79 8.385-13.683 8.385s-11.008-3.134-13.683-8.385c-1.881-3.69-6.396-5.157-10.088-3.277-3.69 1.881-5.158 6.396-3.277 10.088 5.209 10.224 15.573 16.574 27.048 16.574s21.839-6.351 27.048-16.574z"/><path d="m256.006 303.834c-14.429 0-26.167 10.186-26.167 22.706s11.738 22.706 26.167 22.706 26.168-10.186 26.168-22.706-11.739-22.706-26.168-22.706zm0 30.412c-6.053 0-11.167-3.529-11.167-7.706s5.114-7.706 11.167-7.706c6.054 0 11.168 3.529 11.168 7.706s-5.114 7.706-11.168 7.706z"/><path d="m97.805 364.724c-.212-.701-.478-1.67-.788-2.845-.031-.118.016-.247.114-.313l29.735-20.119c3.851-2.605 5.538-7.348 4.199-11.801-1.338-4.452-5.361-7.478-10.011-7.527l-33.81-.36c-.127-.001-.239-.092-.273-.219-.369-1.387-.693-2.55-.957-3.426-1.71-5.686-5.53-10.364-10.76-13.176-5.228-2.81-11.237-3.415-16.924-1.708-5.36 1.612-9.872 5.193-12.688 9.926-3.626-.742-7.401-.485-10.979.793-9.576 3.416-15.245 13.494-13.187 23.442.298 1.44.743 2.834 1.332 4.166-3.927 8.041-4.212 17.277-.728 25.66 5.908 14.21 21.79 22.295 37.209 17.94 5.664 6.998 14.955 9.861 23.631 7.253 11.737-3.527 18.413-15.945 14.885-27.686zm-27.51 10.047c-1.974-3.399-5.643-5.364-9.443-5.364-1.36 0-2.739.252-4.061.78-1.701.679-3.519 1.062-5.4 1.136-6.705.26-12.896-3.702-15.458-9.863-1.96-4.714-1.636-9.935.888-14.323 1.982-3.447 1.979-7.696-.006-11.082-.305-.521-.522-1.093-.648-1.701-.542-2.619 1.012-5.376 3.537-6.277 1.386-.493 2.876-.423 4.196.2 2.593 1.221 5.597 1.274 8.247.148 2.71-1.152 4.808-3.422 5.753-6.223.761-2.248 2.492-3.928 4.751-4.606 3.83-1.15 7.85 1.016 8.999 4.838.229.76.508 1.767.828 2.97 1.764 6.613 7.771 11.282 14.608 11.355l19.633.209-17.994 12.176c-5.374 3.636-7.869 10.296-6.21 16.571.365 1.379.68 2.514.926 3.332.556 1.849.358 3.803-.556 5.503-2.652 4.935-9.747 5.114-12.59.221z"/><path d="m479.727 35.84h-26.277v-21.172c0-8.088-6.581-14.668-14.669-14.668h-23.977c-4.143 0-7.5 3.357-7.5 7.5s3.357 7.5 7.5 7.5h23.646v28.282c0 .02-.003.039-.003.058s.003.039.003.058v49.854c0 .02-.003.039-.003.058s.003.039.003.058v28.28h-193.119v-6.771c0-.032.005-.064.005-.097s-.004-.064-.005-.097v-99.683h134.473c4.143 0 7.5-3.357 7.5-7.5s-3.357-7.5-7.5-7.5h-134.804c-8.089 0-14.669 6.58-14.669 14.668v92.612h-11.715c-18.94 0-36.245 9.599-46.288 25.671-.853 1.363-2.03 2.271-3.312 2.557-14.438 3.195-27.551 11.306-36.924 22.835-9.516 11.705-14.756 26.474-14.756 41.587v52.326c-6.211 5.546-10.13 13.605-10.13 22.565v7.42c0 16.686 13.579 30.26 30.271 30.26h11.022c4.404 21.583 14.593 37.577 30.811 48.51 6.969 4.698 15.007 8.398 24.327 11.157v26.863c0 1.455-1.185 2.64-2.641 2.64h-74.029c-25.69 0-46.591 20.9-46.591 46.59v50.101c0 7.521 6.119 13.64 13.641 13.64h111.37c4.143 0 7.5-3.357 7.5-7.5s-3.357-7.5-7.5-7.5h-57.896v-33.429c0-4.143-3.357-7.5-7.5-7.5s-7.5 3.357-7.5 7.5v33.427h-37.115v-48.74c0-17.419 14.172-31.59 31.591-31.59h71.507c13.363 17.368 34.559 27.62 57.532 27.62 22.975 0 44.172-10.253 57.534-27.62h71.506c17.419 0 31.591 14.171 31.591 31.59v48.74h-37.114v-33.429c0-4.143-3.357-7.5-7.5-7.5s-7.5 3.357-7.5 7.5v33.429h-124.136c-4.143 0-7.5 3.357-7.5 7.5s3.357 7.5 7.5 7.5h177.609c7.521 0 13.641-6.119 13.641-13.64v-50.1c0-25.689-20.9-46.59-46.591-46.59h-74.029c-1.456 0-2.641-1.185-2.641-2.64v-26.863c9.32-2.76 17.358-6.46 24.327-11.157 16.218-10.933 26.407-26.927 30.811-48.51h11.022c16.691 0 30.271-13.574 30.271-30.26v-7.42c0-8.96-3.919-17.019-10.13-22.565v-66.385c0-18.258-6.152-35.438-17.283-49.223h61.387c8.089 0 14.669-6.58 14.669-14.668v-21.17h26.277c6.959 0 12.62-5.661 12.62-12.619v-39.73c0-6.959-5.661-12.62-12.62-12.62zm-342.25 261.66c-8.42 0-15.271-6.846-15.271-15.26v-7.42c0-8.415 6.851-15.261 15.271-15.261h9.657c-.752 9.042-1.164 17.732-1.164 25.631 0 4.26.159 8.359.467 12.31zm160.919 113.83c-10.571 11.355-25.87 17.96-42.39 17.96-16.519 0-31.818-6.605-42.389-17.96 3.1-3.181 5.02-7.518 5.02-12.299v-23.416c10.913 1.869 23.289 2.777 37.369 2.777s26.457-.908 37.37-2.777v23.416c0 4.781 1.92 9.118 5.02 12.299zm25.923-62.758c-14.998 10.11-36.705 14.819-68.312 14.819s-53.313-4.709-68.312-14.819c-17.983-12.122-26.725-32.854-26.725-63.382 0-25.058 4.489-59.858 11.171-86.598 2.095-8.382 9.616-14.235 18.29-14.235h4.744c.622 0 1.203.277 1.596.76 11.276 13.887 28.007 21.851 45.902 21.851h93.348c3.396 0 6.346 2.391 7.016 5.683 2.671 13.124 4.761 26.945 6.138 40.145.002.022.005.045.007.067 1.204 11.555 1.862 22.634 1.862 32.328-.001 30.527-8.743 51.259-26.725 63.381zm65.488-66.332c0 8.414-6.851 15.26-15.271 15.26h-8.96c.308-3.95.467-8.049.467-12.31 0-7.839-.41-16.53-1.17-25.631h9.664c8.42 0 15.271 6.846 15.271 15.261v7.42zm-10.13-96.37v59.135c-1.672-.287-3.388-.445-5.141-.445h-11.194c-1.396-11.624-3.292-23.526-5.607-34.9-2.087-10.251-11.219-17.691-21.715-17.691h-93.348c-13.356 0-25.843-5.943-34.258-16.306-3.254-4.007-8.079-6.305-13.24-6.305h-4.744c-15.57 0-29.076 10.526-32.843 25.599-3.818 15.282-6.896 32.66-8.926 49.604h-11.185c-1.753 0-3.469.158-5.141.445v-45.076c0-23.722 16.789-44.656 39.926-49.777 5.241-1.163 9.78-4.446 12.785-9.249 7.286-11.661 19.835-18.623 33.569-18.623h11.73c.162 7.948 6.667 14.367 14.654 14.367h111.311c14.87 12.141 23.367 29.934 23.367 49.222zm97.67-100.06h-23.897v-34.97h23.897z"/><path d="m273.673 31.745c-6.394 0-11.596 5.202-11.596 11.597v49.964c0 6.395 5.202 11.597 11.596 11.597h136.435c6.394 0 11.596-5.202 11.596-11.597v-49.964c0-6.395-5.202-11.597-11.596-11.597zm3.404 15h19.98v43.157h-19.98zm129.626 43.157h-94.646v-43.157h94.646z"/></g></svg>