<svg id="Capa_1" enable-background="new 0 0 512 512" height="512" viewBox="0 0 512 512" width="512" xmlns="http://www.w3.org/2000/svg"><g><g><path d="m369.817 83.627c-33.785-22.351-73.142-34.165-113.815-34.165-.003 0 .001 0-.003 0-55.157 0-107.025 21.488-146.037 60.501-39.015 39.016-60.501 90.88-60.5 146.041.001 40.674 11.815 80.029 34.165 113.813 3.049 4.608 7.956 7.569 13.463 8.124.626.063 1.25.094 1.873.094 4.867 0 9.528-1.915 13.013-5.399l41.675-41.675c2.925-2.925 2.925-7.668 0-10.593-2.926-2.925-7.668-2.925-10.594 0l-41.674 41.675c-1.008 1.008-2.183 1.056-2.789.992-.596-.06-1.711-.333-2.472-1.484-20.723-31.325-31.677-67.823-31.678-105.547-.001-51.159 19.927-99.262 56.112-135.448 36.186-36.186 84.288-56.113 135.447-56.113 37.725 0 74.223 10.954 105.549 31.678 1.152.762 1.425 1.876 1.484 2.472.061.61.015 1.782-.992 2.788l-121.405 121.405c-2.925 2.925-2.925 7.668 0 10.593 2.925 2.924 7.667 2.926 10.594 0l121.405-121.404c3.928-3.929 5.862-9.354 5.304-14.884-.556-5.509-3.517-10.416-8.125-13.464z"/><path d="m134.059 414.91c.555 5.508 3.516 10.415 8.125 13.463 33.785 22.351 73.142 34.165 113.815 34.165h.003c55.157 0 107.025-21.488 146.037-60.501 39.015-39.016 60.501-90.88 60.5-146.041 0-17.215-2.124-34.328-6.312-50.864-1.015-4.011-5.094-6.436-9.101-5.422-4.011 1.016-6.437 5.09-5.422 9.101 3.885 15.334 5.854 31.209 5.854 47.185.001 51.159-19.927 99.262-56.112 135.448-36.186 36.186-84.288 56.114-135.447 56.113-37.725 0-74.223-10.954-105.549-31.678-1.152-.762-1.425-1.876-1.484-2.472-.061-.61-.015-1.782.992-2.789l65.986-65.986c2.925-2.925 2.925-7.668 0-10.593-2.926-2.925-7.668-2.925-10.594 0l-65.986 65.986c-3.929 3.929-5.863 9.354-5.305 14.885z"/><path d="m428.374 142.183c-3.049-4.608-7.956-7.569-13.463-8.124-5.521-.554-10.955 1.376-14.885 5.305l-88.592 88.593c-2.925 2.925-2.925 7.668 0 10.593 1.463 1.463 3.38 2.194 5.297 2.194s3.834-.731 5.297-2.194l88.591-88.592c1.007-1.008 2.182-1.055 2.789-.992.596.06 1.711.333 2.472 1.484 5.576 8.43 10.517 17.364 14.683 26.553 1.707 3.767 6.146 5.437 9.915 3.729 3.768-1.708 5.438-6.147 3.73-9.915-4.494-9.911-9.822-19.545-15.834-28.634z"/><path d="m437.02 74.981c-48.353-48.352-112.64-74.981-181.02-74.981s-132.667 26.629-181.02 74.981c-48.352 48.352-74.98 112.639-74.98 181.019 0 66.587 25.436 129.659 71.621 177.597 2.871 2.979 7.612 3.069 10.592.197 2.979-2.87 3.067-7.612.197-10.591-43.482-45.132-67.429-104.513-67.429-167.203 0-64.378 25.071-124.904 70.593-170.426 45.523-45.523 106.048-70.593 170.426-70.593s124.903 25.07 170.426 70.593c45.522 45.522 70.593 106.048 70.593 170.426s-25.071 124.904-70.593 170.426c-45.523 45.523-106.048 70.593-170.426 70.593-54.315 0-105.589-17.634-148.28-50.997-3.259-2.546-7.967-1.97-10.514 1.29-2.548 3.26-1.97 7.967 1.289 10.515 45.35 35.44 99.815 54.173 157.505 54.173 68.38 0 132.667-26.629 181.02-74.981 48.352-48.352 74.98-112.639 74.98-181.019s-26.628-132.667-74.98-181.019z"/><path d="m93.62 293.97c0 8.376 6.814 15.19 15.19 15.19h294.381c8.376 0 15.19-6.814 15.19-15.19v-30.336c0-8.376-6.814-15.19-15.19-15.19h-294.382c-8.376 0-15.19 6.814-15.19 15.19v30.336zm254.054-30.544h55.517c.115 0 .209.094.209.209v30.336c0 .116-.094.209-.209.209h-55.517zm-199.068 0h184.087v30.754h-184.087zm-40.005.208c0-.115.094-.209.209-.209h24.815v30.754h-24.815c-.115 0-.209-.094-.209-.209z"/><path d="m93.62 220.788v7.294c0 4.137 3.353 7.491 7.491 7.491s7.491-3.354 7.491-7.491v-7.294c0-5.052 4.11-9.163 9.162-9.163h96.832c18.61 0 33.75-15.141 33.75-33.751s-15.14-33.751-33.75-33.751h-60.616c-4.137 0-7.49 3.354-7.49 7.491s3.353 7.49 7.49 7.49h60.615c10.349 0 18.769 8.42 18.769 18.77s-8.42 18.77-18.769 18.77h-96.832c-13.312 0-24.143 10.831-24.143 24.144z"/><path d="m160.292 185.449c4.137 0 7.491-3.354 7.491-7.491s-3.353-7.49-7.491-7.49h-28.089c-4.137 0-7.49 3.354-7.49 7.49s3.353 7.491 7.49 7.491z"/></g></g></svg>