<svg id="Capa_1" enable-background="new 0 0 512.045 512.045" height="512" viewBox="0 0 512.045 512.045" width="512" xmlns="http://www.w3.org/2000/svg"><g><path d="m390.4 299.117c14.183-11.415 28.849-23.218 38.705-39.657 14.738-24.578 23.669-57.313 23.893-87.562.338-45.798-17.701-72.658-32.893-87.126-29.129-27.74-75.972-44.701-112.37-27.07-21.239 10.288-37.972 31.119-45.91 57.151-8.483 27.82-6.104 58.631 4.934 85.869 1.556 3.839 5.931 5.691 9.768 4.135 3.839-1.556 5.69-5.929 4.135-9.768-6.275-15.489-9.055-30.7-9.075-44.94 36.178 1.174 67.602 21.371 76.144 49.783 7.842 26.085-1.554 54.115-15.249 63.931-4.427 3.172-8.468 4.164-12.748 5.214-6.025 1.478-12.855 3.153-18.275 10.787-7.842 11.047-4.614 23.675-2.021 33.821 2.329 9.111 3.53 14.913.573 18.641-4.004 5.049-14.494 6.467-21.584 2.918-8.417-4.213-14.132-16.961-9.124-31.002 1.391-3.901-.644-8.192-4.545-9.584-3.902-1.391-8.192.644-9.583 4.545-7.104 19.919.006 41.18 16.539 49.455 12.927 6.47 31.227 4.112 40.049-7.01 7.794-9.825 4.826-21.435 2.208-31.679-2.552-9.98-3.844-16.403-.281-21.422 2.103-2.962 4.332-3.606 9.617-4.903 4.959-1.217 11.132-2.73 17.912-7.59 10.673-7.648 18.522-20.75 22.101-36.891 3.201-14.438 2.754-30.311-1.226-43.55-5.357-17.819-18.067-33.679-35.788-44.657-15.711-9.733-34.134-15.131-53.697-15.799 4.181-29.944 20.751-53.825 41.664-63.956 22.292-10.801 61.683-7.759 95.486 24.434 23.637 22.51 28.403 53.836 28.238 76.151-.205 27.688-8.338 57.579-21.758 79.96-8.48 14.144-21.481 24.606-35.245 35.684-18.261 14.697-37.145 29.895-45.373 54.608-4.311 12.945-3.358 28.674-2.351 45.326 1.908 31.517 1.701 52.796-17.789 61.099-14.608 6.224-33.969 3.507-45.036-6.322-14.782-13.127-17.292-38.005-5.838-57.869 2.069-3.588.838-8.174-2.75-10.243-3.588-2.068-8.175-.838-10.244 2.751-15.18 26.326-11.449 58.531 8.872 76.577 15.526 13.788 41.357 17.223 60.875 8.907 13.98-5.956 22.448-16.801 25.887-33.154 2.778-13.21 1.872-28.177.996-42.652-.918-15.163-1.785-29.485 1.609-39.681 6.838-20.531 23.212-33.709 40.548-47.66zm-269.571-133.852c4.142 0 7.5-3.357 7.5-7.5 0-28.121 22.878-51 51-51 4.142 0 7.5-3.357 7.5-7.5s-3.358-7.5-7.5-7.5c-36.393 0-66 29.607-66 66 0 4.143 3.358 7.5 7.5 7.5zm98.413 18.963c4.779 0 8.455-4.668 7.278-9.336-5.093-20.194-5.349-41.116-.74-60.505 15.244-64.128 76.599-89.221 79.204-90.258 47.457-18.898 90.057-3.501 101.984 1.67 17.08 7.402 32.462 18.464 45.72 32.876 2.804 3.049 7.549 3.246 10.597.441s3.247-7.549.442-10.598c-14.687-15.966-31.777-28.24-50.794-36.482-13.269-5.752-60.665-22.882-113.498-1.843-2.9 1.154-71.223 29.099-88.249 100.725-5.164 21.727-4.892 45.117.789 67.642.858 3.401 3.912 5.668 7.267 5.668zm-39.913-62.463c-19.851 0-36 16.149-36 36 0 4.143 3.358 7.5 7.5 7.5s7.5-3.357 7.5-7.5c0-11.579 9.42-21 21-21 4.142 0 7.5-3.357 7.5-7.5s-3.358-7.5-7.5-7.5zm-40.203 170.084c.899 4.945 5.036 8.489 10.061 8.618.095.002.188.003.282.003 4.903 0 9.078-3.293 10.208-8.095l9.647-41.002 5.138 10.726c1.736 3.622 5.453 5.962 9.469 5.962h75.377c4.142 0 7.5-3.357 7.5-7.5s-3.358-7.5-7.5-7.5h-72.543l-9.427-19.68c-1.951-4.071-6.112-6.392-10.6-5.903-4.489.486-8.057 3.64-9.091 8.034l-7.625 32.408-14.132-77.74c-.901-4.953-5.046-8.496-10.079-8.617-5.013-.105-9.342 3.219-10.48 8.122l-14.23 61.3-6.672-18.007c-1.468-3.961-5.144-6.646-9.364-6.84-4.229-.193-8.126 2.144-9.951 5.953l-10.046 20.97h-57.542c-4.142 0-7.5 3.357-7.5 7.5s3.358 7.5 7.5 7.5h60.376c4.018 0 7.735-2.341 9.47-5.964l6.682-13.948 8.193 22.111c1.624 4.383 5.843 7.127 10.511 6.831 4.664-.296 8.506-3.554 9.562-8.104l12.703-54.718zm371.704-139.236c-2.837-25.305-11.8-51.768-25.238-74.513-2.106-3.564-6.704-4.747-10.272-2.642-3.566 2.106-4.75 6.706-2.642 10.272 12.384 20.961 20.64 45.307 23.246 68.554 4.676 41.707-5.713 84.784-29.255 121.295-11.254 17.455-25.211 33.31-41.481 47.126-2.749 2.334-5.624 4.605-8.668 7.011-16.496 13.031-35.192 27.802-32.957 54.187.443 5.229 1.467 10.242 2.458 15.091.794 3.887 1.545 7.558 1.989 11.231 2.764 22.829-6.888 40.379-15.472 51.082-15.531 19.367-40.854 32.946-66.085 35.438-1.95.192-48.07 4.335-75.235-28.791-12.604-15.369-18.933-36.023-17.821-58.158 1.15-22.916 10.297-45.948 25.755-64.854 2.622-3.206 2.148-7.932-1.059-10.554-3.207-2.62-7.932-2.148-10.554 1.06-17.471 21.368-27.814 47.505-29.125 73.597-1.299 25.865 6.231 50.165 21.204 68.422 25.167 30.688 67.792 36.234 88.308 34.207 29.104-2.875 58.346-18.577 76.312-40.98 14.892-18.569 21.345-40.102 18.662-62.27-.518-4.277-1.365-8.423-2.185-12.433-.946-4.628-1.839-9-2.208-13.353-1.554-18.349 12.466-29.425 27.309-41.151 3.013-2.38 6.128-4.841 9.079-7.347 17.394-14.77 32.326-31.737 44.379-50.431 25.41-39.408 36.616-85.964 31.556-131.096zm-331.501 192.652c-11.58 0-21-9.421-21-21 0-4.143-3.358-7.5-7.5-7.5s-7.5 3.357-7.5 7.5c0 19.851 16.149 36 36 36 4.142 0 7.5-3.357 7.5-7.5s-3.358-7.5-7.5-7.5zm0 30c-28.122 0-51-22.879-51-51 0-4.143-3.358-7.5-7.5-7.5s-7.5 3.357-7.5 7.5c0 36.393 29.607 66 66 66 4.142 0 7.5-3.357 7.5-7.5s-3.358-7.5-7.5-7.5z"/></g></svg>