<svg id="Layer_1" enable-background="new 0 0 512 512" viewBox="0 0 512 512" xmlns="http://www.w3.org/2000/svg"><path d="m319.18 367.5c-12.71-8.59-28.41-11.29-43.59-13.89-28.05-4.81-50.32-8.66-51.3-45.09 5.05-5.09 10.09-11.15 15.14-18.19l4.9 12.61c.9 2.31 3.12 3.83 5.59 3.83s4.7-1.52 5.59-3.83l7.11-18.27 18.27-7.11c2.31-.9 3.83-3.12 3.83-5.59s-1.52-4.69-3.83-5.59l-18.27-7.11-1.87-4.8c13.1-23.21 14.57-49.67 4.15-75.1 6.59-14.25 4.19-30.02-6.79-43.71-14.35-17.88-43.89-31.58-73.57-24.33-13.89-10.01-32.71-11.27-49.92-3.14-19.89 9.4-32.12 28.31-31.93 49.36l.17 18.73c-.13.29-.27.59-.4.88-11.61 26.57-10.3 54.43 3.7 78.48 12.01 23.21 23.95 40.76 35.99 52.86-.97 36.45-23.25 40.3-51.3 45.11-15.18 2.6-30.88 5.3-43.59 13.89-14.76 9.98-22.63 26.13-24.07 49.38-1.03 16.6-.68 33.4-.35 49.65.17 8.03.34 16.34.34 24.47 0 3.31 2.69 6 6 6h308.11c3.31 0 6-2.69 6-6 0-8.13.17-16.44.34-24.47.33-16.25.68-33.05-.35-49.65-1.46-23.25-9.34-39.4-24.1-49.38zm-197.14-107.65c8.68-32.67 32.48-51.63 61.03-62.27 24.66 2.98 48.88 28.45 58.18 51.35l-4.02 10.34-18.27 7.11c-2.31.9-3.83 3.12-3.83 5.59s1.52 4.7 3.83 5.59l11.62 4.52c-16.77 23.78-33.22 35.45-48.89 34.65-19.12-.97-39.15-20.1-59.65-56.88zm133.77 14.59c-1.57.61-2.81 1.85-3.42 3.42l-2.47 6.36-2.47-6.36c-.61-1.57-1.85-2.81-3.42-3.42l-6.36-2.47 6.36-2.47c1.57-.61 2.81-1.85 3.42-3.42l2.47-6.36 2.47 6.36c.61 1.57 1.85 2.81 3.42 3.42l6.36 2.47zm-1.13-34.9c-1.12-1.46-2.86-2.36-4.76-2.36-.29 0-.58.02-.86.07-9.44-18.44-26.2-36.64-45.4-45.81 16.77-3.92 34.25-5.67 50.68-6.15 5.49 14.05 8.84 33.32.34 54.25zm-114.94-120.5c9.37-4.43 19.26-5.28 27.91-2.75-20.84 7.81-39.65 22.07-52.96 39.93.38-18.83 13.08-31.52 25.05-37.18zm-26.29 62.93c12.49-28.57 40.38-51.42 71.06-58.21.13-.03.26-.06.39-.1 25.34-7.42 51.81 4.52 63.84 19.52 4.63 5.77 11.16 17.04 5.72 30.1-33.37.95-61.89 6.64-84.8 16.95-27.21 12.25-45.81 30.73-55.46 55.07-9.79-19.65-10.1-41.94-.75-63.33zm176.11 303.03h-212.69v-46.74c0-17.2 13.99-31.19 31.19-31.19h150.31c17.2 0 31.19 13.99 31.19 31.19zm42.05-18.72c-.13 6.14-.26 12.43-.31 18.72h-29.74v-46.74c0-23.81-19.37-43.19-43.19-43.19h-150.31c-23.81 0-43.19 19.37-43.19 43.19v46.74h-29.74c-.06-6.28-.19-12.58-.31-18.72-.33-16-.67-32.55.33-48.66 2.65-42.74 28.17-47.12 57.72-52.19 26.15-4.49 55.47-9.52 60.55-47.23 9.11 6.54 18.3 10.03 27.65 10.5.74.04 1.49.06 2.23.06 10.08 0 19.95-3.49 29.72-10.52 5.09 37.67 34.4 42.71 60.54 47.19 29.55 5.07 55.07 9.45 57.72 52.19 1 16.11.66 32.66.33 48.66zm-174.14-203.46c-8.88 0-16.68-5.98-18.97-14.55-.86-3.2 1.05-6.49 4.25-7.35s6.49 1.05 7.35 4.25c.89 3.33 3.92 5.65 7.38 5.65 3.45 0 6.49-2.32 7.38-5.65.85-3.2 4.14-5.1 7.35-4.25 3.2.85 5.1 4.14 4.25 7.35-2.31 8.57-10.11 14.55-18.99 14.55zm32.52-14.55c-.86-3.2 1.05-6.49 4.25-7.35s6.49 1.05 7.35 4.25c.89 3.33 3.92 5.65 7.38 5.65s6.49-2.32 7.38-5.65c.86-3.2 4.15-5.1 7.35-4.25 3.2.86 5.1 4.14 4.25 7.35-2.29 8.57-10.09 14.55-18.97 14.55s-16.7-5.98-18.99-14.55zm-7.04 51.85c-9.54 0-17.23-4.27-22.99-8.34-2.71-1.91-3.35-5.65-1.44-8.36s5.65-3.35 8.36-1.44c9.73 6.87 19.01 9.49 32.69-.02 2.72-1.89 6.46-1.22 8.35 1.5s1.22 6.46-1.5 8.35c-8.76 6.09-16.6 8.31-23.47 8.31zm-102.46-30.44c-2.47 0-4.7 1.52-5.59 3.83l-7.11 18.27-18.27 7.11c-2.31.9-3.83 3.12-3.83 5.59s1.52 4.7 3.83 5.59l18.27 7.11 7.11 18.27c.9 2.31 3.12 3.83 5.59 3.83s4.7-1.52 5.59-3.83l7.11-18.27 18.27-7.11c2.31-.9 3.83-3.12 3.83-5.59s-1.52-4.7-3.83-5.59l-18.27-7.11-7.11-18.27c-.9-2.32-3.12-3.83-5.59-3.83zm5.89 32.32 6.36 2.47-6.36 2.47c-1.57.61-2.81 1.85-3.42 3.42l-2.47 6.36-2.47-6.36c-.61-1.57-1.85-2.81-3.42-3.42l-6.36-2.47 6.36-2.47c1.57-.61 2.81-1.85 3.42-3.42l2.47-6.36 2.47 6.36c.61 1.57 1.85 2.81 3.42 3.42zm261.07-96.67-18.27-7.11-7.11-18.27c-.9-2.31-3.12-3.83-5.59-3.83s-4.7 1.52-5.59 3.83l-7.11 18.27-18.27 7.11c-2.31.9-3.83 3.12-3.83 5.59s1.52 4.7 3.83 5.59l18.27 7.11 7.11 18.27c.9 2.31 3.12 3.83 5.59 3.83s4.7-1.52 5.59-3.83l7.11-18.27 18.27-7.11c2.31-.9 3.83-3.12 3.83-5.59s-1.52-4.69-3.83-5.59zm-25.09 8.07c-1.57.61-2.81 1.85-3.42 3.42l-2.47 6.36-2.47-6.36c-.61-1.57-1.85-2.81-3.42-3.42l-6.36-2.47 6.36-2.47c1.57-.61 2.81-1.85 3.42-3.42l2.47-6.36 2.47 6.36c.61 1.57 1.85 2.81 3.42 3.42l6.36 2.47zm-278.15 16.65c.9 2.31 3.12 3.83 5.59 3.83s4.7-1.52 5.59-3.83l7.11-18.27 18.27-7.11c2.31-.9 3.83-3.12 3.83-5.59s-1.52-4.7-3.83-5.59l-18.27-7.11-7.11-18.27c-.9-2.31-3.12-3.83-5.59-3.83s-4.7 1.52-5.59 3.83l-7.11 18.27-18.27 7.11c-2.31.9-3.83 3.12-3.83 5.59s1.52 4.7 3.83 5.59l18.27 7.11zm-.3-33.45c1.57-.61 2.81-1.85 3.42-3.42l2.47-6.36 2.47 6.36c.61 1.57 1.85 2.81 3.42 3.42l6.36 2.47-6.36 2.47c-1.57.61-2.81 1.85-3.42 3.42l-2.47 6.36-2.47-6.36c-.61-1.57-1.85-2.81-3.42-3.42l-6.36-2.47zm366.84-133.44c-21 0-38.09 17.09-38.09 38.09s17.09 38.09 38.09 38.09 38.09-17.09 38.09-38.09-17.09-38.09-38.09-38.09zm0 64.18c-14.39 0-26.09-11.7-26.09-26.09s11.7-26.09 26.09-26.09 26.09 11.7 26.09 26.09-11.7 26.09-26.09 26.09zm-6-78.33v-28.01c0-3.31 2.69-6 6-6s6 2.69 6 6v28.01c0 3.31-2.69 6-6 6s-6-2.68-6-6zm92.25 52.24c0 3.31-2.69 6-6 6h-28.01c-3.31 0-6-2.69-6-6s2.69-6 6-6h28.01c3.31 0 6 2.69 6 6zm-80.25 52.23v28.01c0 3.31-2.69 6-6 6s-6-2.69-6-6v-28.01c0-3.31 2.69-6 6-6s6 2.69 6 6zm-92.25-52.23c0-3.31 2.69-6 6-6h28.01c3.31 0 6 2.69 6 6s-2.69 6-6 6h-28.01c-3.31 0-6-2.69-6-6zm118.95-32.7c-2.34-2.34-2.34-6.14 0-8.49l9.74-9.74c2.34-2.34 6.14-2.34 8.49 0 2.34 2.34 2.34 6.14 0 8.49l-9.74 9.74c-1.17 1.17-2.71 1.76-4.24 1.76s-3.08-.58-4.25-1.76zm18.22 75.13c2.34 2.34 2.34 6.14 0 8.49-1.17 1.17-2.71 1.76-4.24 1.76s-3.07-.59-4.24-1.76l-9.74-9.74c-2.34-2.34-2.34-6.14 0-8.49 2.34-2.34 6.14-2.34 8.49 0zm-83.61-9.74c2.34 2.34 2.34 6.14 0 8.49l-9.74 9.74c-1.17 1.17-2.71 1.76-4.24 1.76-1.54 0-3.07-.59-4.24-1.76-2.34-2.34-2.34-6.14 0-8.49l9.74-9.74c2.34-2.34 6.13-2.34 8.48 0zm-18.23-75.12c-2.34-2.34-2.34-6.14 0-8.49 2.34-2.34 6.14-2.34 8.49 0l9.74 9.74c2.34 2.34 2.34 6.14 0 8.49-1.17 1.17-2.71 1.76-4.24 1.76s-3.07-.59-4.24-1.76z"/></svg>