<svg id="Layer_2" enable-background="new 0 0 100 100" viewBox="0 0 100 100" xmlns="http://www.w3.org/2000/svg"><path d="m80.2 31.5h-1.7c.9 0 1.7-.8 1.7-1.7v-5c.9 0 1.7-.8 1.7-1.7s-.8-1.7-1.7-1.7v-6.7c0-2.8-2.3-5-5-5h-52.1c-2.8 0-5 2.3-5 5v6.7c-.9 0-1.7.8-1.7 1.7s.8 1.7 1.7 1.7v5c0 .9.8 1.7 1.7 1.7-2.8 0-5 2.3-5 5v5 37 6.7c0 1.6.8 3.1 2 4 .7.5 1.8.4 2.4-.3s.4-1.8-.3-2.4c-.4-.3-.7-.8-.7-1.3v-5h63.9v5c0 .9-.8 1.7-1.7 1.7h-49.4c-.9 0-1.7.8-1.7 1.7s.8 1.7 1.7 1.7h49.2c2.8 0 5-2.3 5-5v-6.7-37-5c.1-2.8-2.2-5.1-5-5.1zm-58.8-16.8c0-.9.8-1.7 1.7-1.7h52.1c.9 0 1.7.8 1.7 1.7v6.7h-55.5zm55.5 10.1v3.4h-55.5v-3.4zm-57.2 10.1h60.5c.9 0 1.7.8 1.7 1.7v3.4h-63.8v-3.4c0-1 .7-1.7 1.6-1.7zm-1.6 42v-3.4h26.1c.9 0 1.7-.8 1.7-1.7s-.7-1.7-1.7-1.7h-26.1v-26.8h63.9v26.9h-24.7c-.9 0-1.7.8-1.7 1.7s.8 1.7 1.7 1.7h24.7v3.4h-63.9zm7.9 11.8c0 .9-.7 1.7-1.7 1.7-.9 0-1.7-.8-1.7-1.7s.8-1.7 1.7-1.7 1.7.7 1.7 1.7zm2.2-42.1h-5c-.9 0-1.7.8-1.7 1.7v6.7 6.7c0 .9.8 1.7 1.7 1.7h5c2.8 0 5-2.3 5-5 0-1.3-.5-2.5-1.3-3.4.8-.9 1.3-2.1 1.3-3.4 0-2.7-2.3-5-5-5zm-3.4 3.4h3.4c.9 0 1.7.8 1.7 1.7s-.8 1.7-1.7 1.7h-3.4zm3.4 10.1h-3.4v-3.4h3.4c.9 0 1.7.8 1.7 1.7s-.8 1.7-1.7 1.7zm11.7-8.4v6.7c0 .9.8 1.7 1.7 1.7h1.7c.9 0 1.7-.8 1.7-1.7s.8-1.7 1.7-1.7 1.7.8 1.7 1.7c0 2.8-2.3 5-5 5h-1.7c-2.8 0-5-2.3-5-5v-6.7c0-2.8 2.3-5 5-5h1.7c2.8 0 5 2.3 5 5 0 .9-.8 1.7-1.7 1.7s-1.7-.8-1.7-1.7-.8-1.7-1.7-1.7h-1.7c-.9 0-1.7.8-1.7 1.7zm20.2 6.7v3.4c0 .9.8 1.7 1.7 1.7s1.7-.8 1.7-1.7v-9.2c0-3.2-2.6-5.9-5.9-5.9-3.2 0-5.9 2.6-5.9 5.9v9.2c0 .9.8 1.7 1.7 1.7s1.7-.8 1.7-1.7v-3.4zm-2.5-8.4c1.4 0 2.5 1.1 2.5 2.5v2.5h-5v-2.5c-.1-1.4 1.1-2.5 2.5-2.5zm10.9 13.4c.9 0 1.7-.8 1.7-1.7v-3.4h5v3.4c0 .9.8 1.7 1.7 1.7s1.7-.8 1.7-1.7v-9.2c0-3.2-2.6-5.9-5.9-5.9-3.2 0-5.9 2.6-5.9 5.9v9.2c0 1 .8 1.7 1.7 1.7zm4.2-13.4c1.4 0 2.5 1.1 2.5 2.5v2.5h-5v-2.5c0-1.4 1.1-2.5 2.5-2.5zm-20.3 21.8c0 .9-.8 1.7-1.7 1.7s-1.7-.8-1.7-1.7.8-1.7 1.7-1.7c1 .1 1.7.8 1.7 1.7z"/></svg>