<svg id="Layer_1" enable-background="new 0 0 91 91" height="512" viewBox="0 0 91 91" width="512" xmlns="http://www.w3.org/2000/svg"><circle cx="34.3" cy="28" r="1.3"/><g><path d="m59.1 26.5h2.5v-3.6h3.7v-2.5h-3.7v-3.6h-2.5v3.6h-3.6v2.5h3.6z"/><path d="m59.1 9.6h2.5v-2.6h2.6v-2.5h-2.6v-2.6h-2.5v2.6h-2.5v2.5h2.5z"/><path d="m48.9 14.4h2.6v-2.9h2.8v-2.5h-2.8v-2.8h-2.6v2.8h-2.8v2.5h2.8z"/><path d="m54.4 87.3v-43c0-2.9-1.2-5.8-3.4-7.8-.2-.2-.5-.3-.8-.3v-9.4c0-5.3-4.3-9.7-9.7-9.7h-2.2c-5.3 0-9.7 4.3-9.7 9.7v9.4c-.3 0-.6.1-.8.3-2.1 2-3.4 4.9-3.4 7.8v43c0 .7.6 1.3 1.3 1.3s1.3-.6 1.3-1.3v-43c0-1.8.6-3.5 1.6-4.9v9.2c0 5.3 4.3 9.7 9.7 9.7h2.2c5.3 0 9.7-4.3 9.7-9.7v-9.2c1.1 1.4 1.6 3.1 1.6 4.9v43c0 .7.6 1.3 1.3 1.3s1.3-.6 1.3-1.3zm-6.6-38.7c0 3.9-3.2 7.2-7.2 7.2h-2.2c-4 0-7.2-3.2-7.2-7.2v-21.7c0-4 3.2-7.2 7.2-7.2h2.2c3.9 0 7.2 3.2 7.2 7.2z"/><path d="m35.6 47.4v-15.3h-2.6v15.3c0 2.1 1 4.1 2.8 5.3 1.1.7 2.3 1.1 3.6 1.1v-2.5c-.8 0-1.5-.2-2.1-.7-1.1-.8-1.7-2-1.7-3.2z"/><path d="m40.8 73.5c2.3 0 4.5-.7 6.4-2.1.6-.4.7-1.2.3-1.8s-1.2-.7-1.8-.3c-1.4 1.1-3.1 1.6-4.9 1.6h-2.5c-1.8 0-3.5-.6-4.9-1.6-.6-.4-1.3-.3-1.8.3-.4.6-.3 1.3.3 1.8 1.9 1.4 4.1 2.1 6.4 2.1z"/></g></svg>