<svg id="icons" enable-background="new 0 0 64 64" height="512" viewBox="0 0 64 64" width="512" xmlns="http://www.w3.org/2000/svg"><g><path d="m32.007 13.997c.553 0 1-.448 1-1v-11.996c0-.552-.447-1-1-1s-1 .448-1 1v11.996c0 .552.447 1 1 1z"/><path d="m44.001 53.002c0-.553-.447-1-1-1h-4.002c-.553 0-1 .447-1 1s.447 1 1 1h4.002c.553 0 1-.447 1-1z"/><path d="m22.018 54.004c-.553 0-1 .447-1 1s.447 1 1 1h2c.553 0 1-.447 1-1s-.447-1-1-1z"/><path d="m16.107 60.411c.521 1.647.877 2.723.938 2.906.14.419.529.684.948.684.104 0 .211-.017.316-.052.523-.174.807-.74.632-1.265-.012-.035-.217-.654-.546-1.682h.622c.553 0 1-.447 1-1s-.447-1-1-1h-1.254c-.801-2.567-1.895-6.199-2.917-10.002l3.172.001c.552 0 1-.447 1-1 0-.552-.447-1-1-1l-3.697-.001c-.475-1.848-.917-3.694-1.286-5.444 2.007 2.116 4.835 3.444 7.974 3.444.002 0 .003-.001.005-.001h9.992v4.004h-2.989c-.553 0-1 .447-1 1s.447 1 1 1h2.989v9.996h-1.988c-.553 0-1 .447-1 1s.447 1 1 1h1.988v.001c0 .553.447 1 1 1s1-.447 1-1v-.986c0-.005.003-.01.003-.015s-.003-.01-.003-.015v-1.986h2.995c.553 0 1-.447 1-1s-.447-1-1-1h-2.995v-7.98c0-.005.003-.01.003-.015s-.003-.01-.003-.015v-.987h.993c.553 0 1-.447 1-1s-.447-1-1-1h-.993v-2.002h9.995c.002 0 .003.001.005.001 3.128 0 5.949-1.319 7.953-3.422-.301 1.427-.651 2.919-1.027 4.423h-.931c-.553 0-1 .447-1 1s.447 1 1 1h.417c-.855 3.249-1.784 6.43-2.566 9h-2.854c-.553 0-1 .447-1 1s.447 1 1 1h2.238c-.688 2.207-1.161 3.63-1.179 3.684-.175.524.108 1.091.632 1.265.105.035.212.052.316.052.419 0 .809-.265.948-.684.288-.864 7.052-21.248 7.052-29.317 0-4.483-2.017-10.246-3.968-15.819-1.56-4.456-3.032-8.664-3.032-11.184 0-1.924.225-3.865.666-5.77.125-.538-.21-1.075-.747-1.2-.537-.126-1.076.209-1.2.748-.478 2.053-.719 4.146-.719 6.222 0 2.86 1.527 7.224 3.145 11.845.36 1.029.729 2.089 1.09 3.154h-34.48c.361-1.065.729-2.125 1.09-3.154 1.617-4.621 3.145-8.984 3.145-11.845 0-2.075-.242-4.169-.72-6.224-.124-.539-.664-.871-1.2-.748-.537.125-.872.662-.747 1.2.442 1.908.667 3.85.667 5.772 0 2.52-1.473 6.729-3.032 11.184-1.952 5.572-3.969 11.335-3.969 15.818 0 6.323 4.152 20.204 6.088 26.333.01.026.014.054.025.078zm33.793-36.415c1.164 3.621 2.105 7.203 2.105 10.004 0 4.962-4.035 8.998-8.996 9-.002 0-.002-.001-.004-.001h-10.996-.003-10.997c-.001 0-.003.001-.004.001-4.961-.002-8.996-4.038-8.996-9 0-.021-.011-.037-.012-.057.013-2.793.945-6.35 2.103-9.947z"/></g></svg>