<?xml version="1.0" encoding="UTF-8"?>
<svg xmlns="http://www.w3.org/2000/svg" id="Layer_1" data-name="Layer 1" viewBox="0 0 64 64" width="512" height="512"><path d="M3,64a.951.951,0,0,1-.14-.01,1,1,0,0,1-.851-1.129,7.942,7.942,0,0,1,2.9-4.936C6.076,56.8,7,55.916,7,54a7.446,7.446,0,0,0-.83-3.53A11.618,11.618,0,0,1,5,45a7.734,7.734,0,0,1,2.325-5.441C8.261,38.45,9,37.575,9,36a7.484,7.484,0,0,0-.866-3.807A10.473,10.473,0,0,1,7,27C7,10.854,17.042.005,31.989,0H32C46.953,0,57,10.851,57,27a10.473,10.473,0,0,1-1.134,5.193A7.484,7.484,0,0,0,55,36c0,1.575.739,2.45,1.675,3.559A7.734,7.734,0,0,1,59,45a1,1,0,0,1-2,0,5.839,5.839,0,0,0-1.854-4.151A7.047,7.047,0,0,1,53,36a9.365,9.365,0,0,1,1.057-4.66A8.543,8.543,0,0,0,55,27C55,12.047,45.757,2,32,2S9,12.047,9,27a8.543,8.543,0,0,0,.943,4.34A9.365,9.365,0,0,1,11,36a7.047,7.047,0,0,1-2.146,4.849A5.839,5.839,0,0,0,7,45a9.645,9.645,0,0,0,1,4.654A9.346,9.346,0,0,1,9,54c0,2.768-1.439,4.149-2.708,5.368a6.045,6.045,0,0,0-2.3,3.771A1,1,0,0,1,3,64Z"/><path d="M9.011,64a.932.932,0,0,1-.14-.01,1,1,0,0,1-.852-1.129,7.945,7.945,0,0,1,2.9-4.936C12.085,56.8,13.009,55.916,13.009,54a7.458,7.458,0,0,0-.829-3.53A11.6,11.6,0,0,1,11.009,45a6.917,6.917,0,0,1,.891-3.492,1,1,0,0,1,1.742.984A4.89,4.89,0,0,0,13.009,45a9.645,9.645,0,0,0,1,4.654,9.346,9.346,0,0,1,1,4.346c0,2.768-1.439,4.149-2.708,5.368A6.044,6.044,0,0,0,10,63.139,1,1,0,0,1,9.011,64Z"/><path d="M15.011,64a.932.932,0,0,1-.14-.01,1,1,0,0,1-.852-1.129,7.945,7.945,0,0,1,2.9-4.936C18.085,56.8,19.009,55.916,19.009,54c0-.329-.014-.627-.041-.9a1,1,0,0,1,1.99-.194c.033.334.051.7.051,1.1,0,2.768-1.439,4.149-2.708,5.368A6.044,6.044,0,0,0,16,63.139,1,1,0,0,1,15.011,64Z"/><path d="M32,55C13.216,55,13,25.266,13,24a1,1,0,0,1,.941-1c.164-.01,16.512-1.076,21.185-9.488a1,1,0,0,1,1.832.2A13.559,13.559,0,0,0,50,23a1,1,0,0,1,1,1,58.775,58.775,0,0,1-2.614,16.312,1,1,0,0,1-1.9-.624,57.433,57.433,0,0,0,2.49-14.716A15.44,15.44,0,0,1,35.806,16.1c-5.314,6.843-17.268,8.481-20.782,8.82C15.216,29.863,16.926,53,32,53a14.252,14.252,0,0,0,1.868-.121,1,1,0,1,1,.264,1.982A16.189,16.189,0,0,1,32,55Z"/><path d="M21,64a1,1,0,0,1-.324-1.946C24.93,60.6,25,54.489,25,54.427V53a1,1,0,0,1,2,0v1.429c0,.309-.064,7.593-5.676,9.517A.992.992,0,0,1,21,64Z"/><path d="M32,45a9.732,9.732,0,0,1-6.707-2.293,1,1,0,0,1,1.414-1.414A7.807,7.807,0,0,0,32,43a7.8,7.8,0,0,0,5.3-1.712,1,1,0,0,1,1.409,1.419A9.732,9.732,0,0,1,32,45Z"/><path d="M39,34a4.7,4.7,0,0,1-3.9-2.553,1,1,0,0,1,1.79-.894A2.721,2.721,0,0,0,39,32a2.723,2.723,0,0,0,2.108-1.453,1,1,0,0,1,1.787.9A4.7,4.7,0,0,1,39,34Z"/><path d="M25,34a4.7,4.7,0,0,1-3.895-2.553,1,1,0,0,1,1.79-.894A2.721,2.721,0,0,0,25,32a2.723,2.723,0,0,0,2.108-1.453,1,1,0,0,1,1.787.9A4.7,4.7,0,0,1,25,34Z"/><path d="M47,64A11,11,0,1,1,58,53,11.013,11.013,0,0,1,47,64Zm0-20a9,9,0,1,0,9,9A9.011,9.011,0,0,0,47,44Z"/><path d="M48,58H46a3,3,0,0,1-3-3V51a3,3,0,0,1,3-3h2a3,3,0,0,1,3,3,1,1,0,0,1-2,0,1,1,0,0,0-1-1H46a1,1,0,0,0-1,1v4a1,1,0,0,0,1,1h2a1,1,0,0,0,1-1,1,1,0,0,1,2,0A3,3,0,0,1,48,58Z"/></svg>
