<svg id="Capa_1" enable-background="new 0 0 512 512" height="512" viewBox="0 0 512 512" width="512" xmlns="http://www.w3.org/2000/svg"><g><path d="m452.333 424.653-42.592-60.631c-6.58-9.367-16.031-15.975-26.94-18.942v-153.027c0-37.117-30.196-67.313-67.313-67.313-4.761 0-8.634-3.873-8.634-8.634v-22.89h12.218c16.714 0 30.312-13.598 30.312-30.312v-32.592c0-16.714-13.598-30.312-30.312-30.312h-30.741c-4.142 0-7.5 3.358-7.5 7.5s3.358 7.5 7.5 7.5h30.741c8.443 0 15.312 6.869 15.312 15.312v32.592c0 8.443-6.869 15.312-15.312 15.312h-204.493c-8.443 0-15.312-6.869-15.312-15.312v-32.592c0-8.443 6.869-15.312 15.312-15.312h138.752c4.142 0 7.5-3.358 7.5-7.5s-3.358-7.5-7.5-7.5h-138.752c-16.715 0-30.312 13.598-30.312 30.312v32.592c0 16.714 13.598 30.312 30.312 30.312h12.218v22.891c0 4.761-3.873 8.634-8.634 8.634-37.117 0-67.313 30.196-67.313 67.313v103.161c0 4.142 3.358 7.5 7.5 7.5s7.5-3.358 7.5-7.5v-69.19h301.951v117.375c-14.388.47-28.735 8.202-37.161 19.967h-264.79v-33.151c0-4.142-3.358-7.5-7.5-7.5s-7.5 3.358-7.5 7.5v67.122c0 37.117 30.196 67.313 67.313 67.313h109.313c.672 26.221 22.197 47.349 48.578 47.349h74.096c15.061 0 28.543-6.885 37.466-17.673 16.395 9.814 37.091 9.14 52.883-1.955 21.932-15.408 27.241-45.786 11.834-67.719zm-386.483-213.629v-18.971c0-28.846 23.467-52.313 52.313-52.313 13.032 0 23.634-10.602 23.634-23.634v-22.89h150.058v22.891c0 13.032 10.602 23.634 23.634 23.634 28.846 0 52.313 23.467 52.313 52.313v18.971h-301.952zm284.794 153.437c15.166-10.653 36.169-6.982 46.822 8.183l16.985 24.179-37.275 26.185c-8.998-6.324-20.831-8.847-32.259-8.228-12.993-15.227-10.996-38.721 5.727-50.319zm-121.21 85.188h-111.271c-28.846 0-52.313-23.467-52.313-52.313v-18.971h257.449c-3.575 12.145-2.189 25.396 3.75 36.414h-50.995c-22.032 0-40.676 14.739-46.62 34.87zm13.01 13.741c0-18.533 15.078-33.61 33.61-33.61h29.548v67.22h-29.548c-18.533 0-33.61-15.078-33.61-33.61zm107.706 33.61h-29.548v-67.221h29.548c18.533 0 33.61 15.078 33.61 33.61s-15.078 33.611-33.61 33.611zm81.726-16.902c-11.022 7.743-25.377 8.085-36.604 1.339 2.242-5.584 3.488-11.671 3.488-18.047 0-11.287-3.878-21.679-10.356-29.939l34.67-24.355 16.985 24.178c10.653 15.166 6.982 36.171-8.183 46.824z"/><g><path d="m150.619 298.131v-12c0-4.142-3.358-7.5-7.5-7.5s-7.5 3.358-7.5 7.5v12c0 4.142 3.358 7.5 7.5 7.5s7.5-3.358 7.5-7.5z"/><path d="m208.714 313.436c8.796 0 17.16-3.809 22.948-10.451 2.721-3.123 2.396-7.86-.727-10.582-3.123-2.721-7.86-2.396-10.582.727-2.938 3.372-7.181 5.306-11.64 5.306s-8.701-1.934-11.64-5.306c-2.722-3.123-7.459-3.448-10.582-.727-3.123 2.722-3.448 7.459-.727 10.582 5.79 6.642 14.154 10.451 22.95 10.451z"/><path d="m270.22 297.796c0-3.532 2.874-6.406 6.406-6.406s6.406 2.874 6.406 6.406c0 4.142 3.358 7.5 7.5 7.5s7.5-3.358 7.5-7.5c0-11.803-9.603-21.406-21.406-21.406s-21.406 9.603-21.406 21.406c0 4.142 3.358 7.5 7.5 7.5s7.5-3.358 7.5-7.5z"/></g></g></svg>