<svg fill="none" height="24" viewBox="0 0 24 24" width="24" xmlns="http://www.w3.org/2000/svg" xmlns:svg="http://www.w3.org/2000/svg"><path clip-rule="evenodd" d="m7.99999 2.5c-1.01252 0-1.83333.82081-1.83333 1.83333v1.88934c-1.57149.70191-2.66666 2.27847-2.66666 4.11083v9.3333c0 1.0126.82081 1.8334 1.83333 1.8334h6.66667 6.6667c1.0125 0 1.8333-.8208 1.8333-1.8334v-9.3333c0-1.83236-1.0952-3.40893-2.6667-4.11084v-1.88933c0-1.01252-.8208-1.83333-1.8333-1.83333zm-.83333 1.83333c0-.46023.37309-.83333.83333-.83333h8.00001c.4602 0 .8333.3731.8333.83333v1.5h-9.66664zm.83334 2.50017c-1.26072 0-2.36575.66657-2.9819 1.6665h13.9638c-.6161-.99993-1.7212-1.6665-2.9819-1.6665h-4zm-3.5 3.5c0-.2872.0346-.56637.09986-.8335h14.80024c.0653.26713.0999.5463.0999.8335v7.4998h-15zm0 9.3333v-.8335h15v.8335c0 .4603-.3731.8334-.8333.8334h-6.6667-6.66667c-.46023 0-.83333-.3731-.83333-.8334zm8.902-8.2255c.2436-.13.3358-.4328.2058-.6765-.1299-.2437-.4328-.3358-.6764-.2059l-2.5 1.3334c-.1509.0804-.2501.2323-.2633.4028-.0131.1704.0618.3358.1986.4383l2.1333 1.6-2.1333 1.6c-.2209.1657-.2657.4791-.1.7s.4791.2657.7.1l2.6666-2c.1259-.0944.2-.2426.2-.4 0-.1573-.0741-.3055-.2-.4l-2.0381-1.5285z" fill="rgb(0,0,0)" fill-rule="evenodd"/></svg>