<svg clip-rule="evenodd" fill-rule="evenodd" height="512" image-rendering="optimizeQuality" shape-rendering="geometricPrecision" text-rendering="geometricPrecision" viewBox="0 0 512 512" width="512" xmlns="http://www.w3.org/2000/svg" xmlns:xodm="http://www.corel.com/coreldraw/odm/2003"><g id="Layer_x0020_1"><g id="_2181330852944"><g><g id="_281229816"><path d="m256 359.21c-.73 0-1.46-.13-2.15-.4-18.69-7.16-34.66-19.64-46.18-36.1-11.8-16.84-18.03-36.65-18.03-57.28s6.23-40.44 18.03-57.28c11.52-16.46 27.49-28.94 46.18-36.1 1.38-.53 2.91-.53 4.3 0 18.68 7.16 34.65 19.64 46.18 36.1 11.79 16.84 18.03 36.65 18.03 57.28s-6.24 40.44-18.03 57.28c-11.52 16.46-27.49 28.94-46.18 36.1-.7.27-1.42.4-2.15.4zm0-175.1c-32.61 13.5-54.36 45.89-54.36 81.32s21.75 67.81 54.36 81.32c32.61-13.51 54.36-45.89 54.36-81.32s-21.75-67.81-54.36-81.32z"/></g><g id="_281229768"><path d="m256 390.99c-3.31 0-6-2.68-6-6v-207.34c0-3.31 2.69-6 6-6s6 2.69 6 6v207.34c0 3.32-2.69 6-6 6z"/></g><g id="_281229864"><path d="m256 258.14c-1.3 0-2.59-.42-3.67-1.25-.25-.19-25.11-19.42-46.5-35.81-2.63-2.02-3.13-5.79-1.11-8.42s5.78-3.12 8.41-1.11c16.54 12.67 35.14 27.03 42.87 33.01 7.73-5.98 26.33-20.34 42.86-33.01 2.63-2.01 6.4-1.52 8.42 1.11 2.01 2.63 1.51 6.4-1.12 8.41-21.39 16.4-46.24 35.63-46.49 35.82-1.08.83-2.38 1.25-3.67 1.25z"/></g><g id="_281230296"><path d="m256 306.28c-1.3 0-2.59-.42-3.67-1.26-.37-.28-36.91-28.55-59.68-45.88-2.64-2.01-3.15-5.78-1.14-8.41 2.01-2.64 5.77-3.15 8.41-1.14 18.54 14.12 46.2 35.47 56.08 43.1 9.88-7.63 37.54-28.98 56.08-43.1 2.64-2.01 6.4-1.5 8.41 1.14 2.01 2.63 1.49 6.4-1.14 8.4-22.77 17.34-59.31 45.61-59.68 45.89-1.08.84-2.38 1.26-3.67 1.26z"/></g><g id="_281229696"><path d="m371.88 511.99h-231.76c-3.31 0-6-2.69-6-6v-47.13c0-3.31 2.69-6 6-6h231.76c3.31 0 6 2.69 6 6v47.13c0 3.31-2.69 6-6 6zm-225.76-12h219.76v-35.13h-219.76z"/></g><g id="_281230224"><path d="m371.88 464.86h-231.76c-1.69 0-3.31-.71-4.44-1.97-1.14-1.25-1.7-2.93-1.53-4.61l33.51-342c1.04-10.72 9.05-18.49 19.04-18.49l138.6-.01c9.99 0 18 7.78 19.05 18.5l33.5 342c.16 1.68-.39 3.36-1.53 4.61-1.13 1.26-2.75 1.97-4.44 1.97zm-225.14-12h218.52l-32.86-335.41c-.37-3.81-2.93-7.67-7.1-7.67l-138.6.01c-4.17 0-6.73 3.85-7.1 7.66z"/></g><g id="_281230200"><path d="m297.95 109.78h-83.91c-3.31 0-5.99-2.68-5.99-6v-60.13c0-3.32 2.68-6 5.99-6h83.91c3.31 0 6 2.68 6 6v60.13c0 3.32-2.69 6-6 6zm-77.91-12h71.91v-48.13h-71.91z"/></g><g id="_281230968"><path d="m311.89 49.65h-111.78c-13.68 0-24.81-11.14-24.81-24.82 0-13.69 11.13-24.82 24.81-24.82h111.78c13.68 0 24.81 11.13 24.81 24.82 0 13.68-11.13 24.82-24.81 24.82zm-111.78-37.64c-7.07 0-12.81 5.75-12.81 12.82s5.74 12.82 12.81 12.82h111.78c7.06 0 12.81-5.76 12.81-12.82 0-7.07-5.75-12.82-12.81-12.82z"/></g></g></g></g></svg>