<?xml version="1.0" encoding="UTF-8"?>
<svg xmlns="http://www.w3.org/2000/svg" viewBox="0 0 64 64" width="512" height="512"><g id="Layer_32" data-name="Layer 32"><path d="M38.555,41.168,36,39.465V36a1,1,0,0,0-.445-.832l-3-2a1,1,0,0,0-1.11,0l-3,2A1,1,0,0,0,28,36v3.465l-2.555,1.7A1,1,0,0,0,25,42v4a1,1,0,0,0,.445.832l3,2a1,1,0,0,0,1.11,0L32,47.2l2.445,1.63a1,1,0,0,0,1.11,0l3-2A1,1,0,0,0,39,46V42A1,1,0,0,0,38.555,41.168ZM32,35.2l2,1.333v2.93L32,40.8l-2-1.333v-2.93ZM29,46.8l-2-1.333v-2.93L29,41.2l2,1.333v2.93Zm8-1.333L35,46.8l-2-1.333v-2.93L35,41.2l2,1.333Z"/><path d="M38.316,5.949A1,1,0,0,0,39,5V2a1,1,0,0,0-1-1H28a1,1,0,0,0-1,1V9a1,1,0,0,0-1,1v9H25a4,4,0,0,0-4,4V59a4,4,0,0,0,4,4H39a4,4,0,0,0,4-4V23a4,4,0,0,0-4-4H38V10a1,1,0,0,0-1-1H36V6.721ZM23,31H41V51H23ZM39,61H25a2,2,0,0,1-2-2V53H41v6A2,2,0,0,1,39,61Zm2-38v6H23V23a2,2,0,0,1,2-2H39A2,2,0,0,1,41,23ZM28,19V11h8v8ZM29,9V3h8V4.279l-2.316.772A1,1,0,0,0,34,6V9Z"/></g></svg>
