<?xml version="1.0" encoding="UTF-8"?>
<svg xmlns="http://www.w3.org/2000/svg" id="Layer_1" data-name="Layer 1" viewBox="0 0 64 64" width="512" height="512"><path d="M57,63H23a7.009,7.009,0,0,1-7-7V40a1,1,0,0,1,1-1H63a1,1,0,0,1,1,1V56A7.009,7.009,0,0,1,57,63ZM18,41V56a5.006,5.006,0,0,0,5,5H57a5.006,5.006,0,0,0,5-5V41Z"/><path d="M59,41H21a1,1,0,0,1-1-1V32a1,1,0,0,1,1-1H59a1,1,0,0,1,1,1v8A1,1,0,0,1,59,41ZM22,39H58V33H22Z"/><path d="M35,36H21a1,1,0,0,1,0-2H35a1,1,0,0,1,0,2Z"/><path d="M59,38H50a1,1,0,0,1,0-2h9a1,1,0,0,1,0,2Z"/><path d="M53,33a1,1,0,0,1-1-1,2,2,0,0,0-2-2H49a1,1,0,0,1-1-1c0-3.687-2.583-6.609-4.228-8.1A5.478,5.478,0,0,1,38.43,25C32.073,25,32,28.837,32,29a1,1,0,0,1-1,1H30a2,2,0,0,0-2,2,1,1,0,0,1-2,0,4,4,0,0,1,4-4h.154c.433-1.707,2.071-5,8.276-5,.36,0,3.57-.153,3.57-4a1,1,0,0,1,1.555-.832c.249.166,5.811,3.94,6.4,9.832H50a4,4,0,0,1,4,4A1,1,0,0,1,53,33Z"/><path d="M63,54H33a1,1,0,0,1-1-1V45a1,1,0,0,1,1-1H63a1,1,0,0,1,1,1v8A1,1,0,0,1,63,54ZM34,52H62V46H34Z"/><path d="M3.029,28.277a.986.986,0,0,1-.351-.064,1,1,0,0,1-.56-.524L.45,24a5.056,5.056,0,0,1,2.508-6.678L37.9,1.452a5.035,5.035,0,0,1,6.672,2.512l1.668,3.685a1,1,0,0,1-.5,1.323L3.442,28.188A1,1,0,0,1,3.029,28.277ZM39.984,3a3.051,3.051,0,0,0-1.254.273L3.786,19.146A3.054,3.054,0,0,0,2.272,23.18l1.255,2.773L44.009,7.564,42.753,4.788A3.045,3.045,0,0,0,39.984,3Z"/><path d="M4.7,31.962a1.008,1.008,0,0,1-.911-.588L2.118,27.689a1,1,0,0,1,.5-1.322l42.3-19.216a1,1,0,0,1,1.324.5l1.668,3.686a1,1,0,0,1-.5,1.322L5.11,31.872A.988.988,0,0,1,4.7,31.962Zm-.344-4.188L5.2,29.638,45.677,11.25l-.843-1.864Z"/></svg>
