<svg enable-background="new 0 0 512 512" viewBox="0 0 512 512" xmlns="http://www.w3.org/2000/svg"><g id="_x32_0_Hair_Mask"><g><path d="m52.295 169.766.436-.298c4.753-3.267 4.753-3.267 25.76-10.922 18.298-6.668 52.358-19.081 118.324-44.174 50.019-18.671 94.036-50.618 127.291-92.397 3.584-4.504 9.965-5.711 14.834-2.842 78.863 47.001 123.003 95.358 134.943 147.836.603 2.652 2.965 4.452 5.577 4.452.417 0 .846-.045 1.274-.142 3.081-.7 5.01-3.77 4.31-6.851-12.674-55.692-58.546-106.433-140.263-155.133-9.779-5.778-22.515-3.397-29.63 5.554-31.962 40.15-74.266 70.857-122.37 88.813-65.925 25.078-99.937 37.472-118.209 44.133-21.949 7.998-22.37 8.151-28.323 12.241l-.428.298c-2.608 1.788-3.267 5.349-1.479 7.953 1.788 2.608 5.361 3.275 7.953 1.479z"/><path d="m471.871 182.216h-431.742c-16.175 0-29.332 13.157-29.332 29.332v236.202c0 32.037 26.062 58.099 58.095 58.099h374.217c32.033 0 58.095-26.062 58.095-58.099 0-82.218 0-189.713 0-236.202 0-16.175-13.158-29.332-29.333-29.332zm-449.631 29.332c0-9.864 8.024-17.889 17.889-17.889h431.742c9.864 0 17.889 8.024 17.889 17.889v34.753h-467.52zm467.52 236.202c0 25.726-20.928 46.655-46.651 46.655h-374.218c-25.723 0-46.651-20.928-46.651-46.655v-190.005h467.52z"/><path d="m182.172 441.76 53.856 31.091c6.162 3.558 13.068 5.335 19.975 5.335s13.813-1.777 19.971-5.335l53.856-31.091c12.319-7.115 19.975-20.37 19.975-34.596v-62.178c0-14.223-7.655-27.477-19.975-34.592l-53.856-31.091c-12.316-7.115-27.623-7.115-39.946 0l-53.856 31.091c-12.319 7.115-19.975 20.37-19.975 34.592v62.178c0 14.226 7.655 27.481 19.975 34.596zm-8.531-96.774c0-10.148 5.461-19.606 14.253-24.683l53.856-31.091c8.792-5.074 19.718-5.074 28.502 0l53.856 31.091c8.792 5.077 14.253 14.536 14.253 24.683v62.178c0 10.151-5.461 19.61-14.253 24.687l-53.856 31.091c-8.792 5.074-19.71 5.074-28.502 0l-53.856-31.091c-8.792-5.077-14.253-14.536-14.253-24.687z"/><path d="m256.002 438.865c25.164 0 45.634-20.474 45.634-45.638 0-23.301-36.883-72.195-41.089-77.693-1.084-1.416-2.764-2.246-4.545-2.246s-3.461.831-4.545 2.246c-4.206 5.498-41.093 54.388-41.093 77.693 0 25.164 20.474 45.638 45.638 45.638zm0-110.263c12.539 17.278 34.19 50.127 34.19 64.625 0 18.853-15.337 34.194-34.19 34.194s-34.194-15.34-34.194-34.194c0-14.498 21.655-47.347 34.194-64.625z"/></g></g><g id="Layer_1"/></svg>