<svg height="512" viewBox="0 0 128 128" width="512" xmlns="http://www.w3.org/2000/svg"><g><path d="m80.66 80.6a1.757 1.757 0 0 0 -1.876 1.614l-.5 6.661a1.75 1.75 0 0 0 1.616 1.873h.133a1.75 1.75 0 0 0 1.743-1.619l.5-6.661a1.749 1.749 0 0 0 -1.616-1.868z"/><path d="m92.75 4.75h-57.5a1.75 1.75 0 0 0 -1.75 1.75v6a1.749 1.749 0 0 0 1.086 1.618l6.519 87.046a4.775 4.775 0 0 0 3.645 4.253v13.083a4.756 4.756 0 0 0 4.75 4.75h29a4.756 4.756 0 0 0 4.75-4.75v-13.083a4.773 4.773 0 0 0 3.645-4.256l6.519-87.043a1.75 1.75 0 0 0 1.086-1.618v-6a1.749 1.749 0 0 0 -1.75-1.75zm-55.75 3.5h54v2.5h-54zm22.75 111.5v-5.5h8.5v5.5zm18.75 0h-6.75v-7.25a1.749 1.749 0 0 0 -1.75-1.75h-12a1.75 1.75 0 0 0 -1.75 1.75v7.25h-6.75a1.25 1.25 0 0 1 -1.25-1.25v-12.94h31.5v12.94a1.251 1.251 0 0 1 -1.25 1.25zm4.905-18.85a1.244 1.244 0 0 1 -1.245 1.163h-36.32a1.243 1.243 0 0 1 -1.24-1.163l-6.494-86.65h51.788z"/><path d="m64 39.75a13.75 13.75 0 1 0 13.75 13.75 13.765 13.765 0 0 0 -13.75-13.75zm0 24a10.25 10.25 0 1 1 10.25-10.25 10.261 10.261 0 0 1 -10.25 10.25z"/></g></svg>