<svg id="Capa_1" enable-background="new 0 0 512 512" height="512" viewBox="0 0 512 512" width="512" xmlns="http://www.w3.org/2000/svg"><g><path d="m479.47 502.744-10.332-42.966c-7.297-30.378-31.435-52.878-61.143-58.657v-125.943c0-4.142-3.358-7.5-7.5-7.5s-7.5 3.358-7.5 7.5v124.476c-.047 0-.094-.003-.142-.003h-55.84-13.242c-5.108 0-9.263-4.155-9.263-9.263v-34.116c38.268-18.426 65.221-59.047 64.261-104.605 24.31 1.184 45.114-19.777 43.672-44.427 0-12.592-5.607-23.891-14.446-31.558v-48.77c0-69.98-56.932-126.912-126.911-126.912h-50.169c-69.979 0-126.911 56.932-126.911 126.911v48.361c-9.243 7.543-15.547 21.196-14.821 34.529 0 12.77 5.764 24.213 14.821 31.883v55.117c0 38.782 15.837 75.926 43.145 102.849h-28.003c-36.412 0-67.781 24.726-76.284 60.126l-10.332 42.968c-.969 4.027 1.511 8.077 5.539 9.045.589.142 1.179.21 1.76.21 3.387 0 6.459-2.311 7.286-5.749l10.333-42.97c6.877-28.633 32.25-48.631 61.7-48.631h48.763c2.687 23.592 18.015 43.754 40.576 52.566l23.937 9.342c5.218 2.034 10.62 3.349 16.078 3.977v23.962c0 4.142 3.358 7.5 7.5 7.5s7.5-3.358 7.5-7.5v-23.999c5.295-.637 10.536-1.92 15.601-3.882l5.722-2.214c3.863-1.495 5.782-5.839 4.288-9.702-1.496-3.863-5.839-5.783-9.702-4.288l-5.724 2.215c-5.69 2.204-11.665 3.313-17.643 3.338-.014 0-.028-.002-.042-.002-.036 0-.071.005-.106.005-6.105.007-12.212-1.12-18.02-3.384l-23.933-9.34c-16.744-6.54-28.296-21.229-30.898-38.594h5.186c13.379 0 24.263-10.884 24.263-24.263v-27.996c10.793 3.405 22.275 5.246 34.179 5.246h18.286c12.042 0 23.651-1.886 34.553-5.368v28.118c0 13.378 10.884 24.263 24.263 24.263h5.162c-1.965 12.658-8.833 24.28-19.197 32.05-3.314 2.484-3.986 7.186-1.501 10.5 1.473 1.965 3.726 3.001 6.006 3.001 1.565 0 3.144-.488 4.493-1.5 14.128-10.592 23.272-26.676 25.335-44.051h48.784c29.45 0 54.822 19.998 61.7 48.633l10.332 42.968c.827 3.438 3.899 5.749 7.286 5.749.581 0 1.17-.068 1.76-.21 4.024-.968 6.504-5.018 5.535-9.045zm-72.028-295.505c1.361 15.973-12.122 30.475-28.672 29.427v-56.208c14.787-1.054 28.765 11.341 28.672 26.781zm-303.259 2.562c-1.463-15.434 12.129-30.4 28.672-29.427v56.209c-14.787 1.053-28.765-11.342-28.672-26.782zm93.308 180.587c0 5.107-4.155 9.263-9.263 9.263h-18.229c-31.971-24.363-50.995-62.621-50.995-102.849v-46.972c2.925.884 8.527 1.898 13.851 1.754-1.028 45.457 25.9 86.353 64.636 104.872zm67.464-37.75h-18.285c-54.486 0-98.814-44.328-98.814-98.814v-80.95c0-4.142-3.358-7.5-7.5-7.5h-9.39c-4.156 0-8.169.618-11.961 1.754v-40.216c-.001-61.709 50.202-111.912 111.91-111.912h50.169c61.708 0 111.911 50.203 111.911 111.911v38.546h-20.619c-.016-.002-.031-.007-.046-.009l-65.407-9.339c-12.946-1.848-23.807-10.103-29.055-22.08l-14.555-33.219v-57.683c0-4.142-3.358-7.5-7.5-7.5s-7.5 3.358-7.5 7.5v57.674l-14.676 33.3c-5.259 11.933-16.105 20.159-29.014 22.005l-29.941 4.282c-4.1.586-6.949 4.386-6.362 8.486.586 4.1 4.382 6.954 8.486 6.362l29.94-4.282c18.07-2.584 33.254-14.1 40.616-30.804l8.43-19.127 8.335 19.025c7.347 16.768 22.552 28.323 40.674 30.91l58.967 8.419v74.445c.002 54.488-44.326 98.816-98.813 98.816z"/><path d="m256 200.978c-11.178 0-20.272 9.094-20.272 20.272v30.177c0 11.178 9.094 20.272 20.272 20.272s20.272-9.094 20.272-20.272v-30.177c0-11.178-9.094-20.272-20.272-20.272zm5.272 50.449c0 2.907-2.365 5.272-5.272 5.272s-5.272-2.365-5.272-5.272v-30.177c0-2.907 2.365-5.272 5.272-5.272s5.272 2.365 5.272 5.272z"/><path d="m304.759 224.25c4.583 4.584 10.676 7.108 17.156 7.108 8.633 0 16.685-4.646 21.014-12.125 2.075-3.585.851-8.173-2.734-10.248-3.582-2.073-8.173-.851-10.248 2.734-1.656 2.861-4.733 4.639-8.031 4.639-2.473 0-4.798-.964-6.549-2.714-.572-.573-1.064-1.213-1.461-1.904-2.063-3.592-6.648-4.831-10.239-2.767-3.592 2.063-4.83 6.648-2.767 10.239 1.053 1.837 2.352 3.532 3.859 5.038z"/><path d="m189.331 231.358c8.633 0 16.685-4.646 21.014-12.125 2.075-3.585.851-8.173-2.734-10.248-3.583-2.073-8.173-.851-10.248 2.734-1.656 2.861-4.733 4.639-8.031 4.639-2.473 0-4.806-.967-6.559-2.714-.572-.573-1.064-1.213-1.461-1.904-2.063-3.592-6.649-4.831-10.239-2.767-3.592 2.063-4.83 6.648-2.767 10.239 1.055 1.836 2.354 3.531 3.869 5.046 4.592 4.579 10.685 7.1 17.156 7.1z"/><path d="m267.378 291.168h-23.505c-4.142 0-7.5 3.358-7.5 7.5s3.358 7.5 7.5 7.5h23.505c4.142 0 7.5-3.358 7.5-7.5s-3.358-7.5-7.5-7.5z"/><path d="m342.202 267.479c0-4.251-3.447-7.698-7.698-7.698-4.252 0-7.698 3.447-7.698 7.698 0 4.252 3.447 7.698 7.698 7.698 4.251.001 7.698-3.446 7.698-7.698z"/><ellipse cx="319.708" cy="295.432" rx="7.698" ry="7.698" transform="matrix(.383 -.924 .924 .383 -75.583 477.747)"/><ellipse cx="301.743" cy="272.177" rx="7.698" ry="7.698" transform="matrix(.383 -.924 .924 .383 -65.188 446.793)"/><path d="m177.121 259.781c-4.252 0-7.698 3.447-7.698 7.698 0 4.252 3.447 7.698 7.698 7.698 4.252 0 7.698-3.447 7.698-7.698s-3.446-7.698-7.698-7.698z"/><circle cx="191.917" cy="295.432" r="7.698"/><circle cx="209.883" cy="272.177" r="7.698"/></g></svg>