<svg id="Image" height="512" viewBox="0 0 64 64" width="512" xmlns="http://www.w3.org/2000/svg"><g><path d="m52.126 32.119c-2.735-6.651-2.632-8.172-.831-15.902.799-3.433 1.705-7.323 1.705-11.217 0-1.322-2-1.324-2 0 0 2.355-.349 4.687-.813 6.979-6.221-.235-14.427-2.979-18.187-2.979-3.688 0-12.036 2.746-18.188 2.979-.463-2.292-.812-4.624-.812-6.979 0-1.322-2-1.324-2 0 0 3.894.906 7.784 1.705 11.216 1.764 7.571 1.943 9.154-.831 15.902-2.057 5.005-4.874 11.859-4.874 26.882 0 1.322 2 1.324 2 0 0-3.756.182-6.978.483-9.786 3.144.72 12.997 2.786 22.517 2.786s19.373-2.066 22.517-2.786c.301 2.808.483 6.03.483 9.786 0 1.322 2 1.324 2 0 0-15.023-2.817-21.877-4.874-26.881zm-20.126 17.881c-9.549 0-19.467-2.131-22.273-2.782.947-6.905 2.642-11.04 3.997-14.339 3.006-7.313 2.743-9.327.929-17.116-.139-.595-.277-1.195-.412-1.796 6.223-.321 14.456-2.967 17.759-2.967 3.368 0 11.426 2.64 17.759 2.967-.136.602-.274 1.201-.412 1.796-1.827 7.847-2.05 9.867.929 17.116 1.356 3.299 3.051 7.434 3.997 14.339-2.804.651-12.717 2.782-22.273 2.782z"/><path d="m39.2 37.399c-1.717 2.289-4.341 3.601-7.2 3.601-4.815 0-8.748-3.805-8.978-8.564l2.271 2.271c.922.922 2.362-.467 1.414-1.414l-4-4c-.391-.391-1.023-.391-1.414 0l-4 4c-.936.936.479 2.349 1.414 1.414l2.313-2.313c.21 5.882 5.048 10.606 10.98 10.606 3.443 0 6.732-1.645 8.8-4.4.793-1.058-.805-2.26-1.6-1.201z"/><path d="m45.293 29.293-2.313 2.313c-.21-5.882-5.048-10.606-10.98-10.606-3.49 0-6.698 1.604-8.8 4.399-.796 1.058.804 2.258 1.599 1.202 1.721-2.288 4.345-3.601 7.201-3.601 4.815 0 8.748 3.805 8.978 8.564l-2.271-2.271c-.936-.936-2.349.479-1.414 1.414l4 4c.391.391 1.023.391 1.414 0l4-4c.936-.936-.479-2.349-1.414-1.414z"/></g></svg>