<svg id="Layer_1" enable-background="new 0 0 512 512" height="512" viewBox="0 0 512 512" width="512" xmlns="http://www.w3.org/2000/svg"><path d="m27.311 166.958c-2.288 3.779-1.079 8.698 2.701 10.986s8.699 1.078 10.986-2.701c1.806-2.982 3.948-6.02 6.368-9.024 2.126-2.641 2.357-6.333.578-9.218-.167-.271-16.569-27.261-9.521-50.728 3.35-11.153 11.8-19.941 25.116-26.12 2.356-1.094 4.035-3.263 4.502-5.817.055-.299 5.71-30.013 27.107-41.771 12.059-6.626 27.311-6.282 45.333 1.02 2.909 1.181 6.242.546 8.517-1.616 20.671-19.654 50.205-14.893 64.243 1.983 2.443 2.938 6.622 3.736 9.978 1.91 18.193-9.909 35.366-13.325 49.667-9.878 10.609 2.558 16.144 8.06 16.144 8.06 3.223 3.409 8.711 3.332 11.829-.225 9.085-10.366 20.395-17.819 34.074-17.819 22.222 0 40.805 19.251 40.98 19.435 2.56 2.717 6.658 3.298 9.875 1.408.453-.268 45.419-26.251 68.171-.473 25.689 38.141 7.642 74.04 6.871 75.529-1.549 2.941-1.117 6.535 1.085 9.026 6.999 7.916 12.15 16.57 15.312 25.724 1.442 4.178 5.998 6.393 10.173 4.95 4.176-1.442 6.392-5.997 4.95-10.173-3.319-9.609-8.391-18.713-15.107-27.125 5.188-13.083 15.489-49.426-10.32-87.322-.169-.249-.353-.487-.548-.716-20.766-24.13-54.888-19.918-83.323-6.041-27.704-24.067-61.647-28.796-89.006-2.433-11.016-7.16-35.609-17.062-72.991 1.187-20.287-18.931-54.108-22.44-79.228-1.996-20.764-7.388-39.041-6.867-54.384 1.563-22.793 12.524-31.583 38.73-34.211 48.852-36.817 19.165-40.148 56.676-21.616 93.087-1.561 2.156-3.002 4.322-4.305 6.476z"/><path d="m488.628 181.766c-4.306-.974-8.59 1.739-9.56 6.05-3.823 17.002-8.51 18.101-6.684 23.798 17.667 55.109-27.911 85.553-29.841 86.811-2.619 1.685-4.021 4.735-3.596 7.82 3.146 22.819-.76 40.928-11.609 53.82-17.215 20.458-46.821 21.715-47.098 21.725-3.238.096-6.098 2.135-7.245 5.165-6.87 18.152-16.898 29.505-29.807 33.74-22.817 7.483-48.406-8.841-48.648-8.997-5.757-3.765-13.296 1.044-12.294 7.859.067.457 6.222 44.744-19.648 76.442h-9.525c-23.522-54.204-44.191-146.161 13.794-154.686 14.579-2.14 31.112 2.647 49.247 14.223 4.51 2.878 7.135 5.689 11.776 4.2 12.578-4.052-1.198-33.89 46.721-44.76 4.378-.993 7.076-5.394 5.992-9.737-7.556-30.302-2.722-51.858 26.34-64.578 3.726-1.646 5.612-5.825 4.402-9.701-4.837-15.493-5.774-31.617-1.475-47.536 4.653-17.231 10.695-18.72 9.065-24.944-1.517-5.795-6.117-4.661-13.934-11.331-7.906-6.75-12.895-16.438-14.854-28.955-2.125-13.572.204-25.452.225-25.554.994-4.844-2.604-9.395-7.497-9.602-5.756-.245-5.596 3.908-16.704 9.815-22.934 12.198-54.059 7.314-77.848-1.888-5.19-2.008-8.677-4.378-12.994-1.048-15.329 11.814-30.615 14.915-43.359 14.439-.117-.02-17.836-.401-31.728-8.974-7.268-4.554-11.867 5.428-34.123 4.301-14.168-.717-28.493-7.095-36.819-14.323-5.782-5.006-14.462.197-13.088 7.522 1.718 9.167 1.083 18.404-3.736 26.388-5.383 8.919-13.583 12.195-13.727 12.366-4.595 1.88-6.38 7.453-3.747 11.653 12.035 19.195 14.611 35.515 13.626 47.896-.023.114-1.245 16.163-8.916 25.965-3.68 4.571-1.34 11.436 4.375 12.799 42.64 10.172 47.847 70.291 33.137 87.266-7.155 8.25-4.761 23.401-3.322 35.095 1.379 11.211 3.269 26.565-1.426 30.926-5.269 4.895-12 .964-13.937-.355-7.377-5.028-4.088-23.352-1.911-35.477 2.061-11.477 3.421-19.059-1.597-23.805-2.463-2.33-5.899-3.186-9.426-2.348-46.828 11.131-58.701-49.623-43.513-61.985 4.243-3.454 3.84-10.067-.796-12.98-.126-.079-12.744-8.1-21.135-21.822-2.306-3.77-7.23-4.955-10.999-2.651-3.77 2.305-4.957 7.229-2.652 10.999 5.946 9.723 13.539 17.073 19.037 21.637-16.89 28.469 4.162 90.185 56.434 83.696-2.514 16.276-10.494 45.661 7.545 57.956 11.424 7.788 24.708 7.339 33.838-1.143 13.664-12.691 6.142-39.13 5.096-57.807 20.175 16.009 44.921 25.011 70.591 25.743-20.06 55.727 19.784 140.685 21.619 144.541 1.326 2.787 4.137 4.563 7.224 4.563h18.388c2.274 0 4.441-.968 5.959-2.662 23.08-25.768 26.765-58.775 26.725-77.491 37.055 15.499 70.102 5.06 87.097-34.522 10.972-1.348 36.293-6.592 53.412-26.83 13.152-15.549 18.491-36.271 15.899-61.647 29.114-22.805 44.704-59.076 33.194-99.009 1.634-3.614 4.224-10.113 6.112-18.512.968-4.31-1.741-8.59-6.052-9.559zm-167.666 157.947c-4.675-2.795-9.283-5.175-13.827-7.186 3.59-8.033 3.563-16.887.952-25.191 11.916-6.404 23.799-13.874 33.205-24.705 12.991-14.958 17.995-34.229 13.059-50.29-5.124-16.675-23.281-37.411-49.718-46.393-1.743-.591-1.82-2.985-.167-3.812 14.986-7.5 58.477-29.274 51.777-68.453 5.779-1.425 11.499-3.504 17.014-6.413.178 17.131 4.646 34.174 16.192 47.014-6.057 8.669-17.862 14.396-27.396 17.808-13.51 4.837-17.561 21.962-7.674 32.413 8.351 8.827 18.02 23.307 17.828 42.86-11.54 15.668-12.42 34.98-8.824 54.022-29.628 8.905-38.183 25.734-42.421 38.326zm-101.728-132.866c-13.332-.52-25.523 2.853-34.712 9.703-5.302 3.953-9.499 10.388-12.099 17.643-10.107-10.933-23.371-12.836-34.743-3.318-5.726-5.641-12.36-10.102-19.795-13.211 1.652-3.456 3.358-7.796 4.673-12.918 38.436 16.596 67.423 1.82 68.911-47.742.767-25.556 34.074-35.219 39.966-36.728 17.78.661 34.698-4.383 49.813-14.869 5.566 2.252 15.826 5.946 28.363 8.392-12.816 20.628-42.303 30.518-66.275 33.785-30.231 4.12-36.371 31.51-24.102 59.263zm178.535-37.678c-7.723 19.203-8.422 40.204-3.559 59.901-2.554 1.362-4.957 2.806-7.21 4.333-3.289-17.712-12.67-31.086-21-39.891-1.927-2.036-1.242-5.392 1.444-6.353 12.979-4.647 23.215-10.745 30.325-17.99zm-194.228-54.643c-16.085 9.165-27.508 23.448-28.065 41.997-.579 19.274-5.33 31.458-14.121 36.214-10.862 5.875-27.43.005-36.508-4.523.422-16.182-4.303-31.844-12.1-46.25 7.84-5.618 14.634-14.209 17.931-24.443 5.516 11.958 9.889 27.546 5.848 42.772-1.351 5.091 2.501 10.054 7.738 10.054 3.54 0 6.776-2.367 7.727-5.95 5.082-19.152.246-37.938-6.151-52.294 15.979 5.146 32.973 5.054 49.616-1.12 1.989 1.004 4.732 2.27 8.085 3.543zm-49.64 206.381c9.566-18.031 9.595-50.24-4.936-75.346.243-1.259.552-2.521.918-3.776 4.986-3.484 11.84 4.213 13.498 6.793 3.25 5.057 6.3 10.022 7.908 15.171 10.127 32.418 34.297 48.263 69.515 46.327 4.412-.242 7.792-4.015 7.549-8.427s-4.015-7.777-8.426-7.55c-17.503.956-30.931-3.103-40.374-12.5-18.018-17.929-16.266-44.17-5.467-52.222 7.025-5.238 17.035-7.47 28.182-6.289 14.494 1.54 19.964 5.342 66.619 28.921 3.944 1.993 8.754.414 10.75-3.528 1.994-3.943.413-8.756-3.529-10.749-43.883-22.189-47.459-24.33-56.653-27.28-9.885-14.319-11.949-29.846-8.705-37.612 2.203-5.275 7.027-8.352 14.747-9.403 18.755-2.557 45.208-9.18 64.716-26.217 8.297-7.246 13.586-14.869 16.258-21.205 4.54.295 9.212.334 13.937.038 3.38 19.131-10.218 35.318-43.102 51.775-14.204 7.108-13.137 28.065 2.18 33.271 21.424 7.278 35.938 24.117 39.571 35.942 3.978 12.94-2.478 26.615-9.845 35.098-7.678 8.841-17.976 15.323-28.463 20.978-9.862-13.593-27.591-26.228-53.036-37.737-4.026-1.818-8.765-.033-10.586 3.992s-.034 8.765 3.992 10.586c18.816 8.512 49.452 25.486 52.58 45.912.803 5.243-.556 9.163-1.755 11.333-28.234-7.197-52.005 3.114-64.626 19.653-46.21 1.299-71.685-24.949-73.417-25.949z"/><path d="m32.507 196.589c-1.975-4.74-7.741-6.347-11.83-3.59-5.227 3.446-4.618 11.54 1.38 14.029 6.579 2.745 13.17-3.909 10.45-10.439z"/></svg>