<svg height="512" viewBox="0 0 128 128" width="512" xmlns="http://www.w3.org/2000/svg"><path d="m102.689 84.993c0-.029-.007-.056-.008-.085-.023-6.39-2.962-13.081-6.073-20.164l-.433-.985c-3.139-7.121-5.8-13.561-6.511-20.28-.984-9.229 2.767-18.369 5.782-25.714 1.865-4.543 3.338-8.132 3.338-10.87a1.75 1.75 0 0 0 -1.75-1.75h-64.334a1.749 1.749 0 0 0 -1.75 1.75c0 2.741 1.475 6.335 3.343 10.886 1.225 2.985 2.592 6.35 3.711 9.9-1.516 2.425-2.928 5.2-2.928 7.123a7.778 7.778 0 0 0 5.106 7.292q-.041.682-.113 1.387a51.129 51.129 0 0 1 -3.394 12.877c-.983-1.428-1.855-2.56-2.222-3.025a1.811 1.811 0 0 0 -2.748 0c-1.068 1.355-6.4 8.3-6.4 12.046a7.775 7.775 0 0 0 4.576 7.076 36.058 36.058 0 0 0 -2.821 12.385v.048.095c0 12.251 9.808 35.8 10.225 36.8a1.751 1.751 0 0 0 1.615 1.073h19.52a1.749 1.749 0 0 0 1.748-1.676l1.1-25.994h7.215l1.1 25.994a1.749 1.749 0 0 0 1.748 1.676h19.53a1.751 1.751 0 0 0 1.614-1.074c.416-.994 10.174-24.449 10.213-36.72-.006-.027.001-.048.001-.071zm-3.611-1.922c-12.157-.791-23.357 4.835-29.391 8.614h-9.637c-6.022-3.78-17.209-9.41-29.388-8.615a38.437 38.437 0 0 1 2.717-9.934 7.777 7.777 0 0 0 7.259-5.963 182.035 182.035 0 0 0 24.236 1.5c2.578 0 5.1-.054 7.556-.141a7.762 7.762 0 0 0 14.581-1.088c2.362-.29 4.546-.623 6.522-1 2.595 5.912 5.03 11.527 5.545 16.627zm-19.552-13.42a4.276 4.276 0 0 1 -4.272-4.272c0-1.525 2.192-5.148 4.272-8.047 2.08 2.9 4.272 6.522 4.272 8.047a4.277 4.277 0 0 1 -4.272 4.272zm-40.946-34.851c0-1.137 1.22-3.443 2.7-5.745a1.749 1.749 0 0 0 .2-.3c.446-.682.909-1.361 1.37-2 2.08 2.9 4.272 6.524 4.272 8.048a4.272 4.272 0 1 1 -8.544 0zm4.974 9.042c.046-.443.078-.879.107-1.312a7.783 7.783 0 0 0 6.963-7.73c0-3.742-5.33-10.691-6.4-12.047a1.815 1.815 0 0 0 -2.748 0c-.2.255-.551.706-.988 1.3-.958-2.714-2-5.271-2.955-7.6a59.062 59.062 0 0 1 -2.842-7.807h41.37c-1.9 2.74-4.307 6.7-4.307 9.213a7.772 7.772 0 0 0 15.544 0c0-2.515-2.4-6.472-4.307-9.213h12.053a58.947 58.947 0 0 1 -2.836 7.791c-3 7.3-7.1 17.305-6.025 27.414.7 6.559 3.046 12.7 5.912 19.31-1.545.276-3.228.525-5.013.751-1-3.859-5.242-9.385-6.182-10.578a1.812 1.812 0 0 0 -2.748 0c-1.039 1.317-6.091 7.914-6.371 11.72-2.251.074-4.553.122-6.907.122a176.511 176.511 0 0 1 -24.318-1.548 18.638 18.638 0 0 0 -1.579-3.588 59.316 59.316 0 0 0 4.577-16.196zm35.972-34.032c2.08 2.9 4.272 6.523 4.272 8.048a4.272 4.272 0 0 1 -8.544 0c0-1.525 2.192-5.149 4.272-8.048zm-46.444 47.523c2.053 2.873 4.273 6.541 4.273 8.046a4.272 4.272 0 0 1 -8.544 0c0-1.525 2.189-5.146 4.271-8.046zm6.987 62.022c-1.828-4.532-8.762-22.305-9.455-32.768 11.051-.822 21.4 4.248 27.177 7.814l-1.055 24.954zm49.609 0h-16.678l-1.054-24.955c5.789-3.565 16.151-8.637 27.176-7.815-.692 10.461-7.622 28.237-9.444 32.77z"/></svg>