<svg height="511pt" viewBox="0 -22 511.99707 511" width="511pt" xmlns="http://www.w3.org/2000/svg"><path d="m457.988281 138.964844c0-29.109375-8.933593-56.964844-25.835937-80.558594-2.414063-3.367188-7.101563-4.140625-10.464844-1.730469-3.367188 2.414063-4.140625 7.097657-1.730469 10.464844 15.066407 21.03125 23.03125 45.867187 23.03125 71.824219 0 68.078125-55.386719 123.464844-123.464843 123.464844-15.425782 0-30.359376-2.785157-44.515626-8.273438 1.207032-1.339844 2.40625-2.75 3.585938-4.25 1.101562-1.402344 2.1875-2.871094 3.246094-4.382812 12.066406 4.273437 24.714844 6.441406 37.683594 6.441406 21.570312 0 42.546874-6.105469 60.660156-17.652344 3.496094-2.226562 4.523437-6.863281 2.292968-10.355469-2.226562-3.492187-6.863281-4.519531-10.351562-2.292969-15.703125 10.011719-33.890625 15.300782-52.601562 15.300782-10.199219 0-20.160157-1.546875-29.722657-4.589844 6.488281-12.375 11.144531-26.035156 13.0625-38.597656 2.898438-18.980469-.714843-33.054688-10.441406-40.699219-8.679687-6.820313-21.394531-7.679687-36.769531-2.488281-3.925782 1.324218-6.03125 5.582031-4.707032 9.503906 1.324219 3.925781 5.578126 6.03125 9.503907 4.707031 10.203125-3.441406 18.265625-3.417969 22.703125.070313 10.761718 8.457031 5.695312 40.941406-10.378906 67.125-.195313.273437-.375.558594-.535157.863281-1.734375 2.773437-3.558593 5.390625-5.4375 7.78125-7.847656 9.984375-15.546875 14.855469-23.542969 14.894531-.03125 0-.066406 0-.097656 0-6.730468 0-14.300781-3.378906-23.144531-10.328125-8.886719-6.984375-13.964844-13.570312-15.53125-20.140625-1.851563-7.777344 1.0625-16.414062 8.910156-26.402344 1.941407-2.46875 4.136719-4.953124 6.53125-7.386718 3.847657-3.921875 8.164063-7.699219 12.828125-11.226563 3.304688-2.496093 3.960938-7.199219 1.464844-10.503906-2.046875-2.707031-5.570312-3.632813-8.597656-2.507813-2.707032-9.066406-4.097656-18.476562-4.097656-28.074218 0-54.039063 43.960937-98 98-98 54.035156 0 98 43.960937 98 98 0 22.828125-8.023438 45.054687-22.589844 62.585937-2.648438 3.1875-2.210938 7.914063.976562 10.5625 1.398438 1.164063 3.097656 1.730469 4.789063 1.730469 2.148437 0 4.285156-.921875 5.769531-2.707031 16.800781-20.214844 26.054688-45.847657 26.054688-72.171875 0-62.308594-50.691407-113-113-113-62.308594 0-113 50.691406-113 113 0 13.074218 2.210937 25.859375 6.570312 38.046875-1.328125 1.238281-2.625 2.488281-3.871094 3.757812-1.457031 1.480469-2.851562 2.988281-4.183594 4.503907-5.957031-14.664063-8.984374-30.199219-8.984374-46.308594 0-68.078125 55.390624-123.46875 123.46875-123.46875 29.066406 0 57.304687 10.304687 79.507812 29.015625 3.167969 2.667969 7.898438 2.265625 10.566406-.902344 2.667969-3.167969 2.265625-7.898437-.902344-10.566406-24.902343-20.988281-56.570312-32.542969-89.171874-32.542969-76.351563 0-138.46875 62.113281-138.46875 138.464844 0 21.199218 4.671874 41.519531 13.863281 60.429687-5.546875 10.078125-7.238281 19.847657-5.023438 29.148438.039063.15625.085938.3125.125.46875-2.105469 1.558593-3.992187 3.386719-5.632812 5.476562-9.933594 12.636719-7.925781 31.160157 4 43.253907-2.375 17.4375-9.351563 33.933593-20.28125 47.839843-11.382813 14.488281-26.515625 25.488281-43.753907 31.8125-19.855468 7.28125-37.277343 19.949219-50.386718 36.625-13.109375 16.679688-21.296875 36.605469-23.679688 57.617188-.46875 4.113281 2.492188 7.828125 6.605469 8.296875.289063.03125.574219.046875.855469.046875 3.761718 0 7.007812-2.824219 7.441406-6.652344 2.070312-18.246094 9.183594-35.546875 20.570312-50.035156 11.386719-14.492188 26.519532-25.492188 43.757813-31.816407 19.851563-7.28125 37.277344-19.945312 50.382813-36.625 11.136718-14.171874 18.707031-30.691406 22.199218-48.226562 3.933594 1.453125 8.0625 2.214844 12.222656 2.214844.742188 0 1.488282-.023438 2.234376-.070313 9.023437-.589843 16.941406-4.664062 22.292968-11.476562 1.640625-2.085938 2.96875-4.351563 3.988282-6.765625.105468 0 .214843.007812.320312.007812h.167969c6.515625-.027344 12.808593-1.886718 18.84375-5.515625 18.054687 8.230469 37.34375 12.414063 57.351562 12.414063 76.355469 0 138.46875-62.117188 138.46875-138.46875zm-230.929687 129.058594c-2.683594 3.414062-6.761719 5.464843-11.480469 5.773437-5.015625.328125-10.125-1.328125-14.367187-4.660156-8.515626-6.691407-10.769532-18.078125-5.03125-25.378907.199218-.253906.417968-.484374.632812-.71875 3.460938 4.734376 8.089844 9.367188 13.933594 13.960938s11.4375 7.992188 16.859375 10.238281c-.179688.265625-.347657.53125-.546875.785157zm0 0"/><path d="m384.4375 128.183594c0-19.847656-16.0625-35.992188-35.808594-35.992188-19.742187 0-35.808594 16.148438-35.808594 35.992188s16.0625 35.988281 35.808594 35.988281 35.808594-16.144531 35.808594-35.988281zm-35.808594 20.988281c-11.472656 0-20.808594-9.417969-20.808594-20.988281 0-11.574219 9.335938-20.992188 20.808594-20.992188 11.476563 0 20.808594 9.417969 20.808594 20.992188 0 11.570312-9.332031 20.988281-20.808594 20.988281zm0 0"/><path d="m367.246094 304.003906c-6.597656-11.667968-14.113282-14.117187-19.253906-14.117187-5.140626 0-12.652344 2.449219-19.25 14.117187-3.882813 6.867188-6.644532 15.652344-7.574219 24.09375-.222657 2.015625-.335938 3.992188-.335938 5.886719 0 9.480469 2.894531 16.585937 8.597657 21.113281 3.644531 2.894532 8.296874 4.570313 14.097656 5.128906 3.089844 6.046876 4.722656 12.75 4.722656 19.597657 0 8.003906-2.214844 15.824219-6.40625 22.609375-5.652344 9.15625-8.640625 19.699218-8.640625 30.492187 0 10.789063 2.988281 21.335938 8.640625 30.488281 1.421875 2.296876 3.875 3.5625 6.390625 3.5625 1.34375 0 2.707031-.359374 3.933594-1.117187 3.523437-2.179687 4.617187-6.800781 2.441406-10.324219-4.191406-6.785156-6.40625-14.601562-6.40625-22.609375 0-8.007812 2.214844-15.824219 6.40625-22.613281 5.652344-9.15625 8.640625-19.699219 8.640625-30.488281 0-7.210938-1.339844-14.308594-3.914062-20.960938 2.746093-.882812 5.152343-2.121093 7.226562-3.765625 5.703125-4.527344 8.597656-11.632812 8.597656-21.113281 0-1.902344-.113281-3.882813-.335937-5.878906-.933594-8.449219-3.695313-17.234375-7.578125-24.101563zm-19.253906 41.449219c-9.433594 0-12.160157-2.574219-12.160157-11.46875 0-1.34375.082031-2.765625.246094-4.238281 1.550781-14.113282 8.851563-24.859375 11.914063-24.859375s10.367187 10.746093 11.917968 24.871093c.164063 1.453126.246094 2.875.246094 4.226563 0 8.894531-2.726562 11.46875-12.164062 11.46875zm0 0"/><path d="m507.503906 398.1875c-7.304687-3.195312-13.574218-8.367188-18.128906-14.953125-4.550781-6.585937-7.179688-14.277344-7.589844-22.242187-.558594-10.742188-4.097656-21.117188-10.234375-29.992188-4.097656-5.925781-9.234375-11-15.125-15.003906 1.757813-2.289063 3.015625-4.683594 3.785157-7.214844 2.117187-6.96875.457031-14.457031-4.9375-22.257812-1.082032-1.5625-2.300782-3.125-3.621094-4.644532-5.566406-6.421875-12.835938-12.074218-19.9375-15.515625-12.0625-5.847656-19.636719-3.585937-23.863282-.664062-4.230468 2.925781-9.015624 9.210937-7.804687 22.5625.710937 7.855469 3.4375 16.652343 7.472656 24.125.960938 1.785156 1.996094 3.476562 3.070313 5.03125 5.394531 7.800781 11.8125 12 19.078125 12.480469.460937.027343.921875.042968 1.386719.042968 4.210937 0 8.546874-1.277344 13.132812-3.839844 5.976562 3.214844 11.128906 7.796876 15.023438 13.429688 4.554687 6.585938 7.179687 14.273438 7.59375 22.238281.558593 10.746094 4.097656 21.121094 10.234374 29.996094 6.136719 8.875 14.589844 15.847656 24.449219 20.164063.976563.429687 2 .632812 3.003907.632812 2.886718 0 5.640624-1.679688 6.871093-4.496094 1.664063-3.792968-.066406-8.214844-3.859375-9.878906zm-76.847656-83.257812c-2.46875-.164063-5.066406-2.195313-7.730469-6.046876-.761719-1.101562-1.5-2.316406-2.203125-3.621093-6.75-12.488281-6.859375-25.480469-4.339844-27.222657.34375-.238281.863282-.355468 1.53125-.355468 4.230469 0 14.371094 4.761718 22.414063 14.035156.964844 1.105469 1.84375 2.226562 2.605469 3.335938 2.660156 3.84375 3.644531 6.996093 2.925781 9.363281-.652344 2.148437-2.808594 4.5-6.40625 6.984375-3.59375 2.488281-6.546875 3.671875-8.796875 3.527344zm0 0"/><path d="m283.839844 282.554688c-4.914063-1.515626-12.816406-1.378907-22.550782 7.832031-5.734374 5.421875-10.957031 13.007812-14.324218 20.796875-.804688 1.855468-1.496094 3.714844-2.054688 5.527344-2.789062 9.066406-2.113281 16.707031 2.007813 22.710937 2.632812 3.835937 6.585937 6.808594 11.964843 9.046875 1.175782 6.6875.765626 13.574219-1.25 20.121094-2.351562 7.648437-6.769531 14.472656-12.769531 19.726562-8.097656 7.089844-14.054687 16.285156-17.226562 26.601563-3.175781 10.316406-3.417969 21.269531-.707031 31.683593.875 3.378907 3.917968 5.613282 7.25 5.613282.625 0 1.261718-.078125 1.894531-.242188 4.011719-1.042968 6.414062-5.140625 5.371093-9.148437-2.011718-7.71875-1.828124-15.84375.527344-23.492188 2.355469-7.652343 6.769532-14.476562 12.773438-19.730469 8.09375-7.089843 14.050781-16.285156 17.226562-26.601562 2.117188-6.886719 2.921875-14.0625 2.421875-21.167969 2.882813-.039062 5.546875-.527343 8.011719-1.488281 6.78125-2.648438 11.636719-8.589844 14.425781-17.648438.558594-1.816406 1.03125-3.742187 1.40625-5.722656 1.597657-8.347656 1.542969-17.554687-.148437-25.261718-2.875-13.09375-9.335938-17.644532-14.25-19.15625zm-.335938 41.613281c-.273437 1.441406-.613281 2.824219-1.007812 4.109375v.003906c-1.375 4.464844-3.242188 7.1875-5.546875 8.089844-2.09375.816406-5.273438.578125-9.449219-.707032-9.019531-2.773437-10.871094-6.035156-8.253906-14.539062.394531-1.285156.894531-2.621094 1.480468-3.976562 5.351563-12.375 14.761719-20.324219 18.203126-20.324219.183593 0 .351562.023437.5.066406 2.925781.902344 6.742187 13.320313 4.074218 27.277344zm0 0"/><path d="m56.71875 286.164062c6.34375-4.882812 13.886719-7.898437 21.820312-8.722656 10.703126-1.105468 20.882813-5.171875 29.429688-11.757812 5.710938-4.394532 10.511719-9.78125 14.210938-15.871094 2.375 1.636719 4.832031 2.773438 7.398437 3.410156 1.640625.40625 3.292969.609375 4.964844.609375 5.535156 0 11.238281-2.234375 17.011719-6.679687 0-.003906 0-.003906.003906-.003906 1.507812-1.164063 3.007812-2.460938 4.449218-3.851563 6.125-5.890625 11.402344-13.4375 14.476563-20.707031 5.21875-12.34375 2.574219-19.792969-.5625-23.867188-3.136719-4.070312-9.664063-8.53125-22.933594-6.636718-7.8125 1.113281-16.457031 4.285156-23.707031 8.695312-1.726562 1.046875-3.363281 2.167969-4.871094 3.328125-7.515625 5.785156-11.378906 12.410156-11.484375 19.691406-.066406 4.660157 1.421875 9.378907 4.527344 14.320313-2.902344 6.128906-7.214844 11.503906-12.632813 15.675781-6.34375 4.886719-13.890624 7.902344-21.820312 8.722656-10.707031 1.109375-20.882812 5.175781-29.433594 11.757813-8.550781 6.585937-15.082031 15.386718-18.886718 25.449218-1.464844 3.875.488281 8.203126 4.363281 9.667969.875.332031 1.769531.488281 2.652343.488281 3.027344 0 5.882813-1.851562 7.015626-4.851562 2.820312-7.457031 7.664062-13.980469 14.007812-18.867188zm70.84375-70.167968c1.066406-.824219 2.246094-1.625 3.507812-2.390625 8.203126-4.996094 16.796876-6.964844 22.074219-6.964844 2.519531 0 4.289063.453125 4.890625 1.238281 1.871094 2.425782-2.191406 14.765625-12.433594 24.613282-1.050781 1.015624-2.128906 1.949218-3.199218 2.777343-7.046875 5.421875-10.75 4.832031-16.507813-2.640625-2.667969-3.464844-4.003906-6.359375-3.96875-8.605468.035157-2.476563 1.933594-5.175782 5.636719-8.027344zm0 0"/><path d="m34.015625 138.375c7.992187.425781 15.683594 3.050781 22.238281 7.59375 8.839844 6.132812 19.210938 9.679688 29.988282 10.25 1.035156.058594 2.070312.082031 3.101562.082031 6.152344 0 12.234375-.972656 18.039062-2.871093.734376 2.785156 1.84375 5.253906 3.375 7.410156 4.21875 5.9375 11.15625 9.203125 20.628907 9.707031.878906.046875 1.773437.070313 2.683593.070313 1.054688 0 2.125-.03125 3.203126-.09375 8.484374-.480469 17.40625-2.773438 24.46875-6.285157 12.003906-5.96875 14.847656-13.339843 15.121093-18.476562.273438-5.132813-1.773437-12.765625-13.074219-19.972657-6.652343-4.246093-15.277343-7.46875-23.65625-8.84375-1.984374-.328124-3.957031-.546874-5.863281-.648437-9.460937-.503906-16.714843 2.007813-21.539062 7.464844-3.082031 3.484375-5.003907 8.042969-5.871094 13.804687-6.195313 2.765625-12.972656 4.039063-19.816406 3.671875-7.996094-.425781-15.6875-3.050781-22.242188-7.597656-8.84375-6.128906-19.214843-9.671875-29.988281-10.246094-10.777344-.578125-21.464844 1.851563-30.90625 7.007813-3.636719 1.988281-4.972656 6.542968-2.988281 10.179687 1.988281 3.636719 6.542969 4.96875 10.179687 2.984375 6.996094-3.820312 14.925782-5.613281 22.917969-5.191406zm87.359375 4.4375c.5-9.421875 3.207031-12.007812 12.097656-11.535156 1.347656.070312 2.765625.226562 4.21875.46875 14.011719 2.300781 24.355469 10.164062 24.191406 13.21875-.164062 3.058594-11.28125 9.78125-25.46875 10.582031-1.460937.082031-2.886718.089844-4.230468.019531-8.886719-.472656-11.308594-3.332031-10.808594-12.753906zm0 0"/><path d="m328.140625 72.621094c0-4.144532-3.359375-7.5-7.5-7.5h-.09375c-4.144531 0-7.453125 3.355468-7.453125 7.5 0 4.140625 3.402344 7.5 7.546875 7.5 4.140625 0 7.5-3.359375 7.5-7.5zm0 0"/><path d="m286.011719 69.246094-.09375.003906c-4.140625.042969-7.417969 3.433594-7.375 7.574219.042969 4.117187 3.4375 7.421875 7.546875 7.421875h.078125c4.144531-.042969 7.464843-3.4375 7.421875-7.578125-.042969-4.113281-3.394532-7.421875-7.496094-7.421875-.027344 0-.054688 0-.082031 0zm0 0"/><path d="m347.011719 185.226562-.089844.003907c-4.144531.042969-7.417969 3.4375-7.375 7.578125.042969 4.113281 3.4375 7.417968 7.542969 7.417968h.082031c4.140625-.042968 7.464844-3.4375 7.421875-7.578124-.046875-4.113282-3.394531-7.421876-7.5-7.421876-.027344 0-.054688 0-.082031 0zm0 0"/></svg>