<svg id="Capa_1" enable-background="new 0 0 511.985 511.985" height="512" viewBox="0 0 511.985 511.985" width="512" xmlns="http://www.w3.org/2000/svg"><g><path d="m7.5 235.876c4.143 0 7.5-3.358 7.5-7.5v-23.561c0-74.225 60.386-134.611 134.61-134.611h13.391c4.143 0 7.5-3.358 7.5-7.5s-3.357-7.5-7.5-7.5h-13.391c-82.495 0-149.61 67.115-149.61 149.61v23.561c0 4.143 3.357 7.501 7.5 7.501z"/><path d="m508.694 71.771c-5.173-10.219-15.508-16.567-26.971-16.567h-161.306v-35.011c0-6.892-5.607-12.5-12.5-12.5h-25c-6.893 0-12.5 5.607-12.5 12.5v35.011h-10.417v-35.011c0-6.892-5.607-12.5-12.5-12.5h-25c-6.893 0-12.5 5.607-12.5 12.5v35.011h-14.313c-4.143 0-7.5 3.358-7.5 7.5s3.357 7.5 7.5 7.5h123.703c-13.715 27.892-21.276 55.275-22.48 81.551-1.179 25.741 3.714 51.162 14.513 75.682-4.841 2.179-9.802 4.373-14.905 6.585-20.491 8.885-37.589 23.566-49.444 42.454-21.546 34.325-47.443 61.384-76.972 80.424-29.417 18.968-63.503 30.66-101.313 34.751-13.63 1.477-27.324-2.949-37.563-12.141-10.312-9.255-16.226-22.508-16.226-36.359v-82.089c0-4.142-3.357-7.5-7.5-7.5s-7.5 3.358-7.5 7.5v82.089c0 18.104 7.729 35.425 21.205 47.522 11.707 10.508 26.866 16.257 42.418 16.257 2.254 0 4.518-.121 6.778-.366 40.153-4.345 76.432-16.813 107.829-37.058 8.884-5.728 17.439-12.152 25.672-19.205 10.667 8.763 23.888 13.534 37.926 13.534 8.729 0 17.146-1.848 24.881-5.39.039 35.615-8.879 75.162-26.574 117.61-3.627 8.7.46 18.882 9.109 22.698l9.15 4.037c2.268 1 4.665 1.501 7.066 1.501 2.198 0 4.4-.42 6.508-1.262 4.39-1.754 7.808-5.118 9.623-9.471 11.881-28.475 20.359-56.307 25.2-82.723.747-4.075-1.951-7.982-6.025-8.729-4.068-.746-7.981 1.95-8.728 6.025-4.648 25.365-12.82 52.163-24.29 79.651-.322.773-.909 1.142-1.345 1.317-.369.146-1.114.337-1.955-.034l-9.149-4.036c-1.236-.545-1.827-1.982-1.318-3.203 18.868-45.266 28.2-87.62 27.735-125.886-.338-27.828-5.932-54.416-16.612-79.104 3.342-4.327 7.028-8.342 11.034-12.004 13.255 28.205 20.187 58.741 20.578 90.925.082 6.78-.128 13.767-.624 20.766-.292 4.132 2.819 7.718 6.951 8.011.181.013.359.019.538.019 3.9 0 7.193-3.02 7.474-6.971.524-7.41.747-14.814.659-22.007-.431-35.501-8.309-69.157-23.425-100.147 4.479-2.92 9.216-5.488 14.194-7.647 46.604-20.209 82.299-38.958 112.332-59.006 37.714-25.174 67.559-53.08 91.239-85.313 6.824-9.283 7.835-21.427 2.64-31.691zm-293.542 268.291c14.446-13.963 27.761-30.058 39.828-48.201 5.9 15.905 9.6 32.606 11.049 49.909-7.212 4.632-15.5 7.066-24.199 7.066-9.767 0-19.006-3.081-26.678-8.774zm70.265-317.369h20v32.511h-20zm-60.417 0h20v32.511h-20zm268.968 71.891c-22.629 30.801-51.243 57.531-87.479 81.719-22.864 15.261-49.192 29.794-81.433 44.882-20.938-47.582-17.268-97.09 11.171-150.981h145.498c5.864 0 10.943 3.118 13.587 8.342 2.666 5.268 2.164 11.263-1.344 16.038z"/><path d="m66.555 340.796c-4.142 0-7.5 3.358-7.5 7.5 0 4.142 3.358 7.5 7.5 7.5s7.5-3.358 7.5-7.5c0-4.142-3.358-7.5-7.5-7.5z"/><path d="m91.537 331.595c0 4.142 3.358 7.5 7.5 7.5s7.5-3.358 7.5-7.5c0-4.142-3.358-7.5-7.5-7.5-4.143.001-7.5 3.358-7.5 7.5z"/><path d="m74.055 312.47c0-4.142-3.358-7.5-7.5-7.5s-7.5 3.358-7.5 7.5c0 4.142 3.358 7.5 7.5 7.5s7.5-3.358 7.5-7.5z"/></g></svg>