<svg id="Line" height="512" viewBox="0 0 64 64" width="512" xmlns="http://www.w3.org/2000/svg"><path d="m41.25977 24.29523v-4.70539a3.7516 3.7516 0 0 0 -3.39991-3.72338v-1.22681a3.069 3.069 0 0 1 1.92676-2.8291l3.33545-1.31543a2.369 2.369 0 0 0 1.51807-2.21485v-1.90039a2.3827 2.3827 0 0 0 -2.38037-2.37988h-12.31983a4.7554 4.7554 0 0 0 -4.75 4.75v7.15393a3.764 3.764 0 0 0 -3.02978 3.68591v4.689a3.99239 3.99239 0 0 0 -3.71534 3.97116s.01921 25.689-.00005 25.7501a6.00662 6.00662 0 0 0 6.00005 5.9999h14.36768a6.00657 6.00657 0 0 0 6-6v-25.75a3.99119 3.99119 0 0 0 -3.55273-3.95477zm-11.31983-18.29523h12.31983a.37611.37611 0 0 1 .38037.37988v1.90039a.36073.36073 0 0 1 -.23682.34864l-3.352 1.32129a5.02141 5.02141 0 0 0 -3.19141 4.68945v1.19043h-8.66997v-7.08008a2.75311 2.75311 0 0 1 2.75-2.75zm-4.02 11.83008h11.58006a1.76161 1.76161 0 0 1 1.75977 1.75976v4.66016h-15.09961v-4.66016a1.7616 1.7616 0 0 1 1.75976-1.75976zm-3.47512 8.41992h18.36768a2.00229 2.00229 0 0 1 2 2v3.01953h-22.36768v-3.01953a2.0023 2.0023 0 0 1 2-2zm16.36768 31.75h-14.36768a4.00428 4.00428 0 0 1 -4-4v-20.73047h22.36768v20.73047a4.00427 4.00427 0 0 1 -4 4z" fill="rgb(0,0,0)"/></svg>