<?xml version="1.0" encoding="iso-8859-1"?>
<!-- Generator: Adobe Illustrator 19.0.0, SVG Export Plug-In . SVG Version: 6.00 Build 0)  -->
<svg version="1.1" id="Capa_1" xmlns="http://www.w3.org/2000/svg" xmlns:xlink="http://www.w3.org/1999/xlink" x="0px" y="0px"
	 viewBox="0 0 512 512" style="enable-background:new 0 0 512 512;" xml:space="preserve">
<g>
	<g>
		<path d="M307.2,341.333c-28.228,0-51.2-22.963-51.2-51.2c0-28.237,22.972-51.2,51.2-51.2c4.71,0,8.533-3.823,8.533-8.533
			s-3.823-8.533-8.533-8.533c-37.641,0-68.267,30.626-68.267,68.267c0,37.641,30.626,68.267,68.267,68.267
			c4.71,0,8.533-3.823,8.533-8.533S311.91,341.333,307.2,341.333z"/>
	</g>
</g>
<g>
	<g>
		<path d="M266.778,156.245c-23.868-6.852-49.604-0.205-67.149,17.348c-12.894,12.894-19.994,30.037-19.994,48.273
			s7.1,35.379,19.994,48.273c1.664,1.664,3.849,2.5,6.033,2.5c2.176,0,4.369-0.836,6.033-2.5c3.337-3.337,3.337-8.73,0-12.066
			c-9.668-9.677-14.993-22.528-14.993-36.207s5.325-26.539,14.993-36.207c13.158-13.175,32.461-18.176,50.372-13.005
			c4.54,1.297,9.259-1.323,10.556-5.854C273.929,162.278,271.309,157.542,266.778,156.245z"/>
	</g>
</g>
<g>
	<g>
		<path d="M457.873,351.94c-3.337-3.337-8.738-3.337-12.066,0c-9.677,9.668-22.528,14.993-36.207,14.993
			c-13.679,0-26.53-5.325-36.207-14.993c-9.668-9.677-14.993-22.528-14.993-36.207s5.325-26.53,14.993-36.207
			c3.337-3.337,3.337-8.73,0-12.066c-3.328-3.337-8.73-3.337-12.066,0c-12.894,12.894-19.994,30.037-19.994,48.273
			c0,18.236,7.1,35.379,19.994,48.273S391.364,384,409.6,384c18.236,0,35.379-7.1,48.273-19.994
			C461.21,360.67,461.21,355.277,457.873,351.94z"/>
	</g>
</g>
<g>
	<g>
		<path d="M432.273,207.727c-12.894-12.894-30.037-19.994-48.273-19.994c-18.236,0-35.379,7.1-48.273,19.994
			c-3.336,3.337-3.337,8.73,0,12.066s8.738,3.337,12.066,0C357.47,210.125,370.321,204.8,384,204.8
			c13.679,0,26.53,5.325,36.198,14.993c12.988,12.979,18.031,32.051,13.175,49.783c-1.246,4.548,1.425,9.242,5.973,10.487
			c0.759,0.205,1.519,0.307,2.261,0.307c3.755,0,7.194-2.492,8.226-6.281C456.312,250.462,449.579,225.033,432.273,207.727z"/>
	</g>
</g>
<g>
	<g>
		<path d="M393.336,156.442c-12.894-12.894-30.037-19.994-48.273-19.994c-18.236,0-35.379,7.1-48.273,19.994
			c-3.337,3.336-3.337,8.73,0,12.066c3.337,3.337,8.738,3.337,12.066,0c9.677-9.668,22.528-14.993,36.207-14.993
			c13.679,0,26.539,5.325,36.207,14.993c1.664,1.664,3.849,2.5,6.033,2.5s4.361-0.836,6.033-2.5
			C396.672,165.171,396.672,159.778,393.336,156.442z"/>
	</g>
</g>
<g>
	<g>
		<path d="M167.305,242.287c-12.894-12.894-30.037-19.994-48.273-19.994c-18.236,0-35.379,7.1-48.273,19.994
			c-3.337,3.337-3.337,8.73,0,12.066c3.336,3.337,8.738,3.337,12.066,0c9.677-9.668,22.528-14.993,36.207-14.993
			c13.679,0,26.539,5.325,36.207,14.993c9.668,9.677,14.993,22.528,14.993,36.207s-5.325,26.539-14.993,36.207
			c-3.337,3.337-3.337,8.73,0,12.066c1.664,1.664,3.849,2.5,6.033,2.5c2.185,0,4.369-0.836,6.033-2.5
			c12.894-12.894,19.994-30.037,19.994-48.273C187.298,272.324,180.198,255.181,167.305,242.287z"/>
	</g>
</g>
<g>
	<g>
		<path d="M512,238.933c0-41.839-31.121-77.713-71.902-84.215c-12.186-40.593-54.076-67.755-97.707-59.273
			c-16.034-22.477-41.515-35.712-69.325-35.712c-35.089,0-66.458,21.897-79.224,53.7c-16.341-12.698-36.258-19.567-57.31-19.567
			c-49.741,0-90.726,39.108-93.679,88.201C16.29,197.291,0,225.169,0,256c0,43.042,32.222,79.113,74.359,84.54
			c13.764,36.429,48.35,60.527,87.774,60.527c16.444,0,32.384-4.258,46.541-12.373c11.981,13.85,27.887,23.356,45.807,27.315
			c14.788,37.205,50.79,61.858,91.119,61.858c32.845,0,62.882-16.068,81.212-43.196c43.332-4.378,76.655-40.798,76.655-84.804
			c0-18.227-5.854-35.849-16.614-50.466C502.929,283.435,512,261.837,512,238.933z M421.513,417.954
			c-2.816,0.145-5.376,1.655-6.852,4.062c-14.899,24.286-40.721,38.784-69.06,38.784c-34.705,0-65.527-22.11-76.706-55.006
			c-1.015-2.995-3.601-5.18-6.724-5.683c-18.091-2.91-33.929-12.749-44.621-27.691c-1.664-2.321-4.284-3.567-6.946-3.567
			c-1.673,0-3.362,0.486-4.847,1.51C192.87,379.29,177.783,384,162.133,384c-33.835,0-63.317-21.692-73.353-53.973
			c-1.05-3.388-4.087-5.768-7.629-5.982C45.218,321.86,17.067,291.977,17.067,256c0-26.044,14.541-49.451,37.956-61.09
			c2.884-1.434,4.719-4.378,4.736-7.595c0.222-42.121,34.671-76.382,76.774-76.382c21.052,0,40.713,8.405,55.373,23.671
			c2.176,2.27,5.444,3.157,8.474,2.304c3.029-0.862,5.342-3.319,6.016-6.4c6.758-31.121,34.799-53.709,66.671-53.709
			c23.902,0,45.653,12.237,58.214,32.734c1.971,3.234,5.837,4.762,9.481,3.789c38.554-10.317,76.1,14.43,84.233,51.004
			c0.802,3.635,3.883,6.332,7.595,6.647c34.961,3.004,62.345,32.853,62.345,67.959c0,20.608-9.19,39.902-25.207,52.941
			c-1.818,1.476-2.944,3.635-3.123,5.965c-0.179,2.338,0.606,4.634,2.176,6.374c11.358,12.595,17.621,28.809,17.621,45.653
			C486.4,386.261,457.899,416.171,421.513,417.954z"/>
	</g>
</g>
<g>
	<g>
		<path d="M430.404,425.421c-0.58-4.676-4.847-8.03-9.515-7.415c-48.017,5.956-71.356-28.544-72.397-30.123
			c-2.56-3.942-7.825-5.069-11.784-2.517s-5.103,7.834-2.543,11.793c1.101,1.698,25.549,38.613,75.597,38.613
			c4.224,0,8.636-0.256,13.227-0.836C427.665,434.355,430.985,430.097,430.404,425.421z"/>
	</g>
</g>
<g>
	<g>
		<path d="M200.038,120.397c-4.574-1.109-9.182,1.724-10.283,6.306c-0.171,0.7-4.13,17.357-4.685,31.898
			c-0.179,4.719,3.49,8.678,8.201,8.858c0.111,0.009,0.222,0.009,0.333,0.009c4.565,0,8.346-3.61,8.525-8.209
			c0.486-12.834,4.19-28.425,4.224-28.578C207.445,126.097,204.621,121.489,200.038,120.397z"/>
	</g>
</g>
<g>
	<g>
		<path d="M95.215,170.769c-26.3-4.181-47.565,8.678-48.461,9.233c-4.002,2.458-5.248,7.689-2.799,11.699
			c1.604,2.637,4.42,4.087,7.296,4.087c1.502,0,3.029-0.401,4.42-1.237c0.162-0.102,16.973-10.095,36.855-6.921
			c4.651,0.725,9.028-2.44,9.771-7.091C103.04,175.889,99.866,171.511,95.215,170.769z"/>
	</g>
</g>
<g>
	<g>
		<path d="M441.822,161.707c-0.427-4.702-4.557-8.09-9.267-7.731c-4.702,0.427-8.158,4.574-7.731,9.267
			c0.009,0.111,0.939,10.462,1.015,19.703c0.043,4.685,3.857,8.456,8.533,8.456c0.026,0,0.043,0,0.085,0.009
			c4.71-0.043,8.499-3.9,8.457-8.61C442.829,172.877,441.865,162.159,441.822,161.707z"/>
	</g>
</g>
<g>
	<g>
		<path d="M235.17,335.607c-4.634-0.87-9.088,2.202-9.95,6.835c-1.57,8.439-13.363,22.093-20.429,28.706
			c-3.439,3.226-3.618,8.627-0.401,12.066c1.673,1.801,3.951,2.705,6.229,2.705c2.082,0,4.173-0.768,5.828-2.295
			c2.296-2.142,22.468-21.384,25.557-38.067C242.867,340.924,239.804,336.469,235.17,335.607z"/>
	</g>
</g>
<g>
	<g>
		<path d="M290.526,401.357l-29.321-1.348c-4.736-0.068-8.704,3.43-8.917,8.132c-0.213,4.71,3.422,8.704,8.132,8.917l29.32,1.348
			c0.137,0.009,0.273,0.009,0.401,0.009c4.531,0,8.303-3.567,8.516-8.141C298.871,405.564,295.236,401.57,290.526,401.357z"/>
	</g>
</g>
<g>
	<g>
		<path d="M89.079,311.049c0.657-4.668-2.586-8.986-7.253-9.643c-4.668-0.657-8.986,2.594-9.643,7.262
			c-2.202,15.582-0.085,24.909,0.162,25.924c0.947,3.883,4.42,6.468,8.252,6.468c0.657,0,1.323-0.077,1.98-0.239
			c4.565-1.075,7.39-5.658,6.357-10.223C88.917,330.522,87.347,323.345,89.079,311.049z"/>
	</g>
</g>
<g>
	<g>
		<path d="M481.476,292.907c-3.089-3.507-8.465-3.849-12.006-0.802c-0.085,0.068-8.644,7.27-33.084,15.829
			c-4.446,1.553-6.784,6.426-5.231,10.871c1.229,3.516,4.531,5.717,8.055,5.717c0.93,0,1.886-0.162,2.816-0.478
			c27.827-9.745,37.76-18.261,38.801-19.2C484.292,301.713,484.565,296.414,481.476,292.907z"/>
	</g>
</g>
<g>
	<g>
		<path d="M51.2,423.134L13.534,460.8L51.2,498.466L88.866,460.8L51.2,423.134z M37.666,460.8L51.2,447.266L64.734,460.8
			L51.2,474.334L37.666,460.8z"/>
	</g>
</g>
<g>
	<g>
		<path d="M51.2,409.6c-4.71,0-8.533,3.823-8.533,8.533V435.2c0,4.71,3.823,8.533,8.533,8.533s8.533-3.823,8.533-8.533v-17.067
			C59.733,413.423,55.91,409.6,51.2,409.6z"/>
	</g>
</g>
<g>
	<g>
		<path d="M93.867,452.267H76.8c-4.71,0-8.533,3.823-8.533,8.533s3.823,8.533,8.533,8.533h17.067c4.71,0,8.533-3.823,8.533-8.533
			S98.577,452.267,93.867,452.267z"/>
	</g>
</g>
<g>
	<g>
		<path d="M51.2,477.867c-4.71,0-8.533,3.823-8.533,8.533v17.067c0,4.71,3.823,8.533,8.533,8.533s8.533-3.823,8.533-8.533V486.4
			C59.733,481.69,55.91,477.867,51.2,477.867z"/>
	</g>
</g>
<g>
	<g>
		<path d="M25.6,452.267H8.533C3.823,452.267,0,456.09,0,460.8s3.823,8.533,8.533,8.533H25.6c4.71,0,8.533-3.823,8.533-8.533
			S30.31,452.267,25.6,452.267z"/>
	</g>
</g>
<g>
	<g>
		<path d="M503.467,42.667c-18.825,0-34.133-15.309-34.133-34.133c0-4.71-3.823-8.533-8.533-8.533s-8.533,3.823-8.533,8.533
			c0,18.825-15.309,34.133-34.133,34.133c-4.71,0-8.533,3.823-8.533,8.533s3.823,8.533,8.533,8.533
			c18.825,0,34.133,15.309,34.133,34.133c0,4.71,3.823,8.533,8.533,8.533s8.533-3.823,8.533-8.533
			c0-18.825,15.309-34.133,34.133-34.133c4.71,0,8.533-3.823,8.533-8.533S508.177,42.667,503.467,42.667z M460.8,65.596
			c-3.789-5.7-8.695-10.607-14.396-14.396c5.7-3.789,10.607-8.695,14.396-14.396c3.789,5.7,8.695,10.607,14.396,14.396
			C469.495,54.989,464.589,59.895,460.8,65.596z"/>
	</g>
</g>
<g>
</g>
<g>
</g>
<g>
</g>
<g>
</g>
<g>
</g>
<g>
</g>
<g>
</g>
<g>
</g>
<g>
</g>
<g>
</g>
<g>
</g>
<g>
</g>
<g>
</g>
<g>
</g>
<g>
</g>
</svg>
