<svg clip-rule="evenodd" fill-rule="evenodd" height="512" stroke-linejoin="round" stroke-miterlimit="2" viewBox="0 0 356 356" width="512" xmlns="http://www.w3.org/2000/svg"><g id="Exp-2.-O"><g><path d="m117.421 126.466v-65.355c0-3.068 2.487-5.555 5.555-5.555h66.667c3.068 0 5.556 2.487 5.556 5.555v65.355l1.246 2.493c1.371 2.743.258 6.083-2.484 7.454-2.743 1.371-6.083.258-7.454-2.485-1.186-2.372-1.833-3.666-1.833-3.666-.386-.771-.587-1.622-.587-2.484v-61.111h-55.555v61.111c0 .862-.201 1.713-.587 2.484 0 0-51.402 102.806-78.364 156.729-2.583 5.166-2.307 11.302.73 16.216 3.037 4.913 8.401 7.904 14.177 7.904h183.643c5.776 0 11.141-2.991 14.178-7.904 3.036-4.914 3.313-11.05.729-16.216-5.208-10.416-11.327-22.656-17.813-35.626-1.371-2.742-.258-6.082 2.485-7.453 2.742-1.372 6.082-.258 7.453 2.484 6.486 12.97 12.605 25.21 17.813 35.626 4.306 8.611 3.846 18.837-1.216 27.026-5.061 8.189-14.002 13.174-23.629 13.174-48.662 0-134.981 0-183.643 0-9.627 0-18.568-4.985-23.629-13.174s-5.521-18.415-1.216-27.026z"/><path d="m205.556 50c0-9.205-7.462-16.667-16.667-16.667-16.775 0-48.384 0-65.158 0-9.205 0-16.667 7.462-16.667 16.667s7.462 16.667 16.667 16.667h65.158c9.205 0 16.667-7.462 16.667-16.667zm-11.112 0c0 3.068-2.487 5.556-5.555 5.556-16.775 0-48.384 0-65.158 0-3.069 0-5.556-2.488-5.556-5.556s2.487-5.556 5.556-5.556h65.158c3.068 0 5.555 2.488 5.555 5.556z"/><path d="m97.976 183.333h90.913c3.066 0 5.555-2.489 5.555-5.555s-2.489-5.556-5.555-5.556h-90.913c-3.066 0-5.555 2.49-5.555 5.556s2.489 5.555 5.555 5.555z"/><path d="m116.667 205.556c-12.265 0-22.223 9.957-22.223 22.222s9.958 22.222 22.223 22.222c12.264 0 22.222-9.957 22.222-22.222s-9.958-22.222-22.222-22.222zm0 11.111c6.132 0 11.111 4.978 11.111 11.111 0 6.132-4.979 11.111-11.111 11.111-6.133 0-11.111-4.979-11.111-11.111 0-6.133 4.978-11.111 11.111-11.111z"/><path d="m169.444 238.889c-16.864 0-30.555 13.691-30.555 30.555 0 16.865 13.691 30.556 30.555 30.556 16.865 0 30.556-13.691 30.556-30.556 0-16.864-13.691-30.555-30.556-30.555zm0 11.111c10.732 0 19.445 8.713 19.445 19.444 0 10.732-8.713 19.445-19.445 19.445-10.731 0-19.444-8.713-19.444-19.445 0-10.731 8.713-19.444 19.444-19.444z"/><path d="m215.566 126.265c.37-6.816 3.242-13.278 8.093-18.129 5.21-5.209 12.275-8.136 19.642-8.136s14.433 2.927 19.642 8.136c4.852 4.851 7.723 11.313 8.094 18.129l3.008 1.737c6.088-3.087 13.12-3.831 19.747-2.055 7.116 1.906 13.183 6.562 16.867 12.942 3.683 6.38 4.682 13.962 2.775 21.078-1.776 6.627-5.936 12.345-11.653 16.074v3.474c5.717 3.729 9.877 9.446 11.653 16.073 1.907 7.116.908 14.699-2.775 21.079-3.684 6.38-9.751 11.035-16.867 12.942-6.627 1.776-13.659 1.032-19.747-2.055l-3.008 1.737c-.371 6.816-3.242 13.277-8.094 18.129-5.209 5.209-12.275 8.136-19.642 8.136s-14.432-2.927-19.642-8.136c-4.851-4.852-7.723-11.313-8.093-18.129l-3.009-1.737c-6.088 3.087-13.119 3.831-19.746 2.055-7.116-1.907-13.184-6.562-16.867-12.942-3.684-6.38-4.682-13.963-2.775-21.079 1.776-6.627 5.935-12.344 11.653-16.073v-3.474c-5.718-3.729-9.877-9.447-11.653-16.074-1.907-7.116-.909-14.698 2.775-21.078 3.683-6.38 9.751-11.036 16.867-12.942 6.627-1.776 13.658-1.032 19.746 2.055zm85.47 84.846c2.21-3.828 2.809-8.377 1.665-12.647s-3.937-7.91-7.765-10.12c-.932-.538-1.489-.859-1.489-.859-1.719-.993-2.777-2.827-2.777-4.812v-9.791c0-1.985 1.058-3.819 2.777-4.811 0 0 .557-.322 1.489-.859 3.828-2.211 6.621-5.851 7.765-10.121 1.144-4.269.545-8.818-1.665-12.647-2.21-3.828-5.85-6.621-10.12-7.765-4.269-1.144-8.819-.545-12.647 1.665-.931.538-1.488.859-1.488.859-1.719.993-3.837.993-5.556 0l-8.479-4.895c-1.719-.992-2.778-2.827-2.778-4.811 0 0 0-.644 0-1.719 0-4.42-1.756-8.66-4.882-11.785-3.125-3.126-7.364-4.882-11.785-4.882-4.42 0-8.659 1.756-11.785 4.882-3.125 3.125-4.881 7.365-4.881 11.785v1.719c0 1.984-1.059 3.819-2.778 4.811l-8.479 4.895c-1.719.993-3.837.993-5.556 0 0 0-.557-.321-1.489-.859-3.828-2.21-8.377-2.809-12.647-1.665-4.269 1.144-7.91 3.937-10.12 7.765-2.21 3.829-2.809 8.378-1.665 12.647 1.144 4.27 3.938 7.91 7.766 10.121.931.537 1.488.859 1.488.859 1.719.992 2.778 2.826 2.778 4.811v9.791c0 1.985-1.059 3.819-2.778 4.812 0 0-.557.321-1.488.859-3.828 2.21-6.622 5.85-7.766 10.12s-.545 8.819 1.665 12.647c0 0 0 2.778 0 0 2.21 3.828 5.851 6.621 10.12 7.766 4.27 1.144 8.819.545 12.647-1.665.932-.538 1.489-.86 1.489-.86 1.719-.992 3.837-.992 5.556 0l8.479 4.896c1.719.992 2.778 2.826 2.778 4.811v1.719c0 4.42 1.756 8.659 4.881 11.785 3.126 3.125 7.365 4.881 11.785 4.881 4.421 0 8.66-1.756 11.785-4.881 3.126-3.126 4.882-7.365 4.882-11.785v-1.719c0-1.985 1.059-3.819 2.778-4.811l8.479-4.896c1.719-.992 3.837-.992 5.556 0 0 0 .557.322 1.488.86 3.828 2.21 8.378 2.809 12.647 1.665 4.27-1.145 7.91-3.938 10.12-7.766zm-57.735-66.667c-18.397 0-33.333 14.937-33.333 33.334s14.936 33.333 33.333 33.333 33.334-14.936 33.334-33.333-14.937-33.334-33.334-33.334zm0 11.112c12.265 0 22.223 9.957 22.223 22.222s-9.958 22.222-22.223 22.222c-12.264 0-22.222-9.957-22.222-22.222s9.958-22.222 22.222-22.222z"/></g></g></svg>