<svg id="Capa_1" enable-background="new 0 0 512 512" height="512" viewBox="0 0 512 512" width="512" xmlns="http://www.w3.org/2000/svg"><g><path d="m380.563 462h-249.126c-14.183 0-27.979-5.876-37.854-16.122-28.139-29.196-93.583-108.095-93.583-209.914 0-10.907 5.469-20.953 14.628-26.873l25.372-16.399v-40.917c0-12.407 10.094-22.5 22.5-22.5h114.449c24.139-27.389 51.612-39.637 88.691-39.637 4.143 0 7.5 3.358 7.5 7.5s-3.357 7.5-7.5 7.5c-27.487 0-48.931 7.697-67.677 24.637h210.141c-7.476-25.158-29.931-50.868-55.162-62.725-16.191 17.837-34.302 29.103-55.214 34.376-4.015 1.011-8.094-1.422-9.106-5.438s1.422-8.093 5.438-9.106c19.631-4.95 35.869-15.665 51.103-33.718 2.076-2.459 5.488-3.321 8.48-2.142 33 12.997 62.11 46.115 69.989 78.753h25.868c12.406 0 22.5 10.093 22.5 22.5v40.917l25.372 16.399c9.154 5.918 14.623 15.918 14.628 26.752.016 30.659-5.907 61.769-17.604 92.465-1.475 3.87-5.805 5.814-9.68 4.338-3.87-1.475-5.813-5.808-4.338-9.679 10.073-26.435 15.61-53.141 16.495-79.503h-215.525c-4.143 0-7.5-3.358-7.5-7.5s3.357-7.5 7.5-7.5h213.934c-1.334-2.711-3.402-5.063-6.052-6.775l-26.942-17.414h-412.575l-26.942 17.414c-2.64 1.706-4.701 4.057-6.036 6.775h234.613c4.143 0 7.5 3.358 7.5 7.5s-3.357 7.5-7.5 7.5h-236.222c3.115 92.749 63.084 164.848 89.257 192.005 7.063 7.328 16.923 11.531 27.054 11.531h249.126c10.129 0 19.975-4.187 27.013-11.488 14.296-14.828 41.323-45.869 61.704-87.155 1.834-3.715 6.334-5.238 10.046-3.405 3.714 1.833 5.238 6.331 3.405 10.045-20.215 40.948-46.155 72.047-64.356 90.926-9.851 10.218-23.633 16.077-37.812 16.077zm-325.563-272.725h402v-37.5c0-4.135-3.364-7.5-7.5-7.5h-387c-4.136 0-7.5 3.365-7.5 7.5v7.5h379.5c4.143 0 7.5 3.358 7.5 7.5s-3.357 7.5-7.5 7.5h-379.5zm201 227.725c-28.632 0-51.925-23.293-51.925-51.924 0-23.023 12.854-50.347 40.454-85.989 2.767-3.573 6.948-5.623 11.471-5.623s8.704 2.049 11.471 5.622c27.6 35.643 40.454 62.966 40.454 85.989 0 28.632-23.293 51.925-51.925 51.925zm0-128.227c-24.845 32.182-36.925 57.146-36.925 76.303 0 20.36 16.565 36.924 36.925 36.924s36.925-16.564 36.925-36.924c0-19.157-12.08-44.12-36.925-76.303zm-.389-.502s.001 0 0 0c0-.001 0-.001 0 0z"/></g></svg>