<svg id="Capa_1" enable-background="new 0 0 512 512" height="512" viewBox="0 0 512 512" width="512" xmlns="http://www.w3.org/2000/svg"><g><path d="m318.085 167.51c-.892-18.964-16.438-34.593-35.394-35.58-9.897-.513-19.32 2.765-26.691 9.259-7.372-6.496-16.812-9.774-26.689-9.259-18.904.984-34.449 16.566-35.39 35.474-.656 13.217 5.493 25.527 16.408 32.901l38.012 26.043c2.291 1.569 4.975 2.354 7.659 2.354 2.685 0 5.369-.785 7.659-2.354l37.784-25.89c11.044-7.363 17.264-19.675 16.642-32.948zm-24.991 20.488c-.029.019-.058.039-.087.059l-37.007 25.356-37.233-25.509c-6.57-4.438-10.258-11.824-9.863-19.754.562-11.321 9.869-20.65 21.188-21.239.406-.021.811-.032 1.214-.032 5.766 0 11.195 2.153 15.4 6.133 5.21 4.933 13.376 4.935 18.59 0 4.5-4.259 10.412-6.426 16.615-6.102h.001c11.349.591 20.656 9.949 21.189 21.304.374 7.974-3.368 15.369-10.007 19.784z"/><path d="m360.372 6.723c-3.94-4.273-9.534-6.723-15.347-6.723h-128.203c-4.143 0-7.5 3.358-7.5 7.5s3.357 7.5 7.5 7.5h128.203c1.66 0 3.195.672 4.321 1.893s1.672 2.805 1.538 4.46l-29.53 364.997h-130.708l-29.531-364.997c-.134-1.655.412-3.239 1.538-4.46 1.127-1.221 2.661-1.893 4.322-1.893h13.847c4.143 0 7.5-3.358 7.5-7.5s-3.357-7.5-7.5-7.5h-13.847c-5.812 0-11.406 2.451-15.348 6.723-3.94 4.272-5.933 10.045-5.464 15.839l30.064 371.59v84.764c0 18.243 14.842 33.084 33.084 33.084h19.697c4.143 0 7.5-3.358 7.5-7.5s-3.357-7.5-7.5-7.5h-19.697c-9.972 0-18.084-8.112-18.084-18.084v-77.567h24.254v25.49c0 14.403 11.718 26.121 26.12 26.121h28.795c14.403 0 26.121-11.718 26.121-26.121v-25.49h24.254v77.567c0 9.972-8.112 18.084-18.084 18.084h-37.677c-4.143 0-7.5 3.358-7.5 7.5s3.357 7.5 7.5 7.5h37.679c18.242 0 33.084-14.841 33.084-33.084v-84.764l30.063-371.59c.469-5.793-1.523-11.567-5.464-15.839zm-78.853 420.116c0 6.132-4.989 11.121-11.121 11.121h-28.795c-6.132 0-11.12-4.989-11.12-11.121v-25.49h51.036z"/><path d="m289.019 265.043h-66.036c-4.143 0-7.5 3.358-7.5 7.5s3.357 7.5 7.5 7.5h66.036c4.143 0 7.5-3.358 7.5-7.5s-3.358-7.5-7.5-7.5z"/><path d="m289.019 302.443h-66.036c-4.143 0-7.5 3.358-7.5 7.5s3.357 7.5 7.5 7.5h66.036c4.143 0 7.5-3.358 7.5-7.5s-3.358-7.5-7.5-7.5z"/><path d="m333.991 44.539c0-4.142-3.357-7.5-7.5-7.5h-140.982c-4.143 0-7.5 3.358-7.5 7.5s3.357 7.5 7.5 7.5h140.982c4.143 0 7.5-3.358 7.5-7.5z"/></g></svg>