<svg clip-rule="evenodd" fill-rule="evenodd" height="512" image-rendering="optimizeQuality" shape-rendering="geometricPrecision" text-rendering="geometricPrecision" viewBox="0 0 173.397 173.397" width="512" xmlns="http://www.w3.org/2000/svg"><g id="Layer_x0020_1"><g id="_271553856"><path id="_271554984" d="m62.4543 103.409h-8.2061c-.5953 0-1.1491-.3168-1.4485-.8356-.2952-.5152-.296-1.1522 0-1.671l11.0221-19.0851c.4607-.7973 1.4795-1.0723 2.2803-.6127.8014.463 1.0757 1.4831.6126 2.2839l-9.5698 16.5783h5.3094c.9227 0 1.6703.7485 1.6703 1.6712.0012.9225-.7484 1.671-1.6703 1.671z"/><path id="_271554936" d="m65.7755 116.36c-.2852 0-.5717-.073-.8362-.2227-.7994-.4631-1.0722-1.4866-.6128-2.2839l9.5751-16.5785h-5.3093c-.9259 0-1.672-.7484-1.672-1.6709.0004-.9262.7449-1.6712 1.671-1.6712h8.2022c.6001 0 1.1488.3168 1.4483.8355.3002.5152.2994 1.1525 0 1.6711l-11.0188 19.0851c-.3086.5362-.8737.8355-1.4475.8355z"/><path id="_271554240" d="m85.3724 129.781v19.3532c0 5.9322 4.8245 10.761 10.7602 10.761h11.851c5.9329 0 10.7573-4.8288 10.7573-10.761l.0008-19.3532zm22.6112 33.4562h-11.85c-7.7782 0-14.1041-6.3256-14.1041-14.103l.0014-21.0242c0-.9226.747-1.6712 1.6695-1.6712h36.7128c.9261 0 1.6698.7486 1.6698 1.6712l.0003 21.0242c0 7.7774-6.3261 14.103-14.0997 14.103z"/><path id="_271554720" d="m158.008 143.358h-37.5944c-.9225 0-1.6723-.7486-1.6723-1.6711.0008-.9225.7486-1.671 1.6711-1.671h37.5956c1.0248 0 1.8869-.6615 1.8869-1.4483l.0012-7.3353c0-.7868-.8645-1.4518-1.8881-1.4518h-37.5944c-.9225 0-1.6723-.7485-1.6723-1.671.0008-.9226.7486-1.6712 1.6711-1.6712h37.5956c2.8828 0 5.229 2.1516 5.229 4.794l.0006 7.3353c0 2.6424-2.3472 4.7904-5.2296 4.7904z"/><path id="_271554072" d="m117.272 129.781c-.1802 0-.3623-.0278-.54-.087-.8731-.296-1.3403-1.2463-1.0445-2.1202 1.5078-4.4423.4212-7.9133-3.5163-11.2485-4.205-3.5649-5.0235-2.98-7.4397-1.2392-1.9556 1.4064-4.6301 3.3316-9.5808 3.826-4.4377.4457-5.2118 5.974-5.2812 9.2327-.0166.9121-.7623 1.6362-1.6678 1.6362-.0127 0-.0241 0-.0348 0-.9225-.0174-1.6571-.7833-1.6362-1.7059.1544-7.4257 3.1718-11.976 8.2857-12.4877 4.0603-.4038 6.1307-1.8974 7.9621-3.2134 3.3328-2.3988 5.7721-3.4988 11.5547 1.3995 4.9974 4.2369 6.4753 9.1004 4.519 14.8726-.2361.6963-.8844 1.1349-1.5802 1.1349z"/><path id="_271554000" d="m97.1676 138.676h-5.4316c-.9225 0-1.6713-.7485-1.6713-1.671 0-.9227.7484-1.6712 1.6709-1.6712h5.432c.9228 0 1.6702.7486 1.6702 1.6712 0 .9225-.7486 1.671-1.6702 1.671z"/><path id="_271554168" d="m102.059 145.674h-10.3227c-.9225 0-1.6713-.7484-1.6713-1.6711 0-.9225.7484-1.671 1.6709-1.671h10.3231c.9227 0 1.6703.7485 1.6703 1.671.0012.9227-.7484 1.6711-1.6703 1.6711z"/><path id="_271554360" d="m97.1676 152.671h-5.4316c-.9225 0-1.6713-.7486-1.6713-1.6711 0-.9226.7484-1.6711 1.6709-1.6711l5.432-.0001c.9228 0 1.6702.7486 1.6702 1.6712 0 .9225-.7486 1.6711-1.6702 1.6711z"/><path id="_271554696" d="m116.392 120.193c-.9227 0-1.672-.7484-1.672-1.671l.0004-57.5964c0-.6615.3896-1.2637.9989-1.5282 1.0204-.4527 1.6779-1.807 1.7999-3.7218.3485-5.4623-3.5616-13.5635-11.7081-18.4687-.7899-.4735-1.0445-1.5005-.5672-2.2943.4746-.7903 1.5002-1.0445 2.2907-.5675 9.7236 5.8521 13.72 15.2695 13.3197 21.5429-.1697 2.6876-1.1731 4.8079-2.792 5.9915l.0012 56.6425c0 .9226-.7498 1.671-1.6715 1.671zm-83.4216 43.044c-15.3765 0-20.2346-8.9018-21.6271-12.8498-1.9287-5.4553-1.1523-11.9098 1.6363-14.7646l.0006-73.7431c-1.6184-1.1836-2.6222-3.3038-2.7927-5.9915-.4001-6.2735 3.5962-15.6907 13.3199-21.5429.7901-.4771 1.8172-.2227 2.2941.5675.4747.7938.2195 1.8208-.5708 2.2943-8.1459 4.9052-12.0562 13.0064-11.708 18.4687.1217 1.9148.7798 3.2691 1.8033 3.7218.6072.2644.9956.8668.9956 1.5282l.0002 75.449c0 .5291-.2507 1.0305-.6824 1.3439-1.691 1.2463-2.9801 6.364-1.1455 11.5582 1.4942 4.2264 6.1064 11.2171 20.248 10.5764h.0766 60.2781c.9229 0 1.67.7451 1.67 1.6676.0002.9262-.7486 1.6712-1.6711 1.6712h-60.2388c-.6471.0313-1.2743.0451-1.8863.0451z"/><path id="_271554384" d="m26.0394 34.1051h78.9647v-14.7369c0-3.2341-2.6326-5.8661-5.8671-5.8661l-67.2321-.0001c-3.2335 0-5.8669 2.6322-5.8669 5.8663zm80.636 3.3422h-82.3076c-.9227 0-1.6719-.7486-1.6719-1.6711l.0004-16.408c0-5.0793 4.1321-9.2082 9.208-9.2082h67.2343c5.0758 0 9.2067 4.1289 9.2067 9.2083l.0002 16.4078c0 .9226-.7486 1.6712-1.6701 1.6712z"/><path id="_271554288" d="m116.392 62.5969h-101.74c-.9228 0-1.6722-.7486-1.6722-1.6711.0006-.9226.7484-1.671 1.671-1.671l101.741-.0001c.9227 0 1.6703.7486 1.6703 1.6711.0012.9225-.7486 1.6712-1.6703 1.6711z"/><path id="_271554552" d="m83.7008 138.046h-69.0492c-.9228 0-1.6722-.7485-1.6722-1.6711.0006-.9261.7484-1.6711 1.671-1.6711l69.0504-.0001c.9227 0 1.6708.7452 1.6708 1.6712.0008.9226-.7485 1.6711-1.6708 1.6711z"/><path id="_271553376" d="m36.1285 28.963c-.9227 0-1.6724-.7484-1.6724-1.6711l.0008-6.9766c0-.9227.7477-1.6711 1.6702-1.6711.9227-.0001 1.6713.7485 1.6713 1.6711l.0002 6.9766c0 .9227-.7488 1.6712-1.6701 1.6711z"/><path id="_271553232" d="m47.8845 28.963c-.9227 0-1.6716-.7484-1.6716-1.6711v-6.9766c0-.9227.7485-1.6711 1.671-1.6711.9233-.0001 1.6711.7485 1.6711 1.6711l.0012 6.9766c0 .9227-.7497 1.6712-1.6717 1.6711z"/><path id="_271553592" d="m59.6405 28.963c-.9211 0-1.6675-.7484-1.6675-1.6711l.0006-6.9766c0-.9227.7444-1.6711 1.6669-1.6711.9275-.0001 1.6711.7485 1.6711 1.6711l.0006 6.9766c0 .9227-.7456 1.6712-1.6717 1.6711z"/><path id="_271553304" d="m71.4013 28.963c-.9228 0-1.6717-.7484-1.6717-1.6711v-6.9766c0-.9227.7485-1.6711 1.6711-1.6711.9233-.0001 1.6711.7485 1.6711 1.6711l.001 6.9766c0 .9227-.7494 1.6712-1.6715 1.6711z"/><path id="_271553616" d="m83.1589 28.963c-.9228 0-1.6725-.7484-1.6725-1.6711l.0008-6.9766c0-.9227.7478-1.6711 1.6703-1.6711.9241-.0001 1.6711.7485 1.6711 1.6711l.0002 6.9766c0 .9227-.7486 1.6712-1.6699 1.6711z"/><path id="_271553328" d="m94.918 28.963c-.9261 0-1.6713-.7484-1.6713-1.6711l.0012-6.9766c0-.9227.7437-1.6711 1.6697-1.6711.9231-.0001 1.6676.7485 1.6676 1.6711l.0012 6.9766c0 .9227-.7461 1.6712-1.6684 1.6711z"/><path id="_271553520" d="m65.5217 75.3771c-12.8323 0-23.2707 10.4407-23.2707 23.2733 0 12.8324 10.4372 23.2696 23.2697 23.2696 12.8333 0 23.2733-10.4372 23.2733-23.2696 0-12.8326-10.4408-23.2733-23.2723-23.2733zm0 49.8851c-14.6746 0-26.6128-11.9378-26.6128-26.6118.0004-14.6742 11.9378-26.6155 26.6118-26.6155s26.6118 11.9413 26.6118 26.6155c0 14.674-11.9378 26.6118-26.6108 26.6118z"/><path id="_271553400" d="m30.7425 76.2126h-6.2665c-.9259 0-1.6723-.7484-1.6723-1.671.0006-.9226.7452-1.6711 1.6713-1.6711h6.2675c.9227 0 1.67.7485 1.67 1.6711s-.7485 1.6711-1.67 1.671z"/><path id="_271553640" d="m30.7425 129.273h-6.2665c-.9259 0-1.6723-.7485-1.6723-1.6712.0006-.9225.7452-1.671 1.6713-1.671h6.2675c.9227 0 1.67.7485 1.67 1.671 0 .9226-.7485 1.6712-1.67 1.6712z"/><path id="_271553880" d="m106.571 76.2126h-6.2665c-.9227 0-1.672-.7484-1.672-1.671.0004-.9226.7485-1.6711 1.6712-1.6711h6.2673c.9227 0 1.6703.7485 1.6703 1.6711.0012.9226-.7484 1.6711-1.6703 1.671z"/></g></g></svg>