<svg id="Layer_1" enable-background="new 0 0 100 100" height="100" viewBox="0 0 100 100" width="100" xmlns="http://www.w3.org/2000/svg"><g style="fill:none;stroke:#000;stroke-linecap:round;stroke-linejoin:round;stroke-miterlimit:10;stroke-width:3"><path d="m85.411 29.604c0-7.059-5.722-12.781-12.781-12.781h-45.317c-7.059 0-12.781 5.723-12.781 12.781v48.781c0 9.176 7.44 16.615 16.616 16.615h37.703c9.177 0 16.616-7.439 16.616-16.616z"/><path d="m74.044 16.822v-9.266c0-1.411-1.145-2.556-2.556-2.556h-42.976c-1.412 0-2.556 1.145-2.556 2.556v9.266z"/><path d="m14.532 36.305h70.936v39.667h-70.936z"/><path d="m44.889 43.128c-2.654 1.055-7.154 17.917-7.155 21.643 0 2.486 1.695 2.19 2.552 2.014.857-.178 4.959 6.087 16.666 1.002 9.943-.056 11.145-7.047 7.992-10.641-3.37-3.844-10.238-.417-12.426 2.125-2.484-.946-4.791-.946-5.737-.414-.592-2.424-1.122-9.934.06-10.762 1.893.06 3.826.591 3.983.118.156-.473.641-3.844-.784-4.553-1.426-.709-3.661-1.123-5.151-.532z"/></g></svg>