<svg id="Capa_1" enable-background="new 0 0 512 512" height="512" viewBox="0 0 512 512" width="512" xmlns="http://www.w3.org/2000/svg"><g><path d="m50.663 130.514c.162.01.322.016.481.016 3.926 0 7.227-3.054 7.479-7.026l7.32-115.53c.262-4.134-2.877-7.697-7.011-7.959-4.153-.257-7.697 2.877-7.96 7.011l-7.32 115.53c-.262 4.133 2.877 7.697 7.011 7.958z"/><path d="m53.385 266.023c-1.962-8.714-2.646-18.085-2.032-27.849l5.37-84.78c.262-4.134-2.877-7.697-7.011-7.959-4.156-.259-7.697 2.878-7.96 7.011l-5.37 84.785c-.702 11.188.095 21.984 2.37 32.093 4.363 19.301 13.719 37.118 27.125 51.715v183.461c0 4.142 3.357 7.5 7.5 7.5s7.5-3.358 7.5-7.5v-186.44c0-1.949-.759-3.821-2.115-5.22-12.621-13.02-21.397-29.211-25.377-46.817z"/><path d="m475.614 237.227-14.591-230.199c-.262-4.133-3.817-7.273-7.96-7.01-4.134.262-7.272 3.826-7.011 7.959l14.591 230.199c.619 9.767-.063 19.134-2.028 27.841-3.952 17.503-12.647 33.609-25.157 46.602-1.44 1.367-2.339 3.299-2.339 5.442v186.439c0 4.142 3.357 7.5 7.5 7.5s7.5-3.358 7.5-7.5v-183.45c13.415-14.61 22.771-32.431 27.127-51.729 2.281-10.103 3.077-20.901 2.368-32.094z"/><path d="m356.51 291.015c-2.93-2.928-7.677-2.928-10.606.001l-36.544 36.544c-28.426-18.061-45.86-49.494-45.86-83.398v-.004-69.512c7.299-1.429 14.264-4.962 19.906-10.604 2.93-2.929 2.93-7.678.001-10.607-2.929-2.928-7.678-2.929-10.606 0-9.264 9.264-24.338 9.264-33.602 0-2.928-2.929-7.677-2.928-10.606 0-2.929 2.929-2.929 7.678.001 10.607 5.643 5.642 12.607 9.176 19.906 10.604v69.512c0 54.462-44.309 98.771-98.771 98.771-4.143 0-7.5 3.358-7.5 7.5s3.357 7.5 7.5 7.5c36.353 0 68.776-17.14 89.618-43.76l-15.821 189.708c-.345 4.127 2.723 7.753 6.851 8.097.212.018.422.026.632.026 3.859 0 7.139-2.961 7.465-6.877l17.526-210.163 17.526 210.163c.326 3.916 3.605 6.877 7.465 6.877.209 0 .42-.009.632-.026 4.128-.344 7.195-3.97 6.851-8.097l-15.815-189.642c7.581 9.701 16.774 18.215 27.315 25.122-14.062 23.09-11.134 53.691 8.811 73.636 11.328 11.328 26.395 17.567 42.424 17.567 10.023 0 19.951-2.522 28.709-7.294 3.637-1.982 4.978-6.537 2.997-10.174-1.982-3.637-6.536-4.98-10.175-2.998-6.562 3.576-14.008 5.466-21.531 5.466-12.022 0-23.322-4.678-31.816-13.173-17.547-17.547-17.547-46.097 0-63.644l31.817-31.817 31.825 31.817c8.502 8.501 13.184 19.801 13.184 31.817 0 7.527-1.893 14.97-5.472 21.525-1.985 3.635-.648 8.192 2.987 10.177 3.637 1.985 8.193.648 10.177-2.988 4.781-8.754 7.308-18.683 7.308-28.715 0-16.023-6.242-31.089-17.577-42.424z"/><path d="m180.877 279.029c1.868 0 3.764-.398 5.563-1.223 5.674-2.601 8.741-8.684 7.459-14.792l-8.273-39.431h22.302c5.234 0 10.164-2.552 13.188-6.825 3.022-4.274 3.785-9.772 2.041-14.708l-26.889-76.094c0-.001 0-.001 0-.002-2-5.655-7.374-9.455-13.372-9.455h-53.37c-5.156 0-9.911 2.803-12.408 7.314-2.497 4.512-2.348 10.029.391 14.399l29.174 46.548h-11.724c-6.189 0-11.738 3.447-14.479 8.996-2.742 5.549-2.11 12.05 1.649 16.966l48.236 63.08c2.589 3.386 6.491 5.227 10.512 5.227zm1.249-148.075.002.006c0-.001-.001-.003-.002-.005zm-48.2 69.449c.317-.642.837-.642 1.032-.642h25.275c2.729 0 5.241-1.481 6.562-3.868 1.32-2.387 1.241-5.303-.207-7.615l-35.585-56.778h51.314l26.696 75.549c.132.373.083.726-.146 1.048s-.545.486-.94.486h-31.539c-2.26 0-4.398 1.019-5.822 2.772s-1.981 4.057-1.518 6.268l8.607 41.021-43.613-57.033c-.117-.155-.432-.567-.116-1.208z"/></g></svg>