<svg id="Capa_1" enable-background="new 0 0 512 512" height="512" viewBox="0 0 512 512" width="512" xmlns="http://www.w3.org/2000/svg"><g><path d="m97.904 354.042h15v15h-15z"/><path d="m512 130.749c0-70.304-57.196-127.5-127.5-127.5-31.098 0-61.053 11.327-84.347 31.896l9.928 11.244c20.552-18.146 46.98-28.14 74.419-28.14 62.032 0 112.5 50.468 112.5 112.5s-50.468 112.5-112.5 112.5c-62.033 0-112.501-50.467-112.501-112.5 0-27.436 9.994-53.865 28.14-74.418l-11.244-9.928c-20.568 23.297-31.896 53.251-31.896 84.346 0 13.205 2.019 25.947 5.762 37.935-25.046 6.991-48.982 23.871-70.013 49.401-20.396-24.729-43.774-41.54-68.05-48.842-24.386-7.335-49.546-4.886-70.846 6.896-22.704 12.56-39.64 34.557-47.688 61.941-7.776 26.46-6.794 55.984 2.766 85.964h-8.93v45h29.733c31.212 51.574 84.834 97.927 159.481 137.821l3.535 1.889 3.535-1.889c69.128-36.943 120.395-79.596 152.476-126.821h36.74v-45h-12.828c10.137-26.163 13.82-52.361 10.792-76.807.346.003.69.013 1.036.013 70.304-.001 127.5-57.198 127.5-127.501zm-141.5 234.293h-95.76l-24.939-33.381-33.284 67.221-36.107-44.84h-52.505v15h45.325l46.318 57.521 32.856-66.356 14.818 19.834h63.153c-30.393 41.086-76.598 78.601-137.624 111.688-65.65-35.621-115.511-77.787-145.252-122.688h35.406v-15h-67.905v-15h172.589l25.896 32.159 33.714-68.085 35.059 46.926h88.242zm-14.014-30h-66.712l-45.18-60.473-34.142 68.951-15.685-19.478h-170.022c-10.038-28.693-11.502-56.854-4.19-81.734 6.928-23.571 21.331-42.409 40.558-53.044 31.213-17.265 80.61-14.392 125.644 45.452l5.993 7.963 5.993-7.963c20.783-27.618 44.652-45.453 69.364-51.937 17.816 39.698 55.36 68.695 100.082 74.43 3.645 24.432-.369 51.134-11.703 77.833z"/><path d="m482 138.249v-7.5c0-53.762-43.738-97.5-97.5-97.5-53.763 0-97.501 43.739-97.501 97.5v7.5h45v-7.5c0-28.949 23.552-52.5 52.501-52.5 28.948 0 52.5 23.552 52.5 52.5v7.5zm-30.414-15c-1.444-13-6.606-24.888-14.379-34.6l10.665-10.664c10.432 12.508 17.241 28.138 18.791 45.264zm-149.249 0c1.55-17.127 8.359-32.756 18.792-45.265l10.664 10.665c-7.774 9.712-12.936 21.6-14.38 34.6zm40.062-45.208-10.663-10.663c12.508-10.431 28.139-17.232 45.264-18.782v15.083c-12.998 1.444-24.89 6.59-34.601 14.362zm49.601-14.362v-15.083c17.125 1.551 32.756 8.351 45.263 18.782l-10.663 10.663c-9.711-7.773-21.602-12.918-34.6-14.362z"/><path d="m419.115 145.02-25.051 25.368c-2.905-1.37-6.146-2.14-9.564-2.14-12.406 0-22.5 10.093-22.5 22.5s10.094 22.5 22.5 22.5 22.499-10.093 22.499-22.5c0-3.519-.814-6.851-2.26-9.82l25.05-25.367zm-34.615 53.228c-4.136 0-7.5-3.365-7.5-7.5s3.364-7.5 7.5-7.5c4.135 0 7.499 3.364 7.499 7.5s-3.364 7.5-7.499 7.5z"/><path d="m338.889 275.043h15v15h-15z"/><path d="m323.888 305.042h15v15h-15z"/></g></svg>