<svg id="Capa_1" enable-background="new 0 0 512 512" height="512" viewBox="0 0 512 512" width="512" xmlns="http://www.w3.org/2000/svg"><g><path d="m394.703 471.751c.983-4.339.725-8.864-.747-13.098-3.806-10.961-15.28-17.673-26.687-15.625-8.996 1.618-16.141 8.032-18.706 16.768-12.875 4.632-19.261 20.119-13.254 32.445 4.632 9.846 15.209 15.276 25.834 13.359 6.693 6.245 16.21 8.038 24.647 4.86 10.856-4.062 17.288-15.698 14.961-27.064-.896-4.395-2.986-8.417-6.048-11.645zm-14.019 25.06c-3.377 1.266-7.086.516-9.687-1.949-2.663-2.526-6.125-3.902-9.625-3.902-4.986.963-10.576.313-12.877-4.924-2.328-4.801.286-10.996 5.36-12.66 4.178-1.458 7.417-4.964 8.662-9.378.974-3.45 3.784-5.99 7.333-6.628 6.322-1.302 12.255 5.015 10.624 11.241-1.11 4.721.237 9.622 3.603 13.112 4.582 4.519 2.701 12.968-3.393 15.088z"/><path d="m504.372 202.566-8.067-13.572c-.628-1.056-.761-2.402-.364-3.694 1.019-3.326 1.536-6.784 1.536-10.278 0-12.839-7.005-24.647-18.282-30.817-1.227-.671-2.068-1.695-2.371-2.883l-3.228-12.691c-2.455-11.453-20.023-11.45-22.478 0l-3.228 12.69c-.303 1.189-1.144 2.213-2.371 2.884-3.222 1.763-6.154 4.042-8.675 6.707-3.898-7.132-8.195-14.052-12.879-20.727 15.948-11.403 25.634-29.962 25.634-49.775 0-33.712-27.426-61.137-61.137-61.137-24.097 0-46.015 14.505-55.768 36.086-27.461-12.053-57.343-18.412-87.931-18.412-93.581 0-176.793 59.453-207.064 147.941-1.303 3.807.728 7.95 4.535 9.252 3.808 1.299 7.949-.729 9.252-4.536 28.253-82.593 105.925-138.085 193.276-138.085 103.225 0 189.623 76.313 202.564 178.147-6.333 4.641-10.455 12.128-10.455 20.563 0 8.891 4.58 16.729 11.501 21.29-.991 12.943-3.2 25.779-6.604 38.222-2.617 9.058 11.643 13.031 14.055 3.844 3.377-12.348 5.649-25.056 6.813-37.878 13.924-.151 25.207-11.52 25.207-25.479 0-14.052-11.433-25.485-25.486-25.485-.333 0-.663.012-.993.025-.707-4.986-1.585-9.931-2.63-14.829 3.972.407 8.026.154 11.887-.781.993-.242 2.125-.051 3.095.527l14.763 8.775c9.783 6.364 22.273-6.055 15.893-15.894zm-31.101 47.662c0 6.018-4.896 10.914-10.914 10.914s-10.914-4.896-10.914-10.914c0-6.017 4.896-10.913 10.914-10.913s10.914 4.896 10.914 10.913zm-81.895-156.892c-13.904-12.56-29.22-23.168-45.548-31.678 7.351-16.619 24.152-27.813 42.633-27.813 25.676 0 46.566 20.889 46.566 46.566 0 15.213-7.515 29.439-19.841 38.109-7.215-8.948-15.165-17.375-23.81-25.184zm89.784 103.823c-4.273-2.54-9.232-3.31-13.967-2.163-4.082 1.169-8.257.246-12.322-.416-2.89-9.941-6.472-19.646-10.727-29.043 1.876-3.582 4.814-6.603 8.369-8.548 5.216-2.823 8.716-7.801 9.844-13.433 1.127 5.632 4.628 10.61 9.844 13.432 6.602 3.612 10.704 10.523 10.704 18.034 0 2.046-.302 4.068-.896 6.008-2.239 6.68.04 13.441 3.862 18.93z"/><path d="m441.197 334.641c-3.678-1.63-7.982.032-9.612 3.711-32.717 73.874-106.05 121.608-186.823 121.608-112.608 0-204.22-91.613-204.22-204.22 0-12.063 1.059-24.148 3.148-35.921.703-3.963-1.939-7.744-5.901-8.447-3.965-.698-7.743 1.939-8.446 5.902-2.237 12.611-3.372 25.552-3.372 38.466 0 35.055 8.198 68.847 23.67 99.201-3.861-1.147-7.921-1.606-12.006-1.333-16.528 1.096-30.115 14.349-31.604 30.829-1.186 13.128 5.07 25.505 16.325 32.301 1.013.612 1.681 1.566 1.745 2.491.222 3.258.915 6.478 2.06 9.573 5.63 15.436 21.833 24.526 37.652 21.691 15.553-2.697 27.163-15.545 28.234-31.244.064-.936.739-1.901 1.759-2.519.562-.34 1.113-.7 1.656-1.072 40.651 38.016 93.37 58.874 149.301 58.874 86.534 0 165.096-51.137 200.146-130.278 1.629-3.68-.033-7.984-3.712-9.613zm-363.688 83.616c-.613 8.98-7.269 16.332-16.187 17.878-9.064 1.575-18.303-3.754-21.496-12.389-.662-1.789-1.062-3.643-1.189-5.509-.387-5.675-3.658-10.899-8.75-13.974-6.444-3.891-10.024-10.986-9.344-18.517.85-9.408 8.612-16.974 18.055-17.6 3.729-.248 7.404.553 10.636 2.315 3.236 1.764 6.887 2.477 10.48 2.158 7.299 11.506 15.736 22.389 25.23 32.528-4.334 3.144-7.083 7.938-7.435 13.11z"/><path d="m173.75 388.112 60.467 43.299c3.153 2.257 6.848 3.386 10.544 3.386 3.695 0 7.391-1.129 10.545-3.387l60.467-43.298c49.113-35.166 78.434-92.223 78.434-152.629v-100.052c0-3.748-1.72-7.188-4.718-9.436-2.999-2.248-6.777-2.939-10.379-1.889l-17.458 5.088c-29.648 8.641-61.896 2.47-86.263-16.505l-20.607-16.048c-5.9-4.595-14.141-4.596-20.04 0l-20.607 16.048c-24.366 18.976-56.615 25.143-86.264 16.505l-17.457-5.088c-3.597-1.048-7.382-.36-10.379 1.889-2.999 2.249-4.718 5.688-4.718 9.436v100.052c-.001 60.405 29.32 117.463 78.433 152.629zm99.233-154.539h30.444v37.198h-30.444c-5.951 0-10.792 4.841-10.792 10.792v30.445h-37.198v-30.445c0-5.951-4.841-10.792-10.792-10.792h-30.445v-37.198h30.445c5.95 0 10.792-4.841 10.792-10.792v-30.445h37.198v30.445c0 5.951 4.841 10.792 10.792 10.792zm-163.095-94.443 13.906 4.053c34.128 9.949 71.248 2.846 99.295-18.998l13.218-10.294v63.873h-13.34c-6.917 0-12.545 5.627-12.545 12.545v28.692h-28.692c-6.917 0-12.545 5.627-12.545 12.545v41.251c0 6.917 5.628 12.544 12.545 12.544h28.692v28.692c0 6.918 5.627 12.545 12.545 12.545h13.34v15.903c0 4.024 3.262 7.286 7.286 7.286s7.286-3.262 7.286-7.286v-15.903h13.34c6.918 0 12.545-5.627 12.545-12.545v-28.692h28.691c6.918 0 12.545-5.627 12.545-12.544v-41.251c0-6.918-5.627-12.545-12.545-12.545h-28.691v-28.692c0-6.918-5.627-12.545-12.545-12.545h-13.34v-65.696l15.558 12.116c28.047 21.843 65.165 28.943 99.294 18.998l13.906-4.053v96.353c0 55.717-27.045 108.345-72.346 140.782l-55.243 39.556v-41.069c0-4.024-3.262-7.286-7.286-7.286s-7.286 3.261-7.286 7.286v41.07l-55.243-39.557c-45.3-32.437-72.346-85.065-72.346-140.782v-96.352z"/><path d="m46.991 107.989c5.903.252 11.71-2.005 15.949-6.247.639-.643 1.391-.967 2.072-.897 10.62 1.138 21.046-2.533 28.593-10.079 7.541-7.541 11.218-17.953 10.088-28.567-.022-2.762 3.5-3.918 4.708-6.219 5.743-7.638 5.549-18.572-.462-25.998-7.506-9.706-23.025-10.546-31.504-1.69-1.324 1.107-1.765 3.015-3.928 2.72-10.614-1.134-21.027 2.547-28.567 10.088-7.548 7.548-11.221 17.969-10.079 28.595-.137 2.52-3.077 3.692-4.015 6.006-4.736 7.685-3.989 17.86 1.818 24.746 3.829 4.541 9.416 7.29 15.327 7.542zm-4.74-24.646c3.959-4.069 6.896-9.213 6.097-15.206-.668-6.22 1.48-12.32 5.895-16.735 4.402-4.42 10.578-6.569 16.721-5.902 6.027.642 11.713-1.698 15.205-6.256 5.853-7.647 16.924 3.112 9.433 9.178-4.628 3.75-7.021 9.476-6.399 15.317.662 6.215-1.489 12.31-5.901 16.721-4.415 4.416-10.515 6.559-16.734 5.896-5.106-.545-10.198 1.319-13.987 5.139-5.247 5.551-14.494-1.725-10.33-8.152z"/><path d="m141.128 50.97c14.052 0 25.485-11.433 25.485-25.486s-11.433-25.484-25.485-25.484-25.485 11.432-25.485 25.485 11.433 25.485 25.485 25.485zm0-36.399c6.018 0 10.914 4.896 10.914 10.913 0 6.018-4.896 10.914-10.914 10.914s-10.914-4.896-10.914-10.914c0-6.017 4.896-10.913 10.914-10.913z"/><path d="m127.947 451.477c-14.052 0-25.485 11.433-25.485 25.486 0 14.052 11.433 25.486 25.485 25.486 14.053 0 25.486-11.433 25.486-25.486s-11.433-25.486-25.486-25.486zm0 36.4c-6.018 0-10.914-4.896-10.914-10.914s4.896-10.914 10.914-10.914 10.914 4.896 10.914 10.914-4.895 10.914-10.914 10.914z"/><circle cx="85.646" cy="468.099" r="8.863"/><circle cx="34.051" cy="128.818" r="8.863"/></g></svg>