<svg id="Layer_1" enable-background="new 0 0 52 52" height="512" viewBox="0 0 52 52" width="512" xmlns="http://www.w3.org/2000/svg"><g id="_x39_"><path d="m48.8 36.3c-.8 1.7-1.9 3.1-3.2 4.3-2.1 1.9-4.2 3-6.8 3.5.6-.7 1.2-1.5 1.7-2.3.2-.4.4-.7.6-1.1 0-.1 0-.1.1-.2.2-.4.3-.8.5-1.2.2-.5.4-1.3.6-1.9 0-.2.1-.4.1-.6s.1-.5.1-.7c0-.1 0-.2 0-.3 0-.5.1-1.1.1-1.7v-.1c2.2-1.7 4.9-2.8 7.8-3.1-.7-.1-1.3-.1-2-.1 1.5-3.6 1.7-6.5 1.8-6.7 0-.3.1-.6 0-.9-.1-.6-.4-1.2-.9-1.6s-1.2-.6-1.8-.6h-1c.4-.4.7-.8.9-1.2.7-1.6.4-3.5-.7-4.7-.6-.6-1.3-1-2.1-1.2-.4-.1-.8-.1-1.2-.1l-1.1.1c-.6 0-1.2.1-1.8.1.4-.3.8-.6 1.1-1.1.9-1.3 1.1-3.1.4-4.5-.7-1.5-2.2-2.5-3.8-2.6-1.4-.1-2.6 0-4-.1-5.2-.1-10.5 0-15.7.1l-3.9.1c-1.5 0-3.1.9-3.8 2.2s-.6 3 .1 4.2c.5.8 1.3 1.4 2.2 1.6-.7 0-1.4-.1-2.1-.1l-2.2-.1c-.8 0-1.6.2-2.3.6-1.4.9-2.2 2.7-1.9 4.4.1.7.4 1.3.8 1.8-.2 0-.4 0-.7 0-1.2 0-2.3.7-2.8 1.8-.3.5-.4 1.1-.3 1.7 0 .2 0 .3.1.4.3 2.2.8 4.4 1.5 6.5 1.5 4.2 4.1 8 7.3 11.1.4.4.8.8 1.2 1.1.4.4.9.7 1.3 1s.9.6 1.4 1c.4.3 1 .7 1.6.9s1.2.4 1.8.4c.7.1 1.2 0 1.7 0h3.2l12.6-.1s.1 0 .1.1c.1.1.1.1.3.1h.2.1c2 0 4.1-.4 5.9-1.2s3.5-2 4.9-3.5c2.7-2.9 4.1-7 3.7-10.8-.3 1.8-.8 3.6-1.7 5.3zm-9.7-10.7c.3.5.6.9.9 1.4.9 2.2 1.3 4.3 1.2 6.9 0 .4-.1.8-.1 1.1-.1.4-.1.8-.3 1.5 0 .1-.1.3-.1.4-.3 1-.7 1.9-1.1 2.8-.1.1-.1.2-.2.4-.4.7-.6 1-.9 1.3-.2.3-.4.5-.6.8-.3.4-.5.6-1 1.1-.1.1-.3.3-.4.4s-.2.2-.3.3c-.7-1.2-1.3-2.5-1.7-3.9-.5-1.7-.5-3.5-.4-5.3.2-1.8.8-3.5 1.6-5.2.3-.5.6-1 .9-1.4.7-1 1.6-1.9 2.5-2.6zm-32.1-10.6c.5-.4 1.1-.6 1.8-.7 2.9-.2 3.9-.2 6.6-.4-.5 0-1-.1-1.5-.1-1.1-.3-2-1-2.4-2-.5-1.1-.4-2.4.3-3.3.6-.9 1.7-1.4 2.8-1.4l3.9.1c5.2.3 10.5.4 15.7.3h3.9c1 0 2 .6 2.4 1.5.5.9.5 2.1-.1 3s-1.6 1.5-2.8 1.5c-5.2.1-10.5.3-15.7.6 5.2.3 10.5.4 15.7.6.8.1 1.6-.1 2.4-.4.8 0 1.6.1 2.3.1.7.1 1.5 0 2.1.2s1.2.6 1.6 1.1c.8 1 .9 2.4.3 3.5s-1.7 1.7-3 1.6c-5.8-.2-11.7-.2-17.5-.2l-8.8.1h-1.9c-2.4 0-4.9 0-7.3 0-.9-.3-1.7-1.1-1.9-2.1-.4-1.4.1-2.8 1.1-3.6zm12.4 29.5c-.5 0-1.1 0-1.5 0s-.9-.2-1.3-.3c-.4-.2-.8-.4-1.2-.7s-.9-.6-1.3-.9c-4.3-3.3-7.4-7.7-9.1-12.4-.7-1.9-1.2-4-1.4-6 0-.1 0-.3 0-.4s0-.1 0-.2.1-.3.1-.4c.2-.4.6-.7 1.1-.7h.8c2.7 0-1.6 0 9.7-.1h1.7l8.8.1c5.8 0 11.7-.1 17.5-.2.3 0 .8 0 1.3-.1.1 0 .2-.1.3-.1h1.1 1.6c.4 0 .9.1 1.2.4s.6.6.7 1.1c.1.4 0 .9-.1 1.5-.2 2.1-.7 4.1-1.4 6.1-1.9.2-3.7.7-5.4 1.6-.3-1.9-.9-3.8-1.9-5.4-.3-.7-.7-1.4-1.2-2-.1-.1-.2-.1-.3 0-1.2.8-2.2 1.8-3.1 2.9-.4.4-.7.8-1 1.2-1.1 1.6-1.9 3.5-2.3 5.4-.4 2-.4 4 0 6 .3 1.5.9 2.9 1.6 4.2l-11.6-.1z"/></g></svg>