<svg id="Capa_1" enable-background="new 0 0 512 512" height="512" viewBox="0 0 512 512" width="512" xmlns="http://www.w3.org/2000/svg"><g><path d="m256 0c-103.57 0-187.83 84.26-187.83 187.83 0 45.624 16.557 89.609 46.619 123.854 28.332 32.273 66.729 53.828 108.711 61.162v20.395h-30.2c-12.991 0-23.56 10.569-23.56 23.56v17.89c0 12.986 10.568 23.55 23.56 23.55h30.2v30.21c0 12.985 10.568 23.55 23.56 23.55h17.891c12.985 0 23.55-10.564 23.55-23.55v-30.21h15.21c4.143 0 7.5-3.358 7.5-7.5s-3.357-7.5-7.5-7.5h-22.711c-4.143 0-7.5 3.358-7.5 7.5v37.71c0 4.714-3.835 8.55-8.55 8.55h-17.89c-4.72 0-8.56-3.835-8.56-8.55v-37.71c0-4.142-3.357-7.5-7.5-7.5h-37.7c-4.72 0-8.56-3.835-8.56-8.55v-17.891c0-4.72 3.84-8.56 8.56-8.56h37.7c4.143 0 7.5-3.358 7.5-7.5v-34.31c0-3.744-2.761-6.915-6.47-7.429-40.93-5.676-78.563-25.995-105.969-57.213-27.659-31.506-42.891-71.977-42.891-113.958 0-95.299 77.531-172.83 172.83-172.83s172.83 77.531 172.83 172.83c0 41.979-15.232 82.449-42.892 113.955-27.404 31.216-65.039 51.536-105.97 57.217-3.708.515-6.469 3.685-6.469 7.429v34.31c0 4.142 3.357 7.5 7.5 7.5h37.71c4.715 0 8.55 3.84 8.55 8.56v17.89c0 1.73-.511 3.391-1.478 4.801-2.341 3.417-1.469 8.085 1.948 10.426s8.084 1.47 10.427-1.948c2.684-3.918 4.103-8.51 4.103-13.279v-17.891c0-12.991-10.564-23.56-23.55-23.56h-30.209v-20.395c41.982-7.338 80.381-28.894 108.711-61.165 30.062-34.244 46.619-78.228 46.619-123.851 0-103.569-84.26-187.829-187.83-187.829z"/><path d="m235.224 126.531v47.598c-.268.407-.529.822-.775 1.249-6.862 11.885-2.777 27.139 9.107 34.003 3.911 2.259 8.186 3.332 12.406 3.332 8.285 0 16.352-4.145 21.052-11.565l31.048-16.842c5.002-2.709 8.649-7.206 10.271-12.66 1.621-5.456 1.021-11.213-1.69-16.211-5.6-10.322-18.552-14.172-28.878-8.576l-9.945 5.394v-25.72c0-11.746-9.556-21.301-21.301-21.301-11.743-.003-21.295 9.553-21.295 21.299zm29.346 66.241c-2.728 4.723-8.789 6.348-13.513 3.619-4.723-2.728-6.347-8.79-3.619-13.512 1.83-3.169 5.161-4.943 8.582-4.943 1.678 0 3.377.426 4.931 1.324 2.288 1.321 3.925 3.455 4.607 6.006.684 2.552.334 5.218-.988 7.506zm30.343-32.728c3.053-1.657 6.886-.514 8.545 2.542.799 1.474.976 3.173.497 4.784-.48 1.614-1.559 2.944-3.041 3.747l-20.641 11.196c-.071-.31-.142-.619-.224-.928-.522-1.947-1.288-3.781-2.229-5.507v-6.564zm-38.394-39.815c3.475 0 6.301 2.827 6.301 6.301v37.355c-4.169-1.186-8.506-1.23-12.596-.252v-37.103c0-3.474 2.824-6.301 6.295-6.301z"/><path d="m350.336 187.83c0 4.142 3.357 7.5 7.5 7.5h5.49c4.143 0 7.5-3.358 7.5-7.5s-3.357-7.5-7.5-7.5h-5.49c-4.143 0-7.5 3.358-7.5 7.5z"/><path d="m161.664 187.83c0-4.142-3.357-7.5-7.5-7.5h-5.49c-4.143 0-7.5 3.358-7.5 7.5s3.357 7.5 7.5 7.5h5.49c4.143 0 7.5-3.358 7.5-7.5z"/><path d="m263.5 85.994v-5.491c0-4.142-3.357-7.5-7.5-7.5s-7.5 3.358-7.5 7.5v5.491c0 4.142 3.357 7.5 7.5 7.5s7.5-3.358 7.5-7.5z"/><path d="m248.5 289.666v5.49c0 4.142 3.357 7.5 7.5 7.5s7.5-3.358 7.5-7.5v-5.49c0-4.142-3.357-7.5-7.5-7.5s-7.5 3.358-7.5 7.5z"/><path d="m345.197 127.672-4.755 2.745c-3.587 2.071-4.816 6.658-2.745 10.245 1.389 2.406 3.91 3.751 6.502 3.751 1.272 0 2.562-.324 3.743-1.006l4.755-2.745c3.587-2.071 4.816-6.658 2.745-10.245-2.07-3.588-6.66-4.817-10.245-2.745z"/><path d="m163.06 248.995c1.272 0 2.562-.324 3.743-1.006l4.755-2.745c3.587-2.071 4.816-6.658 2.745-10.245-2.07-3.588-6.66-4.817-10.245-2.745l-4.755 2.745c-3.587 2.071-4.816 6.658-2.745 10.245 1.388 2.405 3.91 3.751 6.502 3.751z"/><path d="m198.587 103.388c1.389 2.406 3.91 3.751 6.502 3.751 1.272 0 2.562-.324 3.743-1.006 3.587-2.071 4.816-6.658 2.745-10.245l-2.745-4.755c-2.07-3.587-6.66-4.816-10.245-2.745-3.587 2.071-4.816 6.658-2.745 10.245z"/><path d="m303.168 269.527c-3.587 2.071-4.816 6.658-2.745 10.245l2.745 4.755c1.389 2.406 3.91 3.751 6.502 3.751 1.272 0 2.562-.324 3.743-1.006 3.587-2.071 4.816-6.658 2.745-10.245l-2.745-4.755c-2.07-3.587-6.66-4.816-10.245-2.745z"/><path d="m306.911 107.139c2.592 0 5.113-1.346 6.502-3.751l2.745-4.755c2.071-3.587.842-8.174-2.745-10.245-3.59-2.072-8.175-.842-10.245 2.745l-2.745 4.755c-2.071 3.587-.842 8.174 2.745 10.245 1.182.682 2.471 1.006 3.743 1.006z"/><path d="m198.587 287.272c1.182.682 2.471 1.006 3.743 1.006 2.592 0 5.113-1.346 6.502-3.751l2.745-4.755c2.071-3.587.842-8.174-2.745-10.245-3.59-2.072-8.175-.842-10.245 2.745l-2.745 4.755c-2.071 3.588-.842 8.175 2.745 10.245z"/><path d="m171.558 130.417-4.755-2.745c-3.59-2.072-8.175-.842-10.245 2.745-2.071 3.587-.842 8.174 2.745 10.245l4.755 2.745c1.182.682 2.471 1.006 3.743 1.006 2.592 0 5.113-1.346 6.502-3.751 2.071-3.587.842-8.174-2.745-10.245z"/><path d="m340.442 245.243 4.755 2.745c1.182.682 2.471 1.006 3.743 1.006 2.592 0 5.113-1.346 6.502-3.751 2.071-3.587.842-8.174-2.745-10.245l-4.755-2.745c-3.59-2.072-8.175-.842-10.245 2.745-2.071 3.587-.842 8.174 2.745 10.245z"/><path d="m161.976 97.28c-3.143-2.699-7.878-2.338-10.576.804-18.244 21.247-29.457 47.136-32.425 74.845-.534 4.85-.805 9.864-.805 14.901s.271 10.05.803 14.879c3.331 31.069 17.383 60.397 39.566 82.582 22.185 22.184 51.513 36.236 82.56 39.564 9.668 1.072 20.123 1.072 29.781.002 31.068-3.331 60.396-17.382 82.581-39.566 22.184-22.185 36.235-51.512 39.564-82.56.534-4.851.805-9.864.805-14.901s-.271-10.051-.803-14.879c-3.331-31.069-17.383-60.397-39.566-82.582-22.185-22.184-51.513-36.236-82.56-39.564-9.701-1.067-20.12-1.065-29.784-.002-24.007 2.583-46.984 11.486-66.45 25.747-3.341 2.448-4.065 7.142-1.617 10.483 2.447 3.342 7.142 4.065 10.482 1.618 17.338-12.703 37.806-20.633 59.209-22.936 8.613-.949 17.883-.951 26.539.002 27.675 2.967 53.804 15.489 73.573 35.259 19.771 19.771 32.293 45.899 35.262 73.595.475 4.307.715 8.769.715 13.259s-.24 8.952-.717 13.281c-2.967 27.674-15.489 53.803-35.26 73.573-19.77 19.771-45.898 32.292-73.595 35.261-8.611.949-17.885.951-26.539-.002-27.675-2.967-53.804-15.488-73.573-35.259-19.771-19.77-32.293-45.899-35.262-73.595-.475-4.308-.715-8.769-.715-13.259 0-4.491.24-8.952.717-13.281 2.646-24.699 12.637-47.761 28.894-66.692 2.699-3.143 2.338-7.878-.804-10.577z"/></g></svg>