<svg id="Layer_1" enable-background="new 0 0 512 512" height="512" viewBox="0 0 512 512" width="512" xmlns="http://www.w3.org/2000/svg"><path d="m344.7 119.8v-21.6c17.7-.2 32-14.6 32-32.3v-33.5c0-17.8-14.5-32.4-32.3-32.4h-176.7c-17.8 0-32.3 14.5-32.3 32.4v33.5c0 17.7 14.3 32.1 31.9 32.3v21.6c-33 13.1-56.3 45.3-56.3 82.9v220.1c0 49.2 40 89.2 89.2 89.2h111.6c49.2 0 89.2-40 89.2-89.2v-220.1c0-37.6-23.4-69.8-56.3-82.9zm-193.3-53.9v-33.5c0-9 7.3-16.4 16.4-16.4h176.6c9 0 16.4 7.4 16.4 16.4v33.5c0 9-7.3 16.4-16.4 16.4h-176.7c-9-.1-16.3-7.4-16.3-16.4zm31.9 32.3h145.4v16.9c-5.5-1.1-11.1-1.6-16.9-1.6h-111.6c-5.8 0-11.4.6-16.9 1.6zm16.9 31.3h111.6c40.4 0 73.2 32.8 73.2 73.2v48.4h-258v-48.4c0-40.4 32.8-73.2 73.2-73.2zm184.8 137.6v91.2h-258v-91.2zm-73.2 228.9h-111.6c-40.4 0-73.2-32.8-73.2-73.2v-48.5h258v48.5c0 40.4-32.8 73.2-73.2 73.2zm-8-342.4c0-4.4 3.6-8 8-8 31.5 0 57.1 25.6 57.1 57.1 0 4.4-3.6 8-8 8s-8-3.6-8-8c0-22.7-18.5-41.2-41.2-41.2-4.3 0-7.9-3.5-7.9-7.9zm-136.5-91v-27c0-4.4 3.6-8 8-8s8 3.6 8 8v27.1c0 4.4-3.6 8-8 8s-8-3.6-8-8.1zm32.3-1.2v-25.8c0-4.4 3.6-8 8-8s8 3.6 8 8v25.9c0 4.4-3.6 8-8 8s-8-3.7-8-8.1zm32.3 1.2v-27c0-4.4 3.6-8 8-8s8 3.6 8 8v27.1c0 4.4-3.6 8-8 8s-8-3.6-8-8.1zm32.2 0v-27c0-4.4 3.6-8 8-8s8 3.6 8 8v27.1c0 4.4-3.6 8-8 8s-8-3.6-8-8.1zm32.3-1.2v-25.8c0-4.4 3.6-8 8-8s8 3.6 8 8v25.9c0 4.4-3.6 8-8 8s-8-3.7-8-8.1zm32.3 1.2v-27c0-4.4 3.6-8 8-8s8 3.6 8 8v27.1c0 4.4-3.6 8-8 8s-8-3.6-8-8.1zm-138 215.6c4.2-1.3 8.7 1 10 5.3l9.7 31.3 11.7-31.7c1.5-4.1 6.1-6.3 10.3-4.7 4.1 1.5 6.3 6.1 4.7 10.3l-19.8 53.8c-1.2 3.2-4.2 5.2-7.5 5.2-.1 0-.1 0-.2 0-3.4-.1-6.4-2.3-7.4-5.6l-16.8-53.8c-1.2-4.3 1.1-8.8 5.3-10.1zm57.9 61.5v-53.8c0-4.4 3.6-8 8-8s8 3.6 8 8v53.8c0 4.4-3.6 8-8 8-4.5-.1-8-3.6-8-8zm24.8-53.9c0-4.4 3.6-8 8-8h37.6c4.4 0 8 3.6 8 8s-3.6 8-8 8h-10.8v45.8c0 4.4-3.6 8-8 8s-8-3.6-8-8v-45.8h-10.8c-4.5 0-8-3.5-8-8zm70.5 126.6h-172.6c-4.4 0-8 3.6-8 8v29.6c0 4.4 3.6 8 8 8h172.5c4.4 0 8-3.6 8-8v-29.6c.1-4.4-3.5-8-7.9-8zm-8 29.6h-156.6v-13.6h156.6z"/></svg>