<svg height="400pt" viewBox="-28 0 400 400.03444" width="400pt" xmlns="http://www.w3.org/2000/svg"><path d="m340.320312 353.257812c-2.808593-1.792968-5.933593-3.585937-9.191406-5.441406-9.648437-4.648437-18.273437-11.175781-25.367187-19.199218 13.605469-15.816407 21.449219-35.773438 22.253906-56.617188 0-39.480469-21.453125-64-56-64-15.933594-.644531-31.289063 6.035156-41.6875 18.128906-2.082031-1.90625-4.363281-3.582031-6.808594-5 23.433594-16.617187 64.496094-53.65625 64.496094-109.128906 0-68-56.519531-112-144-112-87.476563 0-144 44-144 112 0 55.472656 41.066406 92.511719 64.496094 109.128906-16.132813 9.359375-24.496094 30.199219-24.496094 50.871094 0 54.96875 29.027344 80 56 80 7.601563.234375 15.027344-2.328125 20.867187-7.199219 1.1875 15.027344-.320312 30.144531-4.457031 44.640625-1.394531 4.195313.878907 8.730469 5.074219 10.121094 4.199219 1.394531 8.730469-.878906 10.125-5.074219.070312-.207031.359375-1.113281.761719-2.527343 6.75-24.222657 6.542969-49.859376-.601563-73.96875-2.816406-11.902344-4.492187-24.050782-5-36.273438.269532-10.578125 1.894532-21.074219 4.839844-31.238281.628906-2.015625.476562-4.191407-.433594-6.097657-1.117187-2.097656-2.378906-4.121093-3.765625-6.054687 1.3125 1.03125 2.921875 1.617187 4.589844 1.671875 4.417969 0 8-3.582031 8-8 0-30-7.199219-38.496094-13.941406-39.808594-7.792969-3.3125-66.058594-29.792968-66.058594-80.191406 0-46.289062 47.859375-56 88-56 40.144531 0 88 9.710938 88 56 0 50.398438-58.261719 76.878906-66.054687 80.191406-6.742188 1.3125-13.945313 9.808594-13.945313 39.808594 0 4.417969 3.582031 8 8 8 1.667969-.03125 3.28125-.589844 4.609375-1.601562-1.390625 1.933593-2.648438 3.957031-3.769531 6.058593-.914063 1.90625-1.066407 4.085938-.429688 6.101563 2.890625 9.933594 4.503907 20.195312 4.800781 30.539062-.46875 12.449219-2.144531 24.824219-5 36.949219-7.132812 24.109375-7.324218 49.738281-.5625 73.953125.402344 1.414062.6875 2.320312.761719 2.527344 1.394531 4.199218 5.929688 6.46875 10.128907 5.074218 4.195312-1.398437 6.464843-5.933593 5.070312-10.128906-4.1875-14.496094-5.707031-29.632812-4.488281-44.671875 5.839843 4.882813 13.273437 7.445313 20.878906 7.199219 18.308594-.640625 34.882813-11.011719 43.457031-27.199219.953125 1.3125 1.839844 2.613281 2.863282 3.933594-7.472657 10.921875-20.351563 17.363281-33.894532 24.128906-3.949218 1.972657-5.558594 6.769531-3.59375 10.722657l15.898438 32c1.007812 2.03125 2.832031 3.542968 5.019531 4.152343 2.183594.613281 4.527344.265625 6.445313-.953125 15.242187-11.183594 29.867187-23.1875 43.804687-35.960937 13.917969 12.746093 28.503906 24.738281 43.707031 35.917969 1.28125.820312 2.773438 1.257812 4.292969 1.257812.722656 0 1.441406-.097656 2.136719-.289062 2.1875-.601563 4.011718-2.105469 5.023437-4.136719l16-32c1.832031-3.664063.597657-8.117188-2.855469-10.316407zm-62.878906-7.136718c-3.0625-2.828125-7.785156-2.828125-10.847656 0-15.082031 13.925781-30.648438 26.726562-39.753906 33.789062l-8.125-16.351562c15.328125-6.386719 28.140625-17.628906 36.460937-32 1.417969-2.835938 1.023438-6.238282-1-8.679688-14.910156-17.992187-22.160156-34.640625-22.160156-50.878906 0-30.503906 14.578125-48 40-48 25.425781 0 40 17.496094 40 48 0 16.238281-7.246094 32.886719-22.160156 50.894531-2.023438 2.441407-2.414063 5.84375-1 8.679688 7.378906 14.753906 22.328125 23.28125 34.335937 30.136719l2.355469 1.34375-8.425781 16.867187c-9.039063-7.042969-24.527344-19.808594-39.679688-33.800781zm-85.425781-10.121094c-4.191406.320312-8.324219-1.148438-11.375-4.046875-3.046875-2.894531-4.726563-6.949219-4.625-11.152344 1.730469-7.351562 10.34375-47.199219.945313-72.214843 5.777343-9.609376 15.875-15.796876 27.054687-16.585938 6.867187-.058594 13.402344 2.945312 17.832031 8.191406-4.035156 10.109375-6.019531 20.921875-5.832031 31.808594.195313 12.859375 3.488281 25.484375 9.601563 36.800781-7.664063 18.472657-20.929688 27.199219-33.601563 27.199219zm-96 0c-19.261719 0-40-20-40-64 0-19.265625 8.761719-40 28-40 11.175781.804688 21.257813 7 27.027344 16.609375-9.425781 25.054687-.753907 64.992187.972656 72.246094.09375 4.195312-1.59375 8.234375-4.640625 11.121093-3.046875 2.882813-7.171875 4.34375-11.359375 4.023438zm72-104c-.75-8.378906.382813-16.820312 3.3125-24.703125 6.6875-2.6875 76.6875-32.320313 76.6875-95.296875 0-46.398438-36.933594-72-104-72-67.0625 0-104 25.601562-104 72 0 62.976562 70 92.609375 76.691406 95.296875 2.929688 7.882813 4.0625 16.324219 3.308594 24.703125.027344.894531.207031 1.78125.53125 2.617188-8.285156-10.707032-20.699219-17.417969-34.195313-18.480469-9.664062-5.527344-70.335937-42.703125-70.335937-104.136719 0-70.785156 66.121094-96 128-96 61.882813 0 128 25.214844 128 96 0 61.246094-60.679687 98.585938-70.34375 104.136719-13.488281 1.066406-25.902344 7.777343-34.183594 18.480469.324219-.835938.5-1.722657.527344-2.617188zm0 0"/><path d="m272.015625 240c-11.925781 0-24 10.992188-24 32 1.359375 16.414062 7.527344 32.0625 17.738281 44.984375 1.515625 1.910156 3.824219 3.023437 6.261719 3.023437 2.441406 0 4.746094-1.113281 6.265625-3.023437 10.207031-12.921875 16.378906-28.570313 17.734375-44.984375 0-21.007812-12.070313-32-24-32zm0 16c3.882813 0 8 5.601562 8 16-.8125 8.941406-3.539063 17.601562-8 25.390625-4.457031-7.789063-7.183594-16.449219-8-25.390625 0-10.398438 4.121094-16 8-16zm0 0"/></svg>