<svg id="Capa_1" enable-background="new 0 0 512 512" height="512" viewBox="0 0 512 512" width="512" xmlns="http://www.w3.org/2000/svg"><g><path d="m489.5 272.862h-93.767l1.022 8.406c2.238 18.394 4.175 36.312 3.303 53.321-1.356 26.483-18.656 55.958-53.433 58.089-22.615 1.382-51.555-11.515-58.732-52.436-3.024-17.238-3.289-37.098-.786-59.03l.953-8.351h-79.825l1.022 8.406c2.238 18.396 4.176 36.317 3.304 53.321-1.357 26.483-18.657 55.958-53.434 58.089-22.613 1.385-51.556-11.516-58.732-52.436-3.023-17.237-3.288-37.098-.785-59.031l.952-8.35h-78.062c-12.406 0-22.5 10.093-22.5 22.5v172.5h452v-15h-437v-119.998h69.211c.389 3.395.842 6.735 1.41 9.973 7.947 45.306 40.301 64.946 70.254 64.943 1.395 0 2.789-.043 4.171-.127 30.821-1.89 65.09-25.318 67.497-72.294.042-.826.055-1.664.085-2.495h44.082c.389 3.395.842 6.735 1.41 9.973 8.318 47.416 43.375 66.714 74.425 64.816 30.821-1.89 65.09-25.319 67.496-72.294.042-.826.055-1.664.085-2.495h81.874v120.001h-30v15h45v-172.5c0-12.407-10.094-22.501-22.5-22.501zm-474.5 45v-22.5c0-4.136 3.364-7.5 7.5-7.5h61.373c-.893 10.47-1.148 20.48-.795 30zm212.609 0c-.368-9.977-1.335-20.093-2.466-30h46.227c-.893 10.47-1.148 20.48-.795 30zm187.497 0c-.368-9.978-1.334-20.094-2.465-30h76.859c4.136 0 7.5 3.364 7.5 7.5v22.5z"/><path d="m131.147 368.559c6.976 6.087 15.694 9.37 24.771 9.369.768 0 1.54-.023 2.312-.071 10.031-.615 19.499-5.118 26.661-12.681 7.665-8.094 12.053-18.937 12.689-31.355.867-16.925-1.585-37.189-4.426-60.654-4.169-34.449-8.895-73.495-3.978-111.946 5.609-43.861 22.9-78.494 52.861-105.877l-9.968-11.207c-37.488 32.446-73.739 90.467-96.972 155.208l14.119 5.066c7.89-21.985 17.495-43.401 28.188-63.238-9.729 46.34-3.928 94.252.858 133.797 2.757 22.777 5.137 42.448 4.336 58.084-.999 19.492-13.809 29.127-25.288 29.831-10.768.666-23.594-6.305-27.368-27.825-5.222-29.766-.119-71.038 14.366-116.214l-14.283-4.58c-15.215 47.45-20.492 91.269-14.858 123.386 2.301 13.105 7.826 23.792 15.98 30.907z"/><path d="m467 377.862h15v15h-15z"/><path d="m467 347.862h15v15h-15z"/><path d="m316.947 366.524c7.103 6.103 16.276 9.432 25.937 9.432.346 0 .692-.004 1.039-.013 10.33-.255 20.12-4.238 27.566-11.216 8.251-7.732 12.95-18.419 13.59-30.905.341-6.646-1.568-12.808-5.836-18.839-3.418-4.831-7.944-9.069-12.735-13.557-12.31-11.529-26.254-24.59-26.679-53.039.606-5.769 1.079-11.45 1.538-16.964.272-3.275.54-6.49.829-9.625.499-5.426 2.629-8.287 5.577-12.245 2.995-4.022 6.724-9.028 8.64-17.061 3.441-14.434-2.291-23.693-6.896-31.133-5.516-8.908-10.278-16.602-2.744-35.556l-13.939-5.541c-10.323 25.97-2.421 38.735 3.93 48.992 4.247 6.862 7.054 11.395 5.059 19.758-1.199 5.029-3.46 8.065-6.078 11.581-3.562 4.783-7.599 10.203-8.484 19.831-.292 3.178-.563 6.436-.84 9.755-1.896 22.788-4.046 48.616-15.296 69.758-5.361 10.077-10.105 21.555-8.53 37.172 1.231 12.233 6.195 22.405 14.352 29.415zm7.418-59.542c3.846-7.227 6.736-14.785 8.954-22.481 6.463 12.447 15.48 20.893 22.935 27.874 9.083 8.506 14.204 13.661 13.845 20.68-.673 13.136-9.267 27.467-26.546 27.893-10.831.262-24.107-6.213-26.036-25.344-1.112-11.026 1.796-19.126 6.848-28.622z"/></g></svg>