<svg id="Line" height="512" viewBox="0 0 64 64" width="512" xmlns="http://www.w3.org/2000/svg"><path d="m43.79736 24.86914a.99991.99991 0 0 0 1.0332-.96582c.1211-3.60156 1.76417-7.20215 3.35352-10.68457a40.78215 40.78215 0 0 0 3.00635-8.00781 1 1 0 1 0 -1.95508-.42188 38.75581 38.75581 0 0 1 -2.87109 7.59961c-.59485 1.30371-1.194 2.62421-1.72876 3.96369a40.45765 40.45765 0 0 0 -12.636-2.02716h-.042a40.42822 40.42822 0 0 0 -12.59283 2.02752c-.53486-1.3396-1.134-2.66022-1.729-3.96405a38.75581 38.75581 0 0 1 -2.87109-7.59961 1.00017 1.00017 0 0 0 -1.955.42195c1.34216 6.2551 6.11151 12.27372 6.36083 18.70988a23.78893 23.78893 0 0 1 -.7549 6.98243c-.818 3.21985-3.01239 5.63942-4.23533 8.6963a29.007 29.007 0 0 0 -2.32913 11.63671v7.75879a1 1 0 0 0 2 0v-1.679a25.70543 25.70543 0 0 0 14.02979-.145v1.824a1.00021 1.00021 0 0 0 2-.00008v-2.94426a7.35238 7.35238 0 0 0 4.23828 0v2.94434a1 1 0 0 0 2 0v-1.824a25.81556 25.81556 0 0 0 14.0293.14518v1.6837a1 1 0 0 0 2 0v-7.75977a28.961 28.961 0 0 0 -2.3252-11.61914c-1.22963-3.08218-3.41926-5.48091-4.24026-8.74217-.41532-.87837-.0683-3.1611-1.618-3.003-1.57517.388-.42438 2.56466-.31712 3.50688a23.23948 23.23948 0 0 0 2.87944 6.1452 40.598 40.598 0 0 1 -17.8056 2.57651 1.00041 1.00041 0 0 0 -.16309 1.99416c1.08252.08789 2.26709.13282 3.52295.13282a42.33922 42.33922 0 0 0 15.39991-2.92853c.17462.35577.34381.71905.5 1.09845 2.06025 4.34948 2.31 9.89383 2.1668 14.84031a24.2357 24.2357 0 0 1 -14.02911-.14512c.02134-.52032.02766-1.1467-.4981-1.42274a1.00065 1.00065 0 0 0 -.998-.00292 5.31156 5.31156 0 0 1 -5.2461 0 1.00551 1.00551 0 0 0 -.998.00293c-.5229.26429-.523.91763-.498 1.42275a24.237 24.237 0 0 1 -14.02984.14494c-.15857-5.39687.15978-11.24352 2.67732-15.91954a42.9601 42.9601 0 0 0 6.9594 2.054.99955.99955 0 1 0 .39844-1.959 40.96171 40.96171 0 0 1 -6.417-1.87488c.14093-.24475.27942-.49823.41992-.7384a21.887 21.887 0 0 0 3.27918-12.96684 19.70014 19.70014 0 0 0 -1.11316-5.60732 38.47369 38.47369 0 0 1 23.88934.00113c-.31702 1.18806-2.24302 6.62029-.14718 6.63843z"/><path d="m31 33.082v1a1.00019 1.00019 0 0 0 2-.00006v-.99994a1.00019 1.00019 0 0 0 -2 0z"/><path d="m59 27h-7.58594l1.293-1.293a1.00008 1.00008 0 0 0 -1.4141-1.414l-2.99911 2.99909a1.00938 1.00938 0 0 0 0 1.41578l2.99915 2.99913a.99988.99988 0 1 0 1.414-1.414l-1.29294-1.293h7.58594a1.0002 1.0002 0 0 0 0-2z"/><path d="m5 29h7.58594l-1.293 1.293a1.00008 1.00008 0 0 0 1.4141 1.414c4.3852-4.53687 4.38316-2.87826-.00007-7.414a1.00007 1.00007 0 0 0 -1.414 1.4141l1.29297 1.2929h-7.58594a1.00019 1.00019 0 0 0 0 2z"/></svg>