<svg viewBox="0 0 512 512" xmlns="http://www.w3.org/2000/svg"><g id="Hang_over"><path d="m159.1685 163.8434c-2.4362-.3621-5.5946-1.2352-6.8077-3.3355-1.8145-3.1443.4325-9.4832 5.8682-16.5443 6.8258-8.87 17.679-17.852 30.56-25.2894 27.7356-16.0112 50.7657-16.995 54.4432-10.63 1.8145 3.1443-.4326 9.4833-5.8682 16.5444-6.8258 8.87-17.679 17.852-30.56 25.2893a6.1793 6.1793 0 0 0 6.18 10.7024c14.249-8.226 26.3877-18.3308 34.1771-28.4538 8.932-11.61 11.338-22.3562 6.7734-30.2623-9.8614-17.0835-44.113-9.6039-71.3255 6.1076-14.249 8.2259-26.3877 18.3308-34.1771 28.4537-8.932 11.61-11.338 22.3563-6.7754 30.26 2.03 3.5185 6.3992 8.0006 15.6934 9.3847a6.4469 6.4469 0 0 0 .9173.0664 6.18 6.18 0 0 0 .9013-12.2936z"/><path d="m372.6 267.4489a104.7531 104.7531 0 0 0 -33.0445-76.3875v-33.4322a6.18 6.18 0 1 0 -12.36 0v23.4078a105.0331 105.0331 0 0 0 -15.45-8.8616v-14.5462a6.18 6.18 0 0 0 -12.36 0v9.7075a104.153 104.153 0 0 0 -15.45-3.66v-6.0472a6.18 6.18 0 1 0 -12.36 0v4.8623c-1.3408-.0513-2.6827-.1026-4.0355-.1026a105.0157 105.0157 0 0 0 -54.98 194.5158 56.9811 56.9811 0 0 0 -2.1827 15.6059 6.179 6.179 0 0 0 6.18 6.18h54.59v22.66a18.54 18.54 0 0 0 37.08 0v-22.66h10.3a6.179 6.179 0 0 0 6.18-6.18 57.0037 57.0037 0 0 0 -2.1807-15.5989 105.0655 105.0655 0 0 0 50.0734-89.4631zm-70.553 98.882a6.179 6.179 0 0 0 -6.18 6.18v28.84a6.18 6.18 0 1 1 -12.36 0v-28.84a6.179 6.179 0 0 0 -6.18-6.18h-54.1657a44.8093 44.8093 0 0 1 88.761 0zm15.7467-21.0531a57.1488 57.1488 0 0 0 -100.4964-.0126 92.6435 92.6435 0 0 1 50.2427-170.5163c1.3528 0 2.6957.0447 4.0355.1026v44.5777a6.18 6.18 0 0 0 12.36 0v-43.1987a91.8991 91.8991 0 0 1 15.45 4.1542v39.0445a6.18 6.18 0 0 0 12.36 0v-33.4439a93.0519 93.0519 0 0 1 15.45 10.5847v22.8592a6.18 6.18 0 0 0 12.36 0v-10.2638a92.5288 92.5288 0 0 1 -21.7618 136.1124z"/><path d="m321.8521 293.73-30.4312-5.3653a6.1792 6.1792 0 1 0 -2.1445 12.1709l30.4313 5.3653a6.1792 6.1792 0 1 0 2.1444-12.1709z"/><path d="m243.6607 288.3647-30.4313 5.3653a6.1792 6.1792 0 1 0 2.1445 12.1709l30.4313-5.3653a6.1792 6.1792 0 1 0 -2.1445-12.1709z"/><path d="m306.9956 277.2339h7.9144a6.18 6.18 0 0 0 0-12.36h-7.9141a13.0746 13.0746 0 0 1 -12.7865-10.4811 6.1791 6.1791 0 0 0 -12.1186 2.4221 25.4664 25.4664 0 0 0 24.9048 20.419z"/><path d="m248.1408 249.5446a6.1851 6.1851 0 0 0 -7.27 4.8482 13.0746 13.0746 0 0 1 -12.7865 10.4811h-7.9143a6.18 6.18 0 0 0 0 12.36h7.9141a25.4664 25.4664 0 0 0 24.9051-20.419 6.1775 6.1775 0 0 0 -4.8484-7.2703z"/></g></svg>