<svg id="Layer_1" height="512" viewBox="0 0 512 512" width="512" xmlns="http://www.w3.org/2000/svg" data-name="Layer 1"><g fill="rgb(0,0,0)"><path d="m448.09 333.21c.03-.09.06-.18.09-.28s.05-.21.07-.31c.02-.08.04-.17.05-.25.02-.11.03-.21.04-.32.01-.09.02-.17.03-.26 0-.1 0-.2.01-.3 0-.1 0-.19 0-.29 0-.09 0-.18-.02-.27 0-.11-.02-.22-.03-.32-.01-.08-.02-.16-.04-.24-.02-.11-.04-.23-.06-.34-.02-.08-.04-.15-.06-.23-.03-.11-.06-.22-.09-.33-.03-.09-.06-.18-.1-.26-.04-.09-.07-.18-.11-.28-.05-.11-.11-.22-.16-.33-.03-.05-.05-.11-.08-.16 0-.01-.01-.02-.02-.03-.07-.13-.15-.25-.23-.37-.03-.04-.05-.09-.08-.13-.08-.12-.17-.23-.27-.35-.03-.04-.06-.08-.1-.12-.08-.09-.17-.18-.25-.27-.05-.05-.1-.11-.16-.17s-.12-.11-.18-.16c-.09-.08-.17-.16-.27-.23-.05-.04-.1-.07-.14-.1-.11-.08-.23-.17-.34-.24-.05-.03-.1-.06-.16-.09-.12-.07-.24-.14-.37-.2-.01 0-.02-.01-.03-.02-.06-.03-.12-.05-.18-.08-.11-.05-.21-.1-.32-.14-.1-.04-.2-.07-.29-.1-.08-.03-.17-.06-.25-.08-.11-.03-.23-.06-.34-.08-.07-.02-.15-.03-.22-.05-.12-.02-.24-.04-.36-.05-.07 0-.15-.02-.22-.02-.11 0-.23-.01-.34-.01-.08 0-.17 0-.25 0-.1 0-.2 0-.31.02-.09 0-.19.01-.28.03-.09.01-.18.03-.28.04-.1.02-.2.03-.3.06-.09.02-.18.04-.26.07-.1.03-.2.05-.3.09-.1.03-.19.07-.29.11-.09.03-.17.06-.26.1-.11.05-.23.11-.34.17-.05.03-.11.05-.16.08-24.63 13.66-50.65 19.24-89.83 19.24-106.17 0-192.55-86.38-192.55-192.55 0-28.23 5.97-55.43 17.74-80.84.02-.04.03-.08.05-.12.04-.1.09-.21.13-.31.03-.09.06-.17.09-.26s.06-.19.08-.28c.03-.1.05-.2.07-.29s.03-.18.05-.27c.02-.1.03-.21.04-.31.01-.09.02-.18.02-.28s.01-.2.01-.3 0-.2 0-.3c0-.09 0-.18-.01-.26 0-.11-.02-.22-.04-.33-.01-.08-.02-.16-.03-.23-.02-.11-.05-.23-.07-.34-.02-.08-.04-.15-.06-.23-.03-.11-.06-.21-.1-.32-.03-.08-.06-.17-.09-.25-.04-.09-.08-.19-.12-.28s-.09-.19-.13-.28c-.02-.04-.04-.09-.06-.13s-.05-.07-.07-.11c-.05-.1-.11-.19-.17-.28-.05-.08-.1-.15-.15-.23-.06-.08-.12-.17-.19-.25-.06-.07-.12-.15-.18-.22s-.13-.14-.2-.21-.14-.15-.21-.21-.14-.12-.21-.18c-.08-.07-.16-.14-.25-.2-.07-.05-.14-.1-.21-.15-.09-.07-.19-.13-.28-.19-.07-.04-.14-.08-.21-.12-.1-.06-.21-.11-.31-.16-.04-.02-.07-.04-.11-.06s-.08-.03-.12-.05c-.1-.04-.2-.09-.31-.12-.09-.03-.18-.06-.27-.09s-.18-.05-.27-.08c-.1-.03-.21-.05-.31-.08-.08-.02-.17-.03-.25-.05-.11-.02-.22-.04-.33-.05-.08 0-.17-.01-.25-.02-.11 0-.22-.01-.32-.02-.09 0-.18 0-.27 0-.1 0-.2 0-.29.01-.1 0-.2.02-.3.03-.09.01-.18.02-.26.04-.11.02-.21.04-.32.07-.08.02-.17.04-.25.06-.1.03-.2.06-.3.09-.09.03-.18.06-.26.1-.09.04-.18.07-.27.11-.1.04-.19.09-.28.14-.04.02-.09.04-.13.06-66.06 35.85-107.08 104.76-107.08 179.84 0 112.79 91.76 204.55 204.55 204.55 38.99 0 76.91-11.01 109.65-31.84 31.83-20.25 57.43-48.82 74.04-82.62.01-.02.02-.04.03-.06 0-.02.02-.03.03-.05.03-.05.05-.11.07-.17.05-.11.1-.23.15-.34.03-.09.06-.18.09-.27zm-80.85 73.38c-30.82 19.61-66.51 29.97-103.21 29.97-106.17 0-192.55-86.38-192.55-192.55 0-64.67 32.36-124.48 85.49-160.05-7.88 21.99-11.87 45.06-11.87 68.82 0 112.79 91.76 204.55 204.55 204.55 23.83 0 51.14-1.7 78.52-12.62-15.3 24.89-36.08 46.08-60.92 61.88z"/><path d="m224.27 243.23h23.57l-27.48 23.61c-1.9 1.64-2.59 4.28-1.72 6.64s3.12 3.92 5.63 3.92h39.76c3.31 0 6-2.69 6-6s-2.69-6-6-6h-23.57l27.48-23.61c1.9-1.64 2.59-4.28 1.72-6.64-.87-2.35-3.12-3.92-5.63-3.92h-39.76c-3.31 0-6 2.69-6 6s2.69 6 6 6z"/><path d="m289.75 185.57h42.47l-46.45 41.19c-1.86 1.65-2.51 4.29-1.63 6.62s3.12 3.87 5.61 3.87h58.28c3.31 0 6-2.69 6-6s-2.69-6-6-6h-42.47l46.45-41.19c1.86-1.65 2.51-4.29 1.63-6.62s-3.12-3.87-5.61-3.87h-58.28c-3.31 0-6 2.69-6 6s2.69 6 6 6z"/><path d="m446.52 173.57h-61.17l60.92-51.45c1.92-1.63 2.63-4.28 1.76-6.65s-3.12-3.94-5.63-3.94h-73.45c-3.31 0-6 2.69-6 6s2.69 6 6 6h57.04l-60.92 51.45c-1.92 1.63-2.63 4.28-1.76 6.65s3.12 3.94 5.63 3.94h77.58c3.31 0 6-2.69 6-6s-2.69-6-6-6z"/></g></svg>