<?xml version="1.0" encoding="UTF-8"?>
<svg xmlns="http://www.w3.org/2000/svg" viewBox="0 0 128 128" width="512" height="512"><g id="Layer_24" data-name="Layer 24"><path d="M81.7,111.557a32.794,32.794,0,0,0-9.782-12.286,1.5,1.5,0,0,0-1.83,2.379,29.759,29.759,0,0,1,8.884,11.157l1.369,2.985a.5.5,0,0,1-.455.708H24.117a.5.5,0,0,1-.454-.708l1.368-2.985a29.759,29.759,0,0,1,8.884-11.157,1.5,1.5,0,0,0-1.83-2.379A32.794,32.794,0,0,0,22.3,111.557l-1.367,2.985a3.5,3.5,0,0,0,3.181,4.958H79.883a3.5,3.5,0,0,0,3.182-4.958Z"/><path d="M26.712,89.04l.308.451A27.478,27.478,0,0,0,49.741,101.5h4.518a27.477,27.477,0,0,0,22.72-12.008l.31-.453a41.479,41.479,0,0,0,5.187-10.576,1.5,1.5,0,1,0-2.853-.926,38.548,38.548,0,0,1-4.812,9.812l-.31.453A24.48,24.48,0,0,1,54.259,98.5H49.741A24.482,24.482,0,0,1,29.5,87.8l-.308-.451A38.347,38.347,0,0,1,22.5,65.661V60.893A5.463,5.463,0,0,0,25,61.5h.479a31.334,31.334,0,0,0,18.165-5.766l6.914-4.88a2.5,2.5,0,0,1,2.88,0l6.924,4.885A31.337,31.337,0,0,0,78.523,61.5H79A5.506,5.506,0,0,0,84.5,56V44a29.32,29.32,0,0,0-3.521-13.963c4.7-5.58,4.793-13.386.082-18.1-5-5-13.574-4.547-19.122,1a15.931,15.931,0,0,0-1.693,2.038A29.456,29.456,0,0,0,55,14.5H49A29.533,29.533,0,0,0,19.5,44V58.5H18A5.506,5.506,0,0,0,12.5,64a11.452,11.452,0,0,0,8.05,10.973h0A41.4,41.4,0,0,0,26.712,89.04ZM64.061,15.061c4.377-4.378,11.052-4.826,14.878-1,3.387,3.386,3.448,8.946.368,13.249A29.609,29.609,0,0,0,63.451,15.74C63.65,15.51,63.844,15.277,64.061,15.061ZM22.5,44A26.53,26.53,0,0,1,49,17.5h6A26.53,26.53,0,0,1,81.5,44V56A2.5,2.5,0,0,1,79,58.5h-.477a28.355,28.355,0,0,1-16.432-5.214L55.169,48.4a5.508,5.508,0,0,0-6.341,0l-6.914,4.881A28.35,28.35,0,0,1,25.479,58.5H25A2.5,2.5,0,0,1,22.5,56V44Zm-7,20A2.5,2.5,0,0,1,18,61.5h1.5v4.161a41.791,41.791,0,0,0,.405,5.772A8.448,8.448,0,0,1,15.5,64Z"/><path d="M70.752,67.832a1.5,1.5,0,0,0,2.5-1.664L71.92,64.176a1.5,1.5,0,0,0-1.752-2.424,8.551,8.551,0,0,1-10.336,0,1.5,1.5,0,0,0-1.752,2.424l-1.328,1.992a1.5,1.5,0,1,0,2.5,1.664l1.47-2.2c.177.073.353.134.53.2l-.7,2.811a1.5,1.5,0,0,0,1.091,1.819A1.532,1.532,0,0,0,62,70.5a1.5,1.5,0,0,0,1.454-1.136l.721-2.883c.275.021.549.034.824.034s.549-.013.824-.034l.721,2.883A1.5,1.5,0,0,0,68,70.5a1.532,1.532,0,0,0,.365-.045,1.5,1.5,0,0,0,1.091-1.819l-.7-2.811c.177-.064.353-.125.53-.2Z"/><path d="M44.752,67.832a1.5,1.5,0,0,0,2.5-1.664L45.92,64.176a1.5,1.5,0,0,0-1.752-2.424,8.551,8.551,0,0,1-10.336,0,1.5,1.5,0,0,0-1.752,2.424l-1.328,1.992a1.5,1.5,0,1,0,2.5,1.664l1.47-2.2c.177.073.353.134.53.2l-.7,2.811a1.5,1.5,0,0,0,1.091,1.819A1.532,1.532,0,0,0,36,70.5a1.5,1.5,0,0,0,1.454-1.136l.721-2.883c.275.021.549.034.824.034s.549-.013.824-.034l.721,2.883A1.5,1.5,0,0,0,42,70.5a1.532,1.532,0,0,0,.365-.045,1.5,1.5,0,0,0,1.091-1.819l-.7-2.811c.177-.064.353-.125.53-.2Z"/><path d="M46.228,91.9a11.193,11.193,0,0,0,11.544,0,1.5,1.5,0,0,0-1.544-2.572,8.2,8.2,0,0,1-8.456,0A1.5,1.5,0,0,0,46.228,91.9Z"/><path d="M114.628,49.512a6.5,6.5,0,0,0-8.879-2.379l-8.227,4.75-1.251-2.166a1.5,1.5,0,1,0-2.6,1.5l2,3.462,0,0,.25.432L71.979,68.938a21.4,21.4,0,0,0-6.145,5.324l-.331.42a2.978,2.978,0,0,0,2.33,4.819,3.149,3.149,0,0,0,.432-.031l.528-.075h0a21.4,21.4,0,0,0,7.683-2.662l23.945-13.824.25.434h0l2,3.463a1.5,1.5,0,0,0,2.6-1.5l-1.249-2.165,8.227-4.75A6.507,6.507,0,0,0,114.628,49.512ZM74.979,74.135a18.441,18.441,0,0,1-6.612,2.29l-.507.113.331-.42a18.442,18.442,0,0,1,5.288-4.582L97.423,57.712l1.5,2.6Zm35.77-18.342-8.227,4.75-.251-.434-3-5.2-.249-.433,8.227-4.75a3.5,3.5,0,0,1,3.5,6.063Z"/><path d="M66,93.5A5.506,5.506,0,0,0,71.5,88c0-2.645-2.088-7.5-5.5-7.5s-5.5,4.855-5.5,7.5A5.506,5.506,0,0,0,66,93.5Zm0-10c.981,0,2.5,2.733,2.5,4.5a2.5,2.5,0,0,1-5,0C63.5,86.233,65.019,83.5,66,83.5Z"/><path d="M104.5,82.551V80a3.5,3.5,0,0,0-3.5-3.5H91A3.5,3.5,0,0,0,87.5,80v2.551A3.494,3.494,0,0,0,84.5,86v28a5.506,5.506,0,0,0,5.5,5.5h12a5.506,5.506,0,0,0,5.5-5.5V86A3.494,3.494,0,0,0,104.5,82.551ZM90.5,80a.5.5,0,0,1,.5-.5h10a.5.5,0,0,1,.5.5v2.5h-11Zm-3,12.5H97a.5.5,0,0,1,.5.5v16a.5.5,0,0,1-.5.5H87.5Zm17,21.5a2.5,2.5,0,0,1-2.5,2.5H90a2.5,2.5,0,0,1-2.5-2.5v-1.5H97a3.5,3.5,0,0,0,3.5-3.5V93A3.5,3.5,0,0,0,97,89.5H87.5V86a.5.5,0,0,1,.5-.5h16a.5.5,0,0,1,.5.5Z"/></g></svg>
