<svg id="Capa_1" enable-background="new 0 0 512 512" height="512" viewBox="0 0 512 512" width="512" xmlns="http://www.w3.org/2000/svg"><path d="m390.659 185.617c0-38.696-30.474-70.407-68.684-72.399v-16.56h12.45c9.65 0 17.5-7.851 17.5-17.5v-22.816c0-6.266-3.322-11.758-8.286-14.85v-18.992c0-12.406-10.093-22.5-22.5-22.5h-168.349c-12.407 0-22.5 10.094-22.5 22.5v18.992c-4.964 3.092-8.286 8.583-8.286 14.85v22.817c0 9.649 7.851 17.5 17.5 17.5h12.45v16.56c-38.21 1.992-68.684 33.702-68.684 72.399v284.196c0 17.921 14.58 32.5 32.5 32.5h149.622c2.574 1.569 5.263 2.985 8.074 4.208 8.396 3.651 17.275 5.478 26.199 5.478 8.642-.001 17.326-1.715 25.644-5.146 1.234-.51 2.44-1.061 3.629-1.634 1.909 1.118 3.898 2.123 5.959 2.981 6.176 2.566 12.623 3.78 18.998 3.78 19.246 0 37.822-11.071 46.17-29.449.083-.182.158-.366.226-.554l27.622-76.482c1.701-4.296.694-9.145-2.597-12.411-3.291-3.268-8.147-4.239-12.431-2.506l-22.227 8.219v-94.868c0-4.143-3.358-7.5-7.5-7.5s-7.5 3.357-7.5 7.5v100.415l-14.803 5.474-47.433-101.066c-2.117-4.939-6.918-8.109-12.304-8.109-.016 0-.033 0-.049 0-5.406.02-10.208 3.23-12.294 8.199l-15.273 33.194v-63.39c0-9.649-7.851-17.5-17.5-17.5h-38.632c-4.142 0-7.5 3.358-7.5 7.5 0 4.143 3.358 7.5 7.5 7.5h38.632c1.378 0 2.5 1.121 2.5 2.5v95.583c0 .124.013.246.019.368l-19.068 41.441c-.022.048-.043.096-.064.144-1.297 2.982-2.37 6.022-3.242 9.096h-137.876v-39.71h76.578c4.142 0 7.5-3.357 7.5-7.5s-3.358-7.5-7.5-7.5h-76.578v-39.711h76.578c4.142 0 7.5-3.358 7.5-7.5 0-4.143-3.358-7.5-7.5-7.5h-76.578v-39.71h86.413c4.142 0 7.5-3.357 7.5-7.5s-3.358-7.5-7.5-7.5h-86.413v-46.758c11.862.901 18.794 3.919 26.043 7.093 9.238 4.045 19.709 8.629 39.548 8.629 19.845 0 30.318-4.585 39.558-8.63 8.658-3.79 16.837-7.37 33.542-7.37s24.884 3.58 33.542 7.37c9.24 4.045 19.714 8.63 39.558 8.63 19.845 0 30.318-4.585 39.558-8.63 7.248-3.173 14.18-6.19 26.039-7.091v56.852c0 4.143 3.358 7.5 7.5 7.5s7.5-3.357 7.5-7.5zm-253.654-106.458v-22.817c0-1.379 1.122-2.5 2.5-2.5h56.054c4.142 0 7.5-3.357 7.5-7.5s-3.358-7.5-7.5-7.5h-50.269v-16.342c0-4.136 3.364-7.5 7.5-7.5h168.35c4.136 0 7.5 3.364 7.5 7.5v16.342h-100.394c-4.142 0-7.5 3.358-7.5 7.5s3.358 7.5 7.5 7.5h106.18c1.379 0 2.5 1.121 2.5 2.5v22.817c0 1.379-1.122 2.5-2.5 2.5h-194.921c-1.379 0-2.5-1.121-2.5-2.5zm169.971 17.5v16.458h-140.022v-16.458zm-151.205 31.458h162.388c31.706 0 57.5 25.794 57.5 57.5v13.736c-15.123.987-24.057 4.887-32.055 8.388-8.658 3.79-16.837 7.37-33.542 7.37-16.706 0-24.884-3.58-33.543-7.37-9.24-4.045-19.713-8.63-39.558-8.63s-30.318 4.585-39.558 8.63c-8.658 3.79-16.837 7.37-33.543 7.37-16.699 0-24.875-3.58-33.531-7.369-7.999-3.502-16.933-7.403-32.059-8.389v-13.736c.001-31.706 25.795-57.5 57.501-57.5zm-57.5 341.696v-29.535h135.327c-.579 9.645.835 19.348 4.294 28.564 2.553 6.803 6.102 13.003 10.472 18.472h-132.593c-9.65-.001-17.5-7.851-17.5-17.501zm209.502 26.514v-19.122l21.198-21.198c2.929-2.93 2.929-7.678 0-10.608-2.928-2.927-7.677-2.929-10.607 0l-10.592 10.592v-4.199c0-.001 0-.003 0-.005v-51.339c0-4.143-3.358-7.5-7.5-7.5s-7.5 3.358-7.5 7.5v33.234l-10.592-10.592c-2.929-2.928-7.678-2.928-10.607 0-2.929 2.93-2.929 7.678 0 10.607l21.198 21.198v19.199.005 22.4c-4.542-.627-9.018-1.862-13.322-3.735-12.762-5.551-22.533-15.919-27.515-29.194-5.009-13.348-4.59-28.025 1.179-41.338l48.018-104.363 49.22 104.873c10.173 27.555-3.583 59.02-30.765 70.246-3.86 1.594-7.822 2.698-11.813 3.339zm78.518-19.739c-7.416 15.974-25.887 23.967-42.471 18.898 20.201-17.295 29.549-45.372 22.569-71.721l44.987-16.634z"/></svg>