<svg id="line" height="512" viewBox="0 0 64 64" width="512" xmlns="http://www.w3.org/2000/svg"><path d="m27.14063 53.69971h9.71875a.99952.99952 0 0 0 .999-.96094l1.00293-25.56152a1.0061 1.0061 0 0 0 -.999-1.03906h-11.72461a1.0061 1.0061 0 0 0 -.999 1.03908l1.0029 25.5615a.99953.99953 0 0 0 .99903.96094zm9.68164-25.56153-.92481 23.56153h-7.79492l-.92481-23.56153z"/><path d="m40.63086 10.28418 2.16016-.00537a1.00006 1.00006 0 0 0 .99707-1v-4.25342a.99974.99974 0 0 0 -1-1l-9.57618-.02539a6.51614 6.51614 0 0 0 -6.52734 6.49072v2.07715h-.82031a1.60864 1.60864 0 0 0 -1.60742 1.60693v5.23438h-1.14454a2.90368 2.90368 0 0 0 -2.90039 2.90088v34.78955a2.90357 2.90357 0 0 0 2.90039 2.90039h17.7754a2.90357 2.90357 0 0 0 2.90039-2.90039v-34.78955a2.90368 2.90368 0 0 0 -2.90039-2.90088h-1.14454v-5.23438a1.60864 1.60864 0 0 0 -1.60742-1.60693h-.64642a3.30444 3.30444 0 0 1 3.14154-2.28369zm1.15723 12.02588v34.78955a.90159.90159 0 0 1 -.90039.90039h-17.7754a.90159.90159 0 0 1 -.90039-.90039v-34.78955a.902.902 0 0 1 .90039-.90088h17.7754a.902.902 0 0 1 .90039.90088zm-4.04493-2.90625h-11.48632v-4.83594s10.77366.00128 11.48635 0zm-9.05859-6.83594v-2.07715a4.51452 4.51452 0 0 1 4.52734-4.49072c2.05458-.01555 6.56844.02915 8.57618.02541v2.25584c-3.03466-.28886-5.76833 1.25446-6.37694 4.28671z"/></svg>