<svg id="Capa_1" enable-background="new 0 0 509.833 509.833" height="512" viewBox="0 0 509.833 509.833" width="512" xmlns="http://www.w3.org/2000/svg"><g><path d="m320.168 0h15v30.334h-15z"/><path d="m131.964 392.727h14.327v15h-14.327z" transform="matrix(.481 -.877 .877 .481 -278.672 329.644)"/><path d="m143.207 377.204 13.149 7.217 28.812-52.498c0-28.148 0-56.296 0-84.443 0-35.281 3.076-72.494-7.703-106.547-9.219-29.121-14.296-52.537-14.296-65.933v-75h-15v75c0 19.085 8.154 48.851 14.995 70.46 10.204 32.233 7.004 68.078 7.004 101.485v81.132z"/><path d="m267.525 390v-34.164l-16.139-16.14-10.607 10.608 11.746 11.745v27.951z"/><path d="m222.668 244.536-14.75 15.75v69.714h15v-63.786l14.75-15.75v-59.857l17.197 17.197 10.606-10.608-27.803-27.803v-47.654l-29.999-27.998v-21.634l36.803-36.803-10.606-10.608-26.197 26.197v-35.893h-15v85.259l29.999 27.998z"/><path d="m239.865 80.304 17.196 17.196-11.446 11.446 10.607 10.608 41.446-41.448v-63.106h-15v56.894l-15 14.999-17.196-17.197z"/><path d="m446.241 268.425-10.548 10.547-10.606-10.606 21.272-21.271-10.606-10.607-16.027 16.027-85.089-85.089-5.541 5.541-11.337-11.337c11.552-40.933 17.41-70.066 17.41-86.628v-29.335h-15v29.333c0 14.762-5.646 42.625-16.359 80.825l-6.297 6.297-27.028-27.028-10.606 10.607 27.028 27.027-10.37 10.37 14.734 14.734c-3.96 12.58-8.433 24.716-8.433 38.088v86.039c18.513 27.44 33.883 56.439 13.833 88.665-15.378 24.713-51.369 23.449-77.015 27.239l-74.523 56.969h-89.608c-9.165 0-10.767-13.33-2.109-15.699l59.964-16.405 21.469-39.12-13.149-7.217-18.411 33.546-53.832 14.728c-25.124 6.876-19.908 45.168 6.067 45.168h94.682l75.477-57.697c30.31-4.48 65.578-4.426 83.721-33.587 22.04-35.421 9.569-69.847-11.568-101.175v-81.453c0-6.092.929-12.12 2.742-17.937l76.838 76.838-15.91 15.91 10.606 10.607 21.214-21.213 10.606 10.606-10.489 10.489 30.494 30.494 20.38-20.38-10.606-10.607-9.774 9.774-9.281-9.281 31.584-31.584 9.281 9.281-10.561 10.561 10.606 10.607 21.168-21.168zm-111.605-79.787 47.613 47.613-21.096 21.096-47.612-47.612zm-26.281 5.068-10.607-10.607 10.134-10.134 10.606 10.607zm63.404 74.247 21.096-21.096 16.263 16.263-21.097 21.096zm42.78 32.173-10.606-10.606 10.547-10.547 10.607 10.606z"/><path d="m365.155 157.749h15v-15h15v-15h-15v-15h-15v15h-15v15h15z"/><path d="m410.224 82.749h15v15h-15z"/></g></svg>