<svg id="line" viewBox="0 0 64 64" xmlns="http://www.w3.org/2000/svg"><path d="m59.89453 36.33838a31.92166 31.92166 0 0 0 -27.89453-15.98145 31.92166 31.92166 0 0 0 -27.89453 15.98145 1.00107 1.00107 0 0 0 0 .89453 31.92166 31.92166 0 0 0 27.89453 15.98145 31.92166 31.92166 0 0 0 27.89453-15.98145 1.00107 1.00107 0 0 0 0-.89453zm-27.89453 14.87598a29.9253 29.9253 0 0 1 -25.85645-14.42872 29.92532 29.92532 0 0 1 25.85645-14.42871 29.9253 29.9253 0 0 1 25.85645 14.42871 29.92528 29.92528 0 0 1 -25.85645 14.42872z"/><path d="m32 30.78564a6 6 0 1 0 6 6 6.00657 6.00657 0 0 0 -6-6zm0 10a4 4 0 1 1 4-4 4.00427 4.00427 0 0 1 -4 4z"/><path d="m32 24.78564a12 12 0 1 0 12 12 12.01344 12.01344 0 0 0 -12-12zm0 22a10 10 0 1 1 10-10 10.01146 10.01146 0 0 1 -10 10z"/><path d="m32 17.78564a.99974.99974 0 0 0 1-1v-5a1 1 0 0 0 -2 0v5a.99974.99974 0 0 0 1 1z"/><path d="m14.2002 20.38574a.9999.9999 0 1 0 1.5996-1.20019l-2.99993-3.99994a1.00009 1.00009 0 0 0 -1.59967 1.20013z"/><path d="m48.999 20.78564a.99781.99781 0 0 0 .80078-.3999l2.99994-3.99994a1.00008 1.00008 0 0 0 -1.59954-1.20025l-2.99994 4a1.00645 1.00645 0 0 0 .79876 1.60009z"/></svg>