<?xml version="1.0" encoding="iso-8859-1"?>
<!-- Generator: Adobe Illustrator 19.0.0, SVG Export Plug-In . SVG Version: 6.00 Build 0)  -->
<svg version="1.1" id="Capa_1" xmlns="http://www.w3.org/2000/svg" xmlns:xlink="http://www.w3.org/1999/xlink" x="0px" y="0px"
	 viewBox="0 0 512.002 512.002" style="enable-background:new 0 0 512.002 512.002;" xml:space="preserve">
<g>
	<g>
		<path d="M256.001,211.001c-57.897,0-105,47.103-105,105c0,57.897,47.103,105,105,105c57.897,0,105-47.103,105-105
			C361.001,258.104,313.898,211.001,256.001,211.001z M256.001,391.001c-41.355,0-75-33.645-75-75c0-41.355,33.645-75,75-75
			c41.355,0,75,33.645,75,75C331.001,357.356,297.356,391.001,256.001,391.001z"/>
	</g>
</g>
<g>
	<g>
		<path d="M256.001,271.001c-24.813,0-45,20.187-45,45s20.187,45,45,45s45-20.187,45-45S280.814,271.001,256.001,271.001z
			 M256.001,331.001c-8.271,0-15-6.729-15-15s6.729-15,15-15s15,6.729,15,15S264.272,331.001,256.001,331.001z"/>
	</g>
</g>
<g>
	<g>
		<path d="M256.001,31.001c-8.284,0-15,6.716-15,15v60c0,8.284,6.716,15,15,15s15-6.716,15-15v-60
			C271.001,37.717,264.285,31.001,256.001,31.001z"/>
	</g>
</g>
<g>
	<g>
		<path d="M416.608,65.394c-5.858-5.857-15.356-5.857-21.213,0l-45,45c-5.858,5.858-5.858,15.355,0,21.213
			c5.858,5.858,15.355,5.858,21.213,0l45-45C422.466,80.749,422.466,71.252,416.608,65.394z"/>
	</g>
</g>
<g>
	<g>
		<path d="M161.608,110.394l-45-45c-5.858-5.857-15.356-5.857-21.213,0c-5.858,5.858-5.858,15.355,0,21.213l45,45
			c5.858,5.858,15.355,5.858,21.213,0C167.466,125.749,167.466,116.252,161.608,110.394z"/>
	</g>
</g>
<g>
	<g>
		<path d="M509.157,307.212c-1.149-1.59-28.663-39.377-73.179-77.593c-50.434-43.295-112.944-78.618-179.977-78.618
			c-67.048,0-129.56,35.337-179.977,78.619c-44.516,38.216-72.029,76.003-73.179,77.593c-3.793,5.245-3.793,12.332,0,17.577
			c1.15,1.589,28.664,39.377,73.179,77.592c50.592,43.433,113.077,78.619,179.977,78.619c66.903,0,129.389-35.19,179.977-78.619
			c44.516-38.216,72.029-76.003,73.179-77.593C512.95,319.544,512.95,312.457,509.157,307.212z M417.002,379.067
			c-41.709,35.962-98.941,71.934-161.001,71.934c-63.673,0-122.116-38.583-159.933-70.951
			c-29.614-25.347-51.612-51.004-62.093-64.044c10.103-12.551,30.91-36.807,59.025-61.337
			c41.869-36.529,99.943-73.668,163.001-73.668c63.673,0,122.116,38.583,159.933,70.951c29.612,25.345,51.609,51.001,62.093,64.044
			C467.686,328.843,446.13,353.953,417.002,379.067z"/>
	</g>
</g>
<g>
</g>
<g>
</g>
<g>
</g>
<g>
</g>
<g>
</g>
<g>
</g>
<g>
</g>
<g>
</g>
<g>
</g>
<g>
</g>
<g>
</g>
<g>
</g>
<g>
</g>
<g>
</g>
<g>
</g>
</svg>
