<svg id="Layer_1" enable-background="new 0 0 512 512" viewBox="0 0 512 512" xmlns="http://www.w3.org/2000/svg"><path d="m480.92 156.24c-2.25-3.03-4.38-5.9-6.24-8.73l-11.53-17.51c-1.11-1.68-2.98-2.7-5-2.7-.01 0-.01 0-.02 0-2.01 0-3.88 1-5 2.68l-11.61 17.45c-1.88 2.82-4.02 5.68-6.29 8.7-7.6 10.14-16.22 21.62-16.26 35.01-.03 10.42 4.01 20.22 11.35 27.61 7.35 7.38 17.13 11.47 27.55 11.49h.1c21.46 0 38.95-17.43 39-38.9.06-13.4-8.5-24.93-16.05-35.1zm-22.92 62c-.02 0-.04 0-.07 0-7.21-.02-13.99-2.84-19.07-7.96-5.09-5.11-7.88-11.9-7.86-19.11.02-9.4 7.06-18.78 13.86-27.84 2.27-3.02 4.61-6.15 6.68-9.25l6.59-9.9 6.54 9.93c2.05 3.12 4.38 6.25 6.63 9.29 6.75 9.1 13.74 18.51 13.72 27.91-.06 14.86-12.16 26.93-27.02 26.93zm-365-55.85c.03-13.39-8.53-24.92-16.08-35.09-2.25-3.03-4.38-5.9-6.25-8.73l-11.52-17.5c-1.11-1.68-2.98-2.7-5-2.7h-.01c-2.01 0-3.88 1-5 2.68l-11.61 17.45c-1.88 2.82-4.02 5.68-6.29 8.7-7.6 10.14-16.22 21.62-16.26 35.01-.05 21.51 17.4 39.05 38.91 39.1h.1c10.38 0 20.15-4.03 27.51-11.35 7.4-7.37 11.48-17.15 11.5-27.57zm-19.95 19.04c-5.1 5.07-11.86 7.86-19.04 7.86-.02 0-.05 0-.07 0-14.89-.04-26.97-12.18-26.93-27.07.02-9.4 7.06-18.78 13.86-27.84 2.27-3.02 4.61-6.15 6.68-9.25l6.58-9.9 6.54 9.93c2.05 3.12 4.38 6.25 6.63 9.29 6.75 9.1 13.74 18.51 13.71 27.91-.02 7.21-2.85 13.99-7.96 19.07zm55.25-96.24h.07c14.92 0 27.08-12.12 27.12-27.05.02-9.28-5.68-16.97-10.72-23.75-1.42-1.92-2.77-3.73-3.93-5.49l-7.37-11.2c-1.11-1.68-2.98-2.7-5-2.7h-.01c-2.01 0-3.88 1-5 2.68l-7.43 11.16c-1.17 1.76-2.52 3.56-3.95 5.47-5.07 6.75-10.81 14.41-10.83 23.7-.02 7.24 2.79 14.06 7.89 19.19 5.11 5.13 11.92 7.97 19.16 7.99zm-6.61-43.68c1.47-1.96 2.99-3.98 4.34-6.02l2.41-3.62 2.39 3.63c1.35 2.04 2.85 4.08 4.31 6.04 4.11 5.54 8.36 11.27 8.35 16.56-.02 8.32-6.8 15.08-15.12 15.08-.01 0-.03 0-.04 0-4.04-.01-7.83-1.59-10.68-4.45s-4.41-6.66-4.4-10.7c.01-5.3 4.3-11 8.44-16.52zm267.52 43.68h.07c7.22 0 14.01-2.8 19.12-7.9 5.13-5.11 7.97-11.91 7.99-19.15.02-9.28-5.68-16.97-10.72-23.75-1.42-1.92-2.77-3.73-3.92-5.49l-7.37-11.2c-1.11-1.68-2.98-2.7-5-2.7-.01 0-.01 0-.02 0-2.01 0-3.88 1-5 2.68l-7.43 11.16c-1.17 1.76-2.52 3.56-3.95 5.47-5.07 6.75-10.81 14.41-10.84 23.7-.02 14.95 12.12 27.14 27.07 27.18zm-6.62-43.68c1.47-1.96 2.99-3.98 4.34-6.02l2.41-3.61 2.39 3.63c1.35 2.04 2.85 4.08 4.31 6.04 4.11 5.54 8.36 11.27 8.35 16.57-.01 4.04-1.59 7.83-4.45 10.68-2.85 2.84-6.64 4.4-10.66 4.4-.01 0-.03 0-.04 0-8.33-.02-15.1-6.82-15.08-15.16.01-5.31 4.29-11.01 8.43-16.53zm35.11 335.87c6.32-18.26 9.56-37.38 9.61-56.91.15-60.43-39.37-113.66-77.59-165.13-11.76-15.85-22.88-30.81-32.82-45.92l-59.08-89.77c-1.11-1.68-2.98-2.7-5-2.7-2.05-.04-3.9 1-5.01 2.68l-59.52 89.47c-10.02 15.06-21.21 29.97-33.05 45.76-38.48 51.28-78.26 104.31-78.41 164.74-.08 32.12 8.53 63.27 24.94 90.58-15.23 7.42-25.75 23.06-25.75 41.11 0 25.2 20.5 45.71 45.71 45.71 18.17 0 33.89-10.66 41.26-26.05 26.79 15.85 57.28 24.25 88.65 24.32h.44c42.11 0 82.5-15.02 114.3-42.41 6.96 4.29 15.15 6.77 23.91 6.77 25.2 0 45.71-20.5 45.71-45.71-.01-14.92-7.2-28.19-18.3-36.54zm-328.88-57.75c.14-56.45 38.71-107.86 76.01-157.57 11.42-15.23 23.24-30.97 33.44-46.31l54.5-81.92 54.09 82.19c10.13 15.39 21.86 31.2 33.21 46.48 37.05 49.9 75.36 101.5 75.22 157.95-.04 17.47-2.82 34.59-8.26 50.98-5.2-2.06-10.85-3.2-16.77-3.2-17.58 0-32.86 9.98-40.5 24.56l-48.6-17.71c.7-3.18 1.09-6.48 1.09-9.87 0-25.2-20.5-45.71-45.71-45.71-4.85 0-9.52.77-13.91 2.17l-24.9-52.75c8.51-6.1 14.07-16.07 14.07-27.31 0-18.53-15.07-33.6-33.6-33.6s-33.6 15.07-33.6 33.6 15.07 33.6 33.6 33.6c3 0 5.91-.4 8.68-1.14l24.9 52.75c-12.59 8.15-20.95 22.31-20.95 38.39 0 6.9 1.55 13.45 4.3 19.32l-58.49 37.34c-8.39-9.95-20.94-16.28-34.94-16.28-2.8 0-5.55.27-8.21.75-16.21-25.99-24.74-55.87-24.67-86.71zm134.03 45.58c0-18.59 15.12-33.71 33.71-33.71s33.71 15.12 33.71 33.71-15.12 33.71-33.71 33.71-33.71-15.13-33.71-33.71zm-24.64-102c-11.91 0-21.6-9.69-21.6-21.6s9.69-21.6 21.6-21.6 21.6 9.69 21.6 21.6-9.69 21.6-21.6 21.6zm-76.49 221.79c-18.59 0-33.71-15.12-33.71-33.71s15.12-33.71 33.71-33.71 33.71 15.12 33.71 33.71-15.12 33.71-33.71 33.71zm129.94-1.73c-30.15-.07-59.41-8.4-84.93-24.08.45-2.57.7-5.21.7-7.9 0-6.9-1.55-13.45-4.3-19.32l58.49-37.34c8.39 9.95 20.94 16.28 34.94 16.28 17.58 0 32.86-9.98 40.5-24.56l48.6 17.71c-.7 3.18-1.09 6.48-1.09 9.87 0 12.06 4.7 23.03 12.35 31.2-29.37 24.65-66.33 38.14-104.86 38.14-.13.01-.27 0-.4 0zm138.62-35.63c-18.59 0-33.71-15.12-33.71-33.71s15.12-33.71 33.71-33.71 33.71 15.12 33.71 33.71-15.12 33.71-33.71 33.71z"/></svg>